<?xml version='1.0' encoding='ASCII' standalone='yes'?>
<svg xmlns="http://www.w3.org/2000/svg" width="955" height="459" viewBox="0 125 1055 459">
 <style type="text/css">.st0{fill-rule:evenodd;clip-rule:evenodd;fill:#00813D;}
	.st1{fill-rule:evenodd;clip-rule:evenodd;fill:#DE3C3B;}
	.st2{fill-rule:evenodd;clip-rule:evenodd;}
	.st3{fill-rule:evenodd;clip-rule:evenodd;fill:#E7E5E4;}
	.st4{fill-rule:evenodd;clip-rule:evenodd;fill:#FFFFFF;}
	.st5{fill-rule:evenodd;clip-rule:evenodd;fill:#9CB64F;}
	.st6{fill-rule:evenodd;clip-rule:evenodd;fill:#2595BD;}</style>

 <g>
  <title>background</title>
  <rect x="-1" y="-1" width="1055" height="559" id="canvas_background" fill="none"/>
 </g>
 <g>
  <title>Layer 1</title>
  <g id="svg_1" stroke="null">
   <rect class="st0" width="1055" height="559" id="svg_2" stroke="null" y="1" x="1"/>
   <g id="svg_3" stroke="null">
    <g id="svg_4" stroke="null">
     <g id="svg_5" stroke="null">
      <polygon class="st1" points="405.0999755859375,477.9000244140625 350.4000244140625,511.4000244140625 405.0999755859375,545 459.70001220703125,511.4000244140625 " id="svg_6" stroke="null"/>
      <polygon class="st2" points="566.2999877929688,477.9000244140625 511.70001220703125,511.4000244140625 566.2999877929688,545 621,511.4000244140625 " id="svg_7" stroke="null"/>
      <g id="svg_8" stroke="null">
       <polygon class="st3" points="163,435.60003662109375 163,420.5 167.70001220703125,420.5 167.70001220703125,416.20001220703125 153,416.20001220703125 153,420.5 157.70001220703125,420.5 157.70001220703125,435.60003662109375 " id="svg_9" stroke="null"/>
       <path class="st3" d="m145.6,431.199997c-0.4,0.3 -0.9,0.4 -1.7,0.4c-0.9,0 -1.9,-0.1 -3,-0.4c-1.1,-0.3 -2.1,-0.7 -3.1,-1.2l0,4.7c1,0.5 1.9,0.8 2.7,1c0.9,0.2 2,0.3 3.3,0.3c1.5,0 2.9,-0.3 4.1,-0.8c1.2,-0.5 2,-1.2 2.6,-2.2c0.6,-0.9 0.9,-2 0.9,-3.2c0,-1.3 -0.3,-2.4 -1,-3.3c-0.7,-0.9 -1.8,-1.7 -3.5,-2.4c-1.8,-0.8 -2.8,-1.4 -3.2,-1.7c-0.4,-0.3 -0.6,-0.6 -0.6,-1c0,-0.4 0.2,-0.7 0.5,-0.9c0.3,-0.2 0.8,-0.4 1.5,-0.4c1.3,0 2.9,0.4 4.7,1.2l1.6,-4.1c-2.1,-0.9 -4.1,-1.4 -6.2,-1.4c-2.3,0 -4.1,0.5 -5.4,1.5c-1.3,1 -2,2.4 -2,4.2c0,1 0.2,1.8 0.5,2.5c0.3,0.7 0.8,1.3 1.4,1.9c0.6,0.5 1.6,1.1 2.9,1.7c1.4,0.6 2.3,1 2.6,1.3c0.3,0.2 0.6,0.4 0.7,0.6c0.2,0.2 0.2,0.4 0.2,0.7c0,0.4 -0.1,0.8 -0.5,1z" id="svg_10" stroke="null"/>
       <path class="st3" d="m115.4,435.599997l7.1,0l0,-26l-6.3,0l-8.9,7.3l3.6,4.5l2.9,-2.4c0.7,-0.6 1.2,-1.1 1.6,-1.7c-0.1,1.4 -0.1,2.9 -0.1,4.6l0,13.7l0.1,0z" id="svg_11" stroke="null"/>
       <path class="st3" d="m214.9,424.399997c0.9,-0.9 1.6,-1.8 2.1,-2.6c0.5,-0.8 0.9,-1.7 1.2,-2.6c0.3,-0.9 0.4,-1.8 0.4,-2.8c0,-1.4 -0.4,-2.6 -1.1,-3.7c-0.7,-1.1 -1.8,-1.9 -3.1,-2.5c-1.3,-0.6 -2.8,-0.9 -4.5,-0.9c-1.3,0 -2.5,0.1 -3.6,0.4c-1.1,0.3 -2.1,0.7 -3,1.2c-0.9,0.5 -2,1.4 -3.4,2.6l3.9,4.5c1.1,-0.9 2,-1.6 2.8,-2.1c0.8,-0.5 1.7,-0.7 2.5,-0.7c0.8,0 1.4,0.2 1.8,0.6c0.4,0.4 0.7,0.9 0.7,1.6c0,0.5 -0.1,1.1 -0.3,1.6c-0.2,0.5 -0.6,1.1 -1.2,1.8c-0.6,0.7 -1.7,2 -3.6,3.9l-6.3,6.4l0,4.6l18.8,0l0,-5.8l-9.8,0l0,-0.2c2.9,-2.6 4.8,-4.3 5.7,-5.3z" id="svg_12" stroke="null"/>
       <path class="st3" d="m187.5,435.599997l7.1,0l0,-26l-6.3,0l-8.9,7.3l3.6,4.5l2.9,-2.4c0.7,-0.6 1.2,-1.1 1.6,-1.7c-0.1,1.4 -0.1,2.9 -0.1,4.6l0,13.7l0.1,0z" id="svg_13" stroke="null"/>
       <path class="st3" d="m439,424.599997c0.9,-0.9 1.6,-1.8 2.1,-2.6c0.5,-0.8 0.9,-1.7 1.2,-2.6c0.3,-0.9 0.4,-1.8 0.4,-2.8c0,-1.4 -0.4,-2.6 -1.1,-3.7c-0.7,-1.1 -1.7,-1.9 -3.1,-2.5c-1.3,-0.6 -2.8,-0.9 -4.5,-0.9c-1.3,0 -2.5,0.1 -3.6,0.4c-1.1,0.3 -2.1,0.7 -3,1.2c-0.9,0.5 -2,1.4 -3.4,2.6l3.9,4.5c1.1,-0.9 2,-1.6 2.8,-2.1c0.8,-0.5 1.7,-0.7 2.5,-0.7c0.8,0 1.4,0.2 1.8,0.6c0.4,0.4 0.7,0.9 0.7,1.6c0,0.5 -0.1,1.1 -0.3,1.6c-0.2,0.5 -0.6,1.1 -1.2,1.8c-0.6,0.7 -1.7,2 -3.6,3.9l-6.3,6.4l0,4.6l18.8,0l0,-5.8l-9.8,0l0,-0.2c2.9,-2.7 4.8,-4.4 5.7,-5.3z" id="svg_14" stroke="null"/>
       <path class="st3" d="m462.9,416.299997l-6.9,0l0,19.5l4.7,0l0,-8.8c0,-1.1 -0.1,-2.8 -0.3,-4.9l0.1,0l7.1,13.7l6.9,0l0,-19.5l-4.7,0l0,8.8c0,1.2 0.1,2.8 0.2,4.7l0,0l-7.1,-13.5z" id="svg_15" stroke="null"/>
       <path class="st3" d="m543.2,424.599997c0.9,-0.9 1.6,-1.8 2.1,-2.6c0.5,-0.8 0.9,-1.7 1.2,-2.6c0.3,-0.9 0.4,-1.8 0.4,-2.8c0,-1.4 -0.4,-2.6 -1.1,-3.7c-0.7,-1.1 -1.8,-1.9 -3.1,-2.5c-1.3,-0.6 -2.8,-0.9 -4.5,-0.9c-1.3,0 -2.5,0.1 -3.6,0.4c-1.1,0.3 -2.1,0.7 -3,1.2c-0.9,0.5 -2,1.4 -3.4,2.6l3.9,4.5c1.1,-0.9 2,-1.6 2.8,-2.1c0.8,-0.5 1.7,-0.7 2.5,-0.7c0.8,0 1.4,0.2 1.8,0.6c0.4,0.4 0.7,0.9 0.7,1.6c0,0.5 -0.1,1.1 -0.3,1.6c-0.2,0.5 -0.6,1.1 -1.2,1.8c-0.6,0.7 -1.7,2 -3.6,3.9l-6.3,6.4l0,4.6l18.8,0l0,-5.8l-9.8,0l0,-0.2c2.9,-2.7 4.8,-4.4 5.7,-5.3z" id="svg_16" stroke="null"/>
       <path class="st3" d="m515.8,435.799997l7.1,0l0,-26l-6.3,0l-8.9,7.3l3.6,4.5l2.9,-2.4c0.7,-0.6 1.2,-1.1 1.6,-1.7c-0.1,1.4 -0.1,2.9 -0.1,4.6l0,13.7l0.1,0z" id="svg_17" stroke="null"/>
       <path class="st3" d="m495.3,425.599997c0,-3 -0.9,-5.3 -2.6,-6.9c-1.7,-1.6 -4.1,-2.4 -7.2,-2.4l-6.7,0l0,19.5l6.3,0c3.2,0 5.8,-0.9 7.5,-2.6c1.8,-1.8 2.7,-4.3 2.7,-7.6zm-6.5,4.5c-0.7,0.9 -1.9,1.4 -3.5,1.4l-1.2,0l0,-10.9l1.5,0c1.4,0 2.5,0.4 3.2,1.3c0.7,0.9 1.1,2.2 1.1,4c0,1.8 -0.4,3.3 -1.1,4.2z" id="svg_18" stroke="null"/>
       <path class="st3" d="m815.5,425.499997c0,-3 -0.9,-5.3 -2.6,-6.9c-1.7,-1.6 -4.1,-2.4 -7.2,-2.4l-6.7,0l0,19.5l6.3,0c3.2,0 5.8,-0.9 7.5,-2.6c1.8,-1.9 2.7,-4.4 2.7,-7.6zm-6.6,4.4c-0.7,0.9 -1.9,1.4 -3.5,1.4l-1.2,0l0,-10.9l1.5,0c1.4,0 2.5,0.4 3.2,1.3c0.7,0.9 1.1,2.2 1.1,4c0,1.9 -0.4,3.3 -1.1,4.2z" id="svg_19" stroke="null"/>
       <path class="st3" d="m759,429.799997c-0.7,0.4 -1.8,0.6 -3.4,0.6c-1,0 -2.1,-0.1 -3.3,-0.4c-1.2,-0.3 -2.3,-0.7 -3.5,-1.3l0,5.8c1.4,0.5 2.7,0.9 3.9,1.1c1.2,0.2 2.5,0.3 3.9,0.3c3.4,0 6,-0.7 8,-2.1c1.9,-1.4 2.9,-3.3 2.9,-5.7c0,-3.5 -2.2,-5.6 -6.5,-6.1l0,-0.1c1.9,-0.5 3.3,-1.4 4.3,-2.5c1,-1.2 1.5,-2.5 1.5,-4.1c0,-1.9 -0.8,-3.3 -2.3,-4.4c-1.5,-1.1 -3.6,-1.6 -6.3,-1.6c-1.9,0 -3.5,0.2 -4.9,0.6c-1.4,0.4 -2.8,1.1 -4.2,2l2.9,4.7c1.8,-1.1 3.5,-1.7 5.1,-1.7c0.9,0 1.6,0.2 2.1,0.5c0.5,0.3 0.8,0.8 0.8,1.5c0,1.8 -1.8,2.7 -5.3,2.7l-1.6,0l0,5.3l1.6,0c1.3,0 2.4,0.1 3.2,0.3c0.8,0.2 1.4,0.5 1.8,0.9c0.4,0.4 0.5,0.9 0.5,1.6c-0.2,1 -0.5,1.7 -1.2,2.1z" id="svg_20" stroke="null"/>
       <path class="st3" d="m863.3,424.399997c0.9,-0.9 1.6,-1.8 2.1,-2.6c0.5,-0.8 0.9,-1.7 1.2,-2.6c0.3,-0.9 0.4,-1.8 0.4,-2.8c0,-1.4 -0.4,-2.6 -1.1,-3.7c-0.7,-1.1 -1.8,-1.9 -3.1,-2.5c-1.3,-0.6 -2.8,-0.9 -4.5,-0.9c-1.3,0 -2.5,0.1 -3.6,0.4c-1.1,0.3 -2.1,0.7 -3,1.2c-0.9,0.5 -2,1.4 -3.4,2.6l3.9,4.5c1.1,-0.9 2,-1.6 2.8,-2.1c0.8,-0.5 1.7,-0.7 2.5,-0.7c0.8,0 1.4,0.2 1.8,0.6c0.4,0.4 0.7,0.9 0.7,1.6c0,0.5 -0.1,1.1 -0.3,1.6c-0.2,0.5 -0.6,1.1 -1.2,1.8c-0.6,0.7 -1.7,2 -3.6,3.9l-6.3,6.4l0,4.6l18.8,0l0,-5.8l-9.8,0l0,-0.2c3,-2.6 4.8,-4.4 5.7,-5.3z" id="svg_21" stroke="null"/>
       <path class="st3" d="m794.8,421.899997c0,-3.8 -2.6,-5.7 -7.9,-5.7l-6.4,0l0,19.5l5.3,0l0,-7.1l1.3,0l4.1,7.1l6,0l-5.7,-8.5c2.2,-1.3 3.3,-3.1 3.3,-5.3zm-8.1,2.7l-1,0l0,-4.4l1,0c1.8,0 2.7,0.7 2.7,2c0.1,1.5 -0.8,2.4 -2.7,2.4z" id="svg_22" stroke="null"/>
       <path class="st3" d="m835.9,435.599997l7.1,0l0,-26l-6.3,0l-8.9,7.3l3.6,4.5l2.9,-2.4c0.7,-0.6 1.2,-1.1 1.6,-1.7c-0.1,1.4 -0.1,2.9 -0.1,4.6l0,13.7l0.1,0z" id="svg_23" stroke="null"/>
       <path class="st3" d="m35.4,523.499997l6.6,0l0,-24.2l-5.9,0l-8.3,6.8l3.4,4.2l2.7,-2.3c0.6,-0.5 1.1,-1.1 1.5,-1.6c-0.1,1.3 -0.1,2.7 -0.1,4.3l0,12.8l0.1,0z" id="svg_24" stroke="null"/>
       <polygon class="st3" points="65.10000610351562,523.5 65.10000610351562,509.4000244140625 69.5,509.4000244140625 69.5,505.4000244140625 55.70001220703125,505.4000244140625 55.70001220703125,509.4000244140625 60.20001220703125,509.4000244140625 60.20001220703125,523.5 " id="svg_25" stroke="null"/>
       <path class="st3" d="m86.3,521.399997c1.5,-1.6 2.2,-3.9 2.2,-7c0,-3.1 -0.7,-5.4 -2.2,-7c-1.5,-1.6 -3.7,-2.4 -6.6,-2.4c-2.9,0 -5.1,0.8 -6.6,2.4c-1.5,1.6 -2.3,3.9 -2.3,6.9c0,3.1 0.8,5.4 2.3,7c1.5,1.6 3.7,2.4 6.5,2.4c3,0.1 5.2,-0.7 6.7,-2.3zm-10.2,-7c0,-3.5 1.2,-5.3 3.7,-5.3c1.2,0 2.1,0.4 2.7,1.3c0.6,0.9 0.9,2.2 0.9,4c0,1.8 -0.3,3.1 -0.9,4c-0.6,0.8 -1.5,1.3 -2.8,1.3c-2.4,0 -3.6,-1.7 -3.6,-5.3z" id="svg_26" stroke="null"/>
       <path class="st3" d="m107.6,523.499997l6.6,0l0,-24.2l-5.9,0l-8.3,6.8l3.4,4.2l2.7,-2.3c0.6,-0.5 1.1,-1.1 1.5,-1.6c-0.1,1.3 -0.1,2.7 -0.1,4.3l0,12.8l0.1,0z" id="svg_27" stroke="null"/>
       <path class="st3" d="m120.7,513.599997c-0.7,1 -1,2.2 -1,3.6c0,2.2 0.8,3.8 2.3,5c1.5,1.2 3.7,1.7 6.5,1.7c2.8,0 5,-0.6 6.5,-1.8c1.6,-1.2 2.3,-2.8 2.3,-5c0,-1.2 -0.4,-2.3 -1.1,-3.3c-0.7,-1 -2,-2 -3.8,-3c1.4,-0.7 2.5,-1.6 3.2,-2.5c0.7,-1 1,-2.1 1,-3.4c0,-1.9 -0.7,-3.3 -2.1,-4.4c-1.4,-1 -3.4,-1.5 -5.9,-1.5c-2.5,0 -4.5,0.5 -6,1.5c-1.4,1 -2.2,2.5 -2.2,4.3c0,1.2 0.3,2.3 0.9,3.3c0.6,1 1.5,1.9 2.8,2.8c-1.6,0.8 -2.8,1.7 -3.4,2.7zm6.4,-9.4c0.4,-0.3 0.9,-0.5 1.4,-0.5c0.5,0 1,0.2 1.4,0.5c0.4,0.3 0.6,0.7 0.6,1.3c0,0.5 -0.1,0.9 -0.4,1.3c-0.3,0.4 -0.8,0.8 -1.6,1.2c-1.3,-0.7 -1.9,-1.6 -1.9,-2.5c-0.1,-0.5 0.1,-1 0.5,-1.3zm-0.8,11c0.4,-0.5 1.1,-1 2.1,-1.6c1.1,0.7 1.9,1.2 2.3,1.8c0.4,0.5 0.6,1.1 0.6,1.6c0,1.4 -1,2.1 -2.9,2.1c-0.9,0 -1.5,-0.2 -2,-0.6c-0.5,-0.4 -0.7,-1 -0.7,-1.6c-0.1,-0.6 0.1,-1.1 0.6,-1.7z" id="svg_28" stroke="null"/>
       <path class="st3" d="m241.5,499.399997l-7.3,0l-3.4,12.3c-0.2,0.7 -0.4,1.6 -0.6,2.7c-0.2,1.2 -0.4,2.1 -0.5,2.9c-0.1,-1.1 -0.4,-3 -1.1,-5.7l-3.3,-12.3l-7.3,0l7.9,24.2l7.7,0l7.9,-24.1z" id="svg_29" stroke="null"/>
       <polygon class="st3" points="216.29998779296875,504.60003662109375 216.29998779296875,499.4000244140625 202,499.4000244140625 202,523.5 216.29998779296875,523.5 216.29998779296875,518.2000122070312 208.5,518.2000122070312 208.5,513.7000122070312 215.70001220703125,513.7000122070312 215.70001220703125,508.4000244140625 208.5,508.4000244140625 208.5,504.60003662109375 " id="svg_30" stroke="null"/>
       <path class="st3" d="m271.2,499.399997l-8.5,0l0,24.2l5.8,0l0,-10.9c0,-1.4 -0.1,-3.5 -0.3,-6.1l0.1,0l8.8,17l8.6,0l0,-24.2l-5.8,0l0,10.9c0,1.5 0.1,3.4 0.2,5.9l-0.1,0l-8.8,-16.8z" id="svg_31" stroke="null"/>
       <polygon class="st3" points="258.3999938964844,504.60003662109375 258.3999938964844,499.4000244140625 244.10000610351562,499.4000244140625 244.10000610351562,523.5 258.3999938964844,523.5 258.3999938964844,518.2000122070312 250.60000610351562,518.2000122070312 250.60000610351562,513.7000122070312 257.79998779296875,513.7000122070312 257.79998779296875,508.4000244140625 250.60000610351562,508.4000244140625 250.60000610351562,504.60003662109375 " id="svg_32" stroke="null"/>
       <path class="st3" d="m711.5,520.699997c2,-2.1 3,-5.2 3,-9.3c0,-4.1 -1,-7.2 -3,-9.3c-2,-2.1 -4.9,-3.2 -8.8,-3.2c-3.8,0 -6.8,1.1 -8.8,3.2c-2,2.1 -3,5.2 -3,9.2c0,4.1 1,7.2 3,9.3c2,2.1 4.9,3.2 8.7,3.2c3.9,0.1 6.9,-1 8.9,-3.1zm-13.7,-9.3c0,-4.7 1.6,-7.1 4.9,-7.1c1.6,0 2.8,0.6 3.6,1.7c0.8,1.2 1.2,2.9 1.2,5.4c0,2.4 -0.4,4.2 -1.2,5.3c-0.8,1.1 -2,1.7 -3.7,1.7c-3.2,0 -4.8,-2.3 -4.8,-7z" id="svg_33" stroke="null"/>
       <path class="st3" d="m739.3,510.999997c0,-3.7 -1.1,-6.6 -3.2,-8.6c-2.1,-2 -5.1,-3 -9,-3l-8.4,0l0,24.2l7.8,0c4,0 7.1,-1.1 9.4,-3.3c2.3,-2.2 3.4,-5.3 3.4,-9.3zm-8.1,5.5c-0.9,1.2 -2.4,1.7 -4.4,1.7l-1.5,0l0,-13.6l1.9,0c1.8,0 3.1,0.5 4,1.6c0.9,1.1 1.3,2.7 1.3,4.9c0.1,2.5 -0.4,4.2 -1.3,5.4z" id="svg_34" stroke="null"/>
       <path class="st3" d="m764.2,510.999997c0,-3.7 -1.1,-6.6 -3.2,-8.6c-2.1,-2 -5.1,-3 -9,-3l-8.4,0l0,24.2l7.8,0c4,0 7.1,-1.1 9.4,-3.3c2.3,-2.2 3.4,-5.3 3.4,-9.3zm-8.2,5.5c-0.9,1.2 -2.4,1.7 -4.4,1.7l-1.5,0l0,-13.6l1.9,0c1.8,0 3.1,0.5 4,1.6c0.9,1.1 1.3,2.7 1.3,4.9c0.1,2.5 -0.3,4.2 -1.3,5.4z" id="svg_35" stroke="null"/>
       <path class="st3" d="m831.7,523.499997l6.6,0l0,-24.2l-5.9,0l-8.3,6.8l3.4,4.2l2.7,-2.3c0.6,-0.5 1.1,-1.1 1.5,-1.6c-0.1,1.3 -0.1,2.7 -0.1,4.3l0,12.8l0.1,0z" id="svg_36" stroke="null"/>
       <path class="st3" d="m853.4,517.399997c-1.3,1 -3.1,1.4 -5.4,1.4c-0.9,0 -1.9,-0.1 -2.8,-0.3l0,5.2c0.8,0.1 1.9,0.2 3.4,0.2c4.5,0 7.8,-1.1 9.8,-3.2c2,-2.1 3.1,-5.5 3.1,-10.3c0,-3.6 -0.8,-6.4 -2.4,-8.4c-1.6,-2 -3.9,-2.9 -6.9,-2.9c-2.7,0 -4.7,0.8 -6.3,2.3c-1.5,1.5 -2.3,3.6 -2.3,6.3c0,2.5 0.6,4.4 1.8,5.8c1.2,1.4 2.8,2.1 4.9,2.1c0.9,0 1.7,-0.1 2.3,-0.3c0.6,-0.2 1.1,-0.5 1.5,-0.8c0.4,-0.4 0.8,-0.9 1.3,-1.7l0.2,0c-0.3,2.1 -1,3.6 -2.2,4.6zm0.6,-7.6c-0.5,0.5 -1.2,0.8 -1.9,0.8c-0.8,0 -1.4,-0.3 -1.8,-0.8c-0.4,-0.5 -0.6,-1.3 -0.6,-2.2c0,-1.1 0.2,-2 0.7,-2.5c0.4,-0.5 1,-0.8 1.7,-0.8c0.8,0 1.4,0.3 1.9,1.1c0.5,0.7 0.7,1.6 0.7,2.5c0.1,0.7 -0.1,1.4 -0.7,1.9z" id="svg_37" stroke="null"/>
       <polygon class="st3" points="881.199951171875,523.5 881.199951171875,509.4000244140625 885.699951171875,509.4000244140625 885.699951171875,505.4000244140625 871.9000244140625,505.4000244140625 871.9000244140625,509.4000244140625 876.300048828125,509.4000244140625 876.300048828125,523.5 " id="svg_38" stroke="null"/>
       <path class="st3" d="m948.4,504.099997c1.3,0 2.5,0.1 3.6,0.3l0,-5.1c-1.3,-0.2 -2.5,-0.3 -3.4,-0.3c-2.8,0 -5.1,0.5 -7,1.5c-1.9,1 -3.3,2.5 -4.3,4.6c-1,2.1 -1.4,4.8 -1.4,8.2c0,3.3 0.8,5.9 2.4,7.8c1.6,1.9 3.8,2.8 6.7,2.8c2.7,0 4.8,-0.8 6.3,-2.3c1.5,-1.5 2.3,-3.6 2.3,-6.3c0,-2.5 -0.6,-4.4 -1.8,-5.8c-1.2,-1.4 -2.9,-2.1 -5,-2.1c-2.2,0 -3.8,0.9 -4.8,2.8l-0.2,0c0.1,-2.2 0.7,-3.7 1.8,-4.7c1,-0.9 2.6,-1.4 4.8,-1.4zm-5.4,9.1c0.5,-0.5 1.1,-0.8 1.8,-0.8c1.5,0 2.3,1 2.3,2.9c0,1.1 -0.2,2 -0.6,2.5c-0.4,0.5 -1,0.8 -1.7,0.8c-0.7,0 -1.3,-0.3 -1.8,-1c-0.4,-0.7 -0.7,-1.5 -0.7,-2.6c0,-0.6 0.3,-1.3 0.7,-1.8z" id="svg_39" stroke="null"/>
       <path class="st3" d="m902.5,521.399997c1.5,-1.6 2.2,-3.9 2.2,-7c0,-3.1 -0.7,-5.4 -2.2,-7c-1.5,-1.6 -3.7,-2.4 -6.6,-2.4c-2.9,0 -5.1,0.8 -6.6,2.4c-1.5,1.6 -2.3,3.9 -2.3,6.9c0,3.1 0.8,5.4 2.3,7c1.5,1.6 3.7,2.4 6.5,2.4c3,0.1 5.2,-0.7 6.7,-2.3zm-10.3,-7c0,-3.5 1.2,-5.3 3.7,-5.3c1.2,0 2.1,0.4 2.7,1.3c0.6,0.9 0.9,2.2 0.9,4c0,1.8 -0.3,3.1 -0.9,4c-0.6,0.8 -1.5,1.3 -2.8,1.3c-2.4,0 -3.6,-1.7 -3.6,-5.3z" id="svg_40" stroke="null"/>
       <path class="st3" d="m925.4,518.099997c-0.7,0.4 -1.7,0.6 -3.1,0.6c-0.9,0 -1.9,-0.1 -3,-0.4c-1.1,-0.3 -2.2,-0.7 -3.2,-1.2l0,5.4c1.3,0.5 2.5,0.8 3.6,1c1.1,0.2 2.3,0.3 3.6,0.3c3.2,0 5.6,-0.6 7.4,-1.9c1.8,-1.3 2.7,-3.1 2.7,-5.3c0,-3.3 -2,-5.2 -6.1,-5.7l0,-0.1c1.7,-0.5 3.1,-1.3 4,-2.3c0.9,-1.1 1.4,-2.4 1.4,-3.9c0,-1.7 -0.7,-3.1 -2.1,-4.1c-1.4,-1 -3.4,-1.5 -5.9,-1.5c-1.7,0 -3.3,0.2 -4.6,0.6c-1.3,0.4 -2.6,1 -3.9,1.9l2.7,4.4c1.7,-1 3.3,-1.6 4.8,-1.6c0.8,0 1.5,0.2 2,0.5c0.5,0.3 0.7,0.8 0.7,1.4c0,1.7 -1.7,2.6 -5,2.6l-1.5,0l0,4.9l1.5,0c1.2,0 2.2,0.1 3,0.3c0.8,0.2 1.3,0.5 1.7,0.8c0.3,0.4 0.5,0.9 0.5,1.5c-0.2,0.8 -0.6,1.4 -1.2,1.8z" id="svg_41" stroke="null"/>
       <text fill="#ffffff" stroke-width="0" stroke-opacity="0" x="984" y="161.199997" id="svg_251" font-size="35" font-family="Oswald, sans-serif" text-anchor="start" xml:space="preserve" font-weight="bold" stroke="null">3rd</text>
       <text fill="#ffffff" stroke-width="0" stroke-opacity="0" x="979" y="252.199997" id="svg_252" font-size="35" font-family="Oswald, sans-serif" text-anchor="start" xml:space="preserve" font-weight="bold" stroke="null">2nd</text>
       <text fill="#ffffff" stroke-width="0" stroke-opacity="0" x="983" y="344.199997" id="svg_253" font-size="35" font-family="Oswald, sans-serif" text-anchor="start" xml:space="preserve" font-weight="bold" stroke="null">1st</text>
      </g>
      <g id="svg_54" stroke="null">
       <g id="svg_55" stroke="null">
        <circle class="st1" cx="42.3" cy="332.199997" r="34.599998" id="svg_56" stroke="null"/>
        <circle class="st2" cx="42.3" cy="239.999997" r="34.599998" id="svg_57" stroke="null"/>
        <circle class="st1" cx="42.3" cy="147.899997" r="34.599998" id="svg_58" stroke="null"/>
       </g>
       <g id="svg_59" stroke="null">
        <circle class="st2" cx="122.9" cy="332.199997" r="34.599998" id="svg_60" stroke="null"/>
        <circle class="st1" cx="122.9" cy="239.999997" r="34.599998" id="svg_61" stroke="null"/>
        <circle class="st2" cx="122.9" cy="147.899997" r="34.599998" id="svg_62" stroke="null"/>
       </g>
       <g id="svg_63" stroke="null">
        <circle class="st1" cx="203.5" cy="332.199997" r="34.599998" id="svg_64" stroke="null"/>
        <circle class="st2" cx="203.5" cy="239.999997" r="34.599998" id="svg_65" stroke="null"/>
        <circle class="st1" cx="203.5" cy="147.899997" r="34.599998" id="svg_66" stroke="null"/>
       </g>
       <g id="svg_67" stroke="null">
        <circle class="st2" cx="284.1" cy="332.199997" r="34.599998" id="svg_68" stroke="null"/>
        <circle class="st1" cx="284.1" cy="239.999997" r="34.599998" id="svg_69" stroke="null"/>
        <circle class="st2" cx="284.1" cy="147.899997" r="34.599998" id="svg_70" stroke="null"/>
       </g>
       <g id="svg_71" stroke="null">
        <circle class="st1" cx="364.8" cy="332.199997" r="34.599998" id="svg_72" stroke="null"/>
        <circle class="st2" cx="364.8" cy="239.999997" r="34.599998" id="svg_73" stroke="null"/>
        <circle class="st1" cx="364.8" cy="147.899997" r="34.599998" id="svg_74" stroke="null"/>
       </g>
       <g id="svg_75" stroke="null">
        <circle class="st2" cx="445.4" cy="332.199997" r="34.599998" id="svg_76" stroke="null"/>
        <circle class="st1" cx="445.4" cy="239.999997" r="34.599998" id="svg_77" stroke="null"/>
        <circle class="st2" cx="445.4" cy="147.899997" r="34.599998" id="svg_78" stroke="null"/>
       </g>
       <g id="svg_79" stroke="null">
        <circle class="st1" cx="526" cy="332.199997" r="34.599998" id="svg_80" stroke="null"/>
        <circle class="st2" cx="526" cy="239.999997" r="34.599998" id="svg_81" stroke="null"/>
        <circle class="st1" cx="526" cy="147.899997" r="34.599998" id="svg_82" stroke="null"/>
       </g>
       <g id="svg_83" stroke="null">
        <circle class="st2" cx="606.6" cy="332.199997" r="34.599998" id="svg_84" stroke="null"/>
        <circle class="st1" cx="606.6" cy="239.999997" r="34.599998" id="svg_85" stroke="null"/>
        <circle class="st2" cx="606.6" cy="147.899997" r="34.599998" id="svg_86" stroke="null"/>
       </g>
       <g id="svg_87" stroke="null">
        <circle class="st1" cx="687.3" cy="332.199997" r="34.599998" id="svg_88" stroke="null"/>
        <circle class="st2" cx="687.3" cy="239.999997" r="34.599998" id="svg_89" stroke="null"/>
        <circle class="st1" cx="687.3" cy="147.899997" r="34.599998" id="svg_90" stroke="null"/>
       </g>
       <g id="svg_91" stroke="null">
        <circle class="st2" cx="767.9" cy="332.199997" r="34.599998" id="svg_92" stroke="null"/>
        <circle class="st1" cx="767.9" cy="239.999997" r="34.599998" id="svg_93" stroke="null"/>
        <circle class="st2" cx="767.9" cy="147.899997" r="34.599998" id="svg_94" stroke="null"/>
       </g>
       <g id="svg_95" stroke="null">
        <circle class="st1" cx="848.5" cy="332.199997" r="34.599998" id="svg_96" stroke="null"/>
        <circle class="st2" cx="848.5" cy="239.999997" r="34.599998" id="svg_97" stroke="null"/>
        <circle class="st1" cx="848.5" cy="147.899997" r="34.599998" id="svg_98" stroke="null"/>
       </g>
       <g id="svg_99" stroke="null">
        <circle class="st2" cx="929.1" cy="332.199997" r="34.599998" id="svg_100" stroke="null"/>
        <circle class="st1" cx="929.1" cy="239.999997" r="34.599998" id="svg_101" stroke="null"/>
        <circle class="st2" cx="929.1" cy="147.899997" r="34.599998" id="svg_102" stroke="null"/>
       </g>
      </g>
     </g>
     <g id="svg_103" stroke="null">
      <path class="st4" d="m38.5,346.099997l7.7,0l0,-28l-6.8,0l-9.6,7.8l3.9,4.8l3.2,-2.6c0.7,-0.6 1.3,-1.2 1.8,-1.8c-0.1,1.5 -0.1,3.1 -0.1,4.9l0,14.9l-0.1,0z" id="svg_105" stroke="null"/>
      <path class="st4" d="m48.1,242.099997c1,-1 1.7,-1.9 2.3,-2.8c0.6,-0.9 1,-1.8 1.3,-2.8c0.3,-0.9 0.4,-1.9 0.4,-3c0,-1.5 -0.4,-2.8 -1.2,-4c-0.8,-1.2 -1.9,-2.1 -3.3,-2.7c-1.4,-0.6 -3,-1 -4.8,-1c-1.4,0 -2.7,0.1 -3.9,0.4c-1.1,0.3 -2.2,0.7 -3.2,1.3c-1,0.6 -2.2,1.5 -3.6,2.8l4.2,4.9c1.1,-1 2.2,-1.7 3.1,-2.2c0.9,-0.5 1.8,-0.8 2.7,-0.8c0.9,0 1.5,0.2 2,0.6c0.5,0.4 0.7,1 0.7,1.7c0,0.6 -0.1,1.1 -0.4,1.7c-0.2,0.5 -0.7,1.2 -1.3,1.9c-0.6,0.7 -1.9,2.1 -3.8,4.2l-6.8,6.9l0,5l20.3,0l0,-6.2l-10.8,0l0,-0.2c3.1,-2.8 5.1,-4.7 6.1,-5.7z" id="svg_106" stroke="null"/>
      <path class="st4" d="m43.1,155.699997c-0.8,0.5 -2,0.7 -3.6,0.7c-1.1,0 -2.2,-0.2 -3.5,-0.5c-1.3,-0.3 -2.5,-0.8 -3.7,-1.4l0,6.3c1.5,0.6 2.9,1 4.2,1.2c1.3,0.2 2.7,0.3 4.2,0.3c3.7,0 6.5,-0.7 8.6,-2.2c2.1,-1.5 3.1,-3.5 3.1,-6.1c0,-3.8 -2.3,-6 -7,-6.6l0,-0.2c2,-0.6 3.5,-1.5 4.6,-2.7c1.1,-1.2 1.6,-2.7 1.6,-4.5c0,-2 -0.8,-3.6 -2.5,-4.7c-1.6,-1.2 -3.9,-1.7 -6.8,-1.7c-2,0 -3.8,0.2 -5.3,0.6c-1.5,0.4 -3.1,1.2 -4.5,2.2l3.1,5c1.9,-1.2 3.8,-1.8 5.5,-1.8c1,0 1.7,0.2 2.3,0.5c0.6,0.4 0.9,0.9 0.9,1.6c0,2 -1.9,3 -5.8,3l-1.8,0l0,5.7l1.7,0c1.4,0 2.6,0.1 3.4,0.3c0.9,0.2 1.5,0.5 1.9,0.9c0.4,0.4 0.6,1 0.6,1.8c0,1.1 -0.4,1.8 -1.2,2.3z" id="svg_107" stroke="null"/>
      <path class="st4" d="m123.7,318.199997l-11.7,17l0,5.5l11.2,0l0,5.4l7.5,0l0,-5.4l3.1,0l0,-5.6l-3.1,0l0,-16.9l-7,0zm-0.4,11.1c0,1 -0.1,1.9 -0.1,2.5l0,3.3l-4.6,0l3.1,-4.6c0.5,-0.9 1,-1.8 1.5,-2.8l0.2,0c-0.1,0.1 -0.1,0.6 -0.1,1.6z" id="svg_108" stroke="null"/>
      <path class="st4" d="m120.6,248.299997c-1,0 -2.2,-0.2 -3.6,-0.5c-1.4,-0.3 -2.7,-0.8 -3.8,-1.3l0,6.2c2.1,1 4.7,1.5 8,1.5c3.8,0 6.7,-0.8 8.5,-2.5c1.9,-1.7 2.8,-4.1 2.8,-7.2c0,-1.8 -0.4,-3.4 -1.1,-4.7c-0.7,-1.4 -1.7,-2.4 -3,-3.2c-1.3,-0.8 -2.7,-1.1 -4.4,-1.1c-0.4,0 -0.7,0 -1.2,0c-0.4,0 -1.1,0.1 -2.1,0.3l0.3,-3.7l9.5,0l0,-6.3l-16,0l-1.1,14.8l2.8,1.4c1.4,-0.4 2.7,-0.7 3.8,-0.7c1.6,0 2.7,0.3 3.5,0.9c0.8,0.6 1.2,1.4 1.2,2.5c0,1.2 -0.4,2 -1.1,2.6c-0.6,0.7 -1.6,1 -3,1z" id="svg_109" stroke="null"/>
      <path class="st4" d="m127.2,139.399997c1.5,0 2.9,0.1 4.2,0.4l0,-5.9c-1.5,-0.2 -2.9,-0.3 -4,-0.3c-3.2,0 -5.9,0.6 -8,1.7c-2.2,1.1 -3.8,2.9 -4.9,5.4c-1.1,2.4 -1.7,5.6 -1.7,9.5c0,3.8 0.9,6.9 2.8,9c1.9,2.1 4.4,3.2 7.8,3.2c3.1,0 5.5,-0.9 7.3,-2.7c1.7,-1.8 2.6,-4.2 2.6,-7.3c0,-2.9 -0.7,-5.1 -2.1,-6.7c-1.4,-1.6 -3.3,-2.4 -5.8,-2.4c-2.5,0 -4.4,1.1 -5.5,3.3l-0.2,0c0.1,-2.5 0.8,-4.3 2,-5.4c1.1,-1.2 2.9,-1.8 5.5,-1.8zm-6.2,10.6c0.5,-0.6 1.2,-0.9 2.1,-0.9c1.8,0 2.6,1.1 2.6,3.4c0,1.3 -0.3,2.3 -0.8,2.9c-0.5,0.6 -1.2,0.9 -2,0.9c-0.9,0 -1.5,-0.4 -2.1,-1.2c-0.5,-0.8 -0.8,-1.8 -0.8,-3c0.2,-0.8 0.5,-1.5 1,-2.1z" id="svg_110" stroke="null"/>
      <polygon class="st4" points="203.70001220703125,346.1000061035156 213.60000610351562,322.5999755859375 213.60000610351562,318.20001220703125 193.39999389648438,318.20001220703125 193.39999389648438,324.4000244140625 205.5,324.4000244140625 195.89999389648438,346.1000061035156 " id="svg_111" stroke="null"/>
      <path class="st4" d="m194.5,242.499997c-0.8,1.1 -1.2,2.5 -1.2,4.1c0,2.5 0.9,4.4 2.6,5.8c1.7,1.3 4.3,2 7.6,2c3.2,0 5.7,-0.7 7.5,-2.1c1.8,-1.4 2.7,-3.3 2.7,-5.8c0,-1.4 -0.4,-2.6 -1.3,-3.8c-0.9,-1.2 -2.3,-2.3 -4.4,-3.5c1.7,-0.8 2.9,-1.8 3.7,-2.9c0.8,-1.1 1.2,-2.4 1.2,-3.9c0,-2.2 -0.8,-3.9 -2.5,-5.1c-1.6,-1.2 -3.9,-1.8 -6.9,-1.8c-2.9,0 -5.3,0.6 -6.9,1.8c-1.7,1.2 -2.5,2.9 -2.5,5c0,1.4 0.3,2.6 1,3.8c0.7,1.1 1.8,2.2 3.2,3.2c-1.8,1.1 -3.1,2.1 -3.8,3.2zm7.4,-10.8c0.4,-0.4 1,-0.6 1.6,-0.6c0.6,0 1.2,0.2 1.6,0.6c0.4,0.4 0.7,0.9 0.7,1.5c0,0.5 -0.2,1 -0.5,1.5c-0.3,0.4 -0.9,0.9 -1.9,1.4c-1.5,-0.8 -2.2,-1.8 -2.2,-2.9c0,-0.7 0.2,-1.1 0.7,-1.5zm-0.9,12.7c0.5,-0.6 1.3,-1.2 2.4,-1.8c1.3,0.8 2.1,1.4 2.6,2c0.5,0.6 0.7,1.2 0.7,1.8c0,1.6 -1.1,2.5 -3.4,2.5c-1,0 -1.8,-0.2 -2.3,-0.7c-0.6,-0.5 -0.8,-1.1 -0.8,-1.9c0,-0.6 0.3,-1.2 0.8,-1.9z" id="svg_112" stroke="null"/>
      <path class="st4" d="m204.6,154.699997c-1.5,1.1 -3.6,1.7 -6.3,1.7c-1.1,0 -2.2,-0.1 -3.3,-0.3l0,6c0.9,0.1 2.2,0.2 3.9,0.2c5.2,0 9,-1.2 11.3,-3.7c2.4,-2.4 3.5,-6.4 3.5,-11.9c0,-4.2 -0.9,-7.4 -2.8,-9.7c-1.9,-2.3 -4.5,-3.4 -7.9,-3.4c-3.1,0 -5.5,0.9 -7.3,2.6c-1.8,1.8 -2.7,4.2 -2.7,7.3c0,2.8 0.7,5.1 2.1,6.7c1.4,1.6 3.3,2.4 5.7,2.4c1,0 1.9,-0.1 2.6,-0.3c0.7,-0.2 1.3,-0.5 1.8,-0.9c0.5,-0.4 1,-1.1 1.5,-2l0.2,0c0,2.4 -0.8,4.2 -2.3,5.3zm0.8,-8.7c-0.6,0.6 -1.3,0.9 -2.2,0.9c-0.9,0 -1.6,-0.3 -2.1,-0.9c-0.4,-0.6 -0.7,-1.5 -0.7,-2.5c0,-1.3 0.3,-2.3 0.8,-2.9c0.5,-0.6 1.2,-0.9 2,-0.9c0.9,0 1.6,0.4 2.2,1.2c0.6,0.8 0.8,1.8 0.8,2.9c0.1,0.8 -0.2,1.6 -0.8,2.2z" id="svg_113" stroke="null"/>
      <path class="st4" d="m271.4,346.099997l7.7,0l0,-28l-6.8,0l-9.6,7.8l3.9,4.8l3.2,-2.6c0.7,-0.6 1.3,-1.2 1.8,-1.8c-0.1,1.5 -0.1,3.1 -0.1,4.9l0,14.9l-0.1,0z" id="svg_114" stroke="null"/>
      <path class="st4" d="m295.5,346.499997c3.4,0 6,-1.2 7.6,-3.5c1.7,-2.3 2.5,-5.9 2.5,-10.9c0,-4.8 -0.9,-8.4 -2.6,-10.8c-1.7,-2.4 -4.2,-3.6 -7.6,-3.6c-3.4,0 -6,1.2 -7.6,3.5c-1.7,2.3 -2.5,6 -2.5,11c0,4.8 0.9,8.3 2.5,10.7c1.8,2.4 4.4,3.6 7.7,3.6zm-2,-20.9c0.4,-1.2 1.1,-1.8 2,-1.8c0.9,0 1.6,0.6 2,1.9c0.4,1.2 0.6,3.4 0.6,6.5c0,3.1 -0.2,5.2 -0.6,6.5c-0.4,1.2 -1.1,1.8 -2,1.8c-0.9,0 -1.6,-0.6 -2,-1.8c-0.4,-1.2 -0.6,-3.4 -0.6,-6.5c0,-3.2 0.2,-5.4 0.6,-6.6z" id="svg_115" stroke="null"/>
      <path class="st4" d="m273.2,253.999997l7.7,0l0,-28l-6.9,0l-9.6,7.8l3.9,4.8l3.2,-2.6c0.7,-0.6 1.3,-1.2 1.8,-1.8c-0.1,1.5 -0.1,3.1 -0.1,4.9l0,14.9z" id="svg_116" stroke="null"/>
      <path class="st4" d="m296.2,253.999997l7.7,0l0,-28l-6.9,0l-9.6,7.8l3.9,4.8l3.2,-2.6c0.7,-0.6 1.3,-1.2 1.8,-1.8c-0.1,1.5 -0.1,3.1 -0.1,4.9l0,14.9z" id="svg_117" stroke="null"/>
      <path class="st4" d="m301,149.999997c1,-1 1.7,-1.9 2.3,-2.8c0.6,-0.9 1,-1.8 1.3,-2.8c0.3,-0.9 0.4,-1.9 0.4,-3c0,-1.5 -0.4,-2.8 -1.2,-4c-0.8,-1.2 -1.9,-2.1 -3.3,-2.7c-1.4,-0.6 -3,-1 -4.8,-1c-1.4,0 -2.7,0.1 -3.9,0.4c-1.1,0.3 -2.2,0.7 -3.2,1.3c-1,0.6 -2.2,1.5 -3.6,2.8l4.2,4.9c1.1,-1 2.1,-1.7 3,-2.2c0.9,-0.5 1.8,-0.8 2.7,-0.8c0.9,0 1.5,0.2 2,0.6c0.5,0.4 0.7,1 0.7,1.7c0,0.6 -0.1,1.1 -0.4,1.7c-0.2,0.5 -0.7,1.2 -1.3,1.9c-0.6,0.7 -1.9,2.1 -3.8,4.2l-6.8,6.9l0,5l20.3,0l0,-6.2l-10.6,0l0,-0.2c3.1,-2.8 5.1,-4.7 6,-5.7z" id="svg_118" stroke="null"/>
      <path class="st4" d="m271.5,162.099997l7.7,0l0,-28l-6.8,0l-9.6,7.8l3.9,4.8l3.2,-2.6c0.7,-0.6 1.3,-1.2 1.8,-1.8c-0.1,1.5 -0.1,3.1 -0.1,4.9l0,14.9l-0.1,0z" id="svg_119" stroke="null"/>
      <path class="st4" d="m352.1,346.099997l7.7,0l0,-28l-6.8,0l-9.6,7.8l3.9,4.8l3.2,-2.6c0.7,-0.6 1.3,-1.2 1.8,-1.8c-0.1,1.5 -0.1,3.1 -0.1,4.9l0,14.9l-0.1,0z" id="svg_120" stroke="null"/>
      <path class="st4" d="m377,339.899997c-0.8,0.5 -2,0.7 -3.6,0.7c-1.1,0 -2.2,-0.2 -3.5,-0.5c-1.3,-0.3 -2.5,-0.8 -3.7,-1.4l0,6.3c1.5,0.6 2.9,1 4.2,1.2c1.3,0.2 2.7,0.3 4.2,0.3c3.7,0 6.5,-0.7 8.6,-2.2c2.1,-1.5 3.1,-3.5 3.1,-6.1c0,-3.8 -2.3,-6 -7,-6.6l0,-0.1c2,-0.6 3.5,-1.5 4.6,-2.7c1.1,-1.2 1.6,-2.7 1.6,-4.5c0,-2 -0.8,-3.6 -2.5,-4.7c-1.6,-1.2 -3.9,-1.7 -6.8,-1.7c-2,0 -3.8,0.2 -5.3,0.6c-1.5,0.4 -3.1,1.2 -4.5,2.2l3.1,5c1.9,-1.2 3.8,-1.8 5.5,-1.8c1,0 1.7,0.2 2.3,0.5c0.6,0.4 0.9,0.9 0.9,1.6c0,2 -1.9,3 -5.8,3l-1.8,0l0,5.7l1.7,0c1.4,0 2.6,0.1 3.4,0.3c0.9,0.2 1.5,0.5 1.9,0.9c0.4,0.4 0.6,1 0.6,1.8c-0.1,1 -0.5,1.7 -1.2,2.2z" id="svg_121" stroke="null"/>
      <path class="st4" d="m351.6,253.999997l7.7,0l0,-28l-6.8,0l-9.6,7.8l3.9,4.8l3.2,-2.6c0.7,-0.6 1.3,-1.2 1.8,-1.8c-0.1,1.5 -0.1,3.1 -0.1,4.9l0,14.9l-0.1,0z" id="svg_122" stroke="null"/>
      <path class="st4" d="m376.6,226.099997l-11.6,17l0,5.5l11.2,0l0,5.4l7.5,0l0,-5.4l3.1,0l0,-5.6l-3.1,0l0,-16.9l-7.1,0zm-0.5,11.1c0,1 -0.1,1.9 -0.1,2.5l0,3.3l-4.6,0l3.1,-4.6c0.5,-0.9 1,-1.8 1.5,-2.8l0.2,0c0,0.1 0,0.6 -0.1,1.6z" id="svg_123" stroke="null"/>
      <path class="st4" d="m352.2,161.699997l7.7,0l0,-28l-6.8,0l-9.6,7.8l3.9,4.8l3.2,-2.6c0.7,-0.6 1.3,-1.2 1.8,-1.8c-0.1,1.5 -0.1,3.1 -0.1,4.9l0,14.9l-0.1,0z" id="svg_124" stroke="null"/>
      <path class="st4" d="m374,156.199997c-1,0 -2.2,-0.2 -3.6,-0.5c-1.4,-0.3 -2.7,-0.8 -3.8,-1.3l0,6.2c2.1,1 4.7,1.5 8,1.5c3.8,0 6.7,-0.8 8.5,-2.5c1.9,-1.7 2.8,-4.1 2.8,-7.2c0,-1.8 -0.4,-3.4 -1.1,-4.7c-0.7,-1.4 -1.7,-2.4 -3,-3.2c-1.3,-0.8 -2.7,-1.1 -4.4,-1.1c-0.4,0 -0.7,0 -1.2,0c-0.4,0 -1.1,0.1 -2.1,0.3l0.3,-3.7l9.5,0l0,-6.3l-16,0l-1.1,14.8l2.8,1.4c1.4,-0.4 2.7,-0.7 3.8,-0.7c1.6,0 2.7,0.3 3.5,0.9c0.8,0.6 1.1,1.4 1.1,2.5c0,1.2 -0.4,2 -1.1,2.6c-0.4,0.7 -1.5,1 -2.9,1z" id="svg_125" stroke="null"/>
      <path class="st4" d="m432.6,346.099997l7.7,0l0,-28l-6.8,0l-9.6,7.8l3.9,4.8l3.2,-2.6c0.7,-0.6 1.3,-1.2 1.8,-1.8c-0.1,1.5 -0.1,3.1 -0.1,4.9l0,14.9l-0.1,0z" id="svg_126" stroke="null"/>
      <path class="st4" d="m461,323.599997c1.5,0 2.9,0.1 4.2,0.4l0,-5.9c-1.5,-0.2 -2.9,-0.3 -4,-0.3c-3.2,0 -5.9,0.6 -8,1.7c-2.2,1.1 -3.8,2.9 -4.9,5.4c-1.1,2.4 -1.7,5.6 -1.7,9.5c0,3.8 0.9,6.9 2.8,9c1.9,2.1 4.4,3.2 7.8,3.2c3.1,0 5.5,-0.9 7.3,-2.7c1.7,-1.8 2.6,-4.2 2.6,-7.3c0,-2.9 -0.7,-5.1 -2.1,-6.7c-1.4,-1.6 -3.3,-2.4 -5.8,-2.4c-2.5,0 -4.4,1.1 -5.5,3.3l-0.2,0c0.1,-2.5 0.8,-4.3 2,-5.4c1.1,-1.2 3,-1.8 5.5,-1.8zm-6.1,10.6c0.5,-0.6 1.2,-0.9 2.1,-0.9c1.8,0 2.6,1.1 2.6,3.4c0,1.3 -0.3,2.3 -0.8,2.9c-0.5,0.6 -1.2,0.9 -2,0.9c-0.9,0 -1.5,-0.4 -2.1,-1.2c-0.5,-0.8 -0.8,-1.8 -0.8,-3c0.1,-0.8 0.4,-1.5 1,-2.1z" id="svg_127" stroke="null"/>
      <path class="st4" d="m432.6,253.999997l7.7,0l0,-28l-6.8,0l-9.6,7.8l3.9,4.8l3.2,-2.6c0.7,-0.6 1.3,-1.2 1.8,-1.8c-0.1,1.5 -0.1,3.1 -0.1,4.9l0,14.9l-0.1,0z" id="svg_128" stroke="null"/>
      <polygon class="st4" points="457.0999755859375,254 466.9000244140625,230.5999755859375 466.9000244140625,226.10000610351562 446.70001220703125,226.10000610351562 446.70001220703125,232.4000244140625 458.79998779296875,232.4000244140625 449.20001220703125,254 " id="svg_129" stroke="null"/>
      <path class="st4" d="m432.6,161.899997l7.7,0l0,-28l-6.8,0l-9.6,7.8l3.9,4.8l3.2,-2.6c0.7,-0.6 1.3,-1.2 1.8,-1.8c-0.1,1.5 -0.1,3.1 -0.1,4.9l0,14.9l-0.1,0z" id="svg_130" stroke="null"/>
      <path class="st4" d="m447.7,150.399997c-0.8,1.1 -1.2,2.5 -1.2,4.1c0,2.5 0.9,4.4 2.6,5.8c1.7,1.3 4.3,2 7.6,2c3.2,0 5.7,-0.7 7.5,-2.1c1.8,-1.4 2.7,-3.3 2.7,-5.8c0,-1.4 -0.4,-2.6 -1.3,-3.8c-0.9,-1.2 -2.3,-2.3 -4.4,-3.5c1.7,-0.8 2.9,-1.8 3.7,-2.9c0.8,-1.1 1.2,-2.4 1.2,-3.9c0,-2.2 -0.8,-3.9 -2.5,-5.1c-1.6,-1.2 -3.9,-1.8 -6.9,-1.8c-2.9,0 -5.3,0.6 -6.9,1.8c-1.7,1.2 -2.5,2.9 -2.5,5c0,1.4 0.3,2.6 1,3.8c0.7,1.1 1.8,2.2 3.2,3.2c-1.7,1.1 -3.1,2.1 -3.8,3.2zm7.4,-10.8c0.4,-0.4 1,-0.6 1.6,-0.6c0.6,0 1.2,0.2 1.6,0.6c0.4,0.4 0.7,0.9 0.7,1.5c0,0.5 -0.2,1 -0.5,1.5c-0.3,0.4 -0.9,0.9 -1.9,1.4c-1.5,-0.8 -2.2,-1.8 -2.2,-2.9c0,-0.7 0.2,-1.2 0.7,-1.5zm-0.9,12.7c0.5,-0.6 1.3,-1.2 2.4,-1.8c1.3,0.8 2.1,1.4 2.6,2c0.5,0.6 0.7,1.2 0.7,1.8c0,1.6 -1.1,2.5 -3.4,2.5c-1,0 -1.8,-0.2 -2.3,-0.7c-0.6,-0.5 -0.8,-1.1 -0.8,-1.9c0,-0.6 0.3,-1.2 0.8,-1.9z" id="svg_131" stroke="null"/>
      <path class="st4" d="m513.2,346.099997l7.7,0l0,-28l-6.8,0l-9.6,7.8l3.9,4.8l3.2,-2.6c0.7,-0.6 1.3,-1.2 1.8,-1.8c-0.1,1.5 -0.1,3.1 -0.1,4.9l0,14.9l-0.1,0z" id="svg_132" stroke="null"/>
      <path class="st4" d="m538.3,338.899997c-1.5,1.1 -3.6,1.7 -6.3,1.7c-1.1,0 -2.2,-0.1 -3.3,-0.3l0,6c0.9,0.1 2.2,0.2 3.9,0.2c5.2,0 9,-1.2 11.3,-3.7c2.4,-2.4 3.5,-6.4 3.5,-11.9c0,-4.2 -0.9,-7.4 -2.8,-9.7c-1.9,-2.3 -4.5,-3.4 -7.9,-3.4c-3.1,0 -5.5,0.9 -7.3,2.6c-1.8,1.8 -2.7,4.2 -2.7,7.3c0,2.8 0.7,5.1 2.1,6.7c1.4,1.6 3.3,2.4 5.7,2.4c1,0 1.9,-0.1 2.6,-0.3c0.7,-0.2 1.3,-0.5 1.8,-0.9c0.5,-0.4 1,-1.1 1.5,-2l0.2,0c0,2.4 -0.8,4.2 -2.3,5.3zm0.8,-8.7c-0.6,0.6 -1.3,0.9 -2.2,0.9c-0.9,0 -1.6,-0.3 -2.1,-0.9c-0.4,-0.6 -0.7,-1.5 -0.7,-2.5c0,-1.3 0.3,-2.3 0.8,-2.9c0.5,-0.6 1.2,-0.9 2,-0.9c0.9,0 1.6,0.4 2.2,1.2c0.6,0.8 0.9,1.8 0.9,2.9c0,0.9 -0.3,1.6 -0.9,2.2z" id="svg_133" stroke="null"/>
      <path class="st4" d="m537.8,254.399997c3.4,0 6,-1.2 7.6,-3.5c1.7,-2.3 2.5,-5.9 2.5,-10.9c0,-4.8 -0.9,-8.4 -2.6,-10.8c-1.7,-2.4 -4.2,-3.6 -7.6,-3.6c-3.4,0 -6,1.2 -7.6,3.5c-1.7,2.3 -2.5,6 -2.5,11c0,4.8 0.8,8.3 2.6,10.7c1.7,2.4 4.2,3.6 7.6,3.6zm-2,-20.9c0.4,-1.2 1.1,-1.8 2,-1.8c0.9,0 1.6,0.6 2,1.9c0.4,1.2 0.6,3.4 0.6,6.5c0,3.1 -0.2,5.2 -0.6,6.5c-0.4,1.2 -1,1.8 -2,1.8c-0.9,0 -1.6,-0.6 -2,-1.8c-0.4,-1.2 -0.6,-3.4 -0.6,-6.5c0,-3.2 0.2,-5.4 0.6,-6.6z" id="svg_134" stroke="null"/>
      <path class="st4" d="m520.3,241.899997c1,-1 1.7,-1.9 2.3,-2.8c0.6,-0.9 1,-1.8 1.3,-2.8c0.3,-0.9 0.4,-1.9 0.4,-3c0,-1.5 -0.4,-2.8 -1.2,-4c-0.8,-1.2 -1.9,-2.1 -3.3,-2.7c-1.4,-0.6 -3,-1 -4.8,-1c-1.4,0 -2.7,0.1 -3.9,0.4c-1.2,0.3 -2.2,0.7 -3.2,1.3c-1,0.6 -2.2,1.5 -3.6,2.8l4.2,4.9c1.1,-1 2.1,-1.7 3.1,-2.2c0.9,-0.5 1.8,-0.8 2.7,-0.8c0.9,0 1.5,0.2 2,0.6c0.5,0.4 0.7,1 0.7,1.7c0,0.6 -0.1,1.2 -0.4,1.7c-0.2,0.5 -0.7,1.2 -1.3,1.9c-0.6,0.7 -1.9,2.1 -3.8,4.2l-6.8,6.9l0,5l20.3,0l0,-6.2l-10.6,0l0,-0.2c2.9,-2.8 4.9,-4.7 5.9,-5.7z" id="svg_135" stroke="null"/>
      <path class="st4" d="m522,149.999997c1,-1 1.7,-1.9 2.3,-2.8c0.6,-0.9 1,-1.8 1.3,-2.8c0.3,-0.9 0.4,-1.9 0.4,-3c0,-1.5 -0.4,-2.8 -1.2,-4c-0.8,-1.2 -1.9,-2.1 -3.3,-2.7c-1.4,-0.6 -3,-1 -4.9,-1c-1.4,0 -2.7,0.1 -3.9,0.4c-1.1,0.3 -2.2,0.7 -3.2,1.3c-1,0.6 -2.2,1.5 -3.6,2.8l4.2,4.9c1.1,-1 2.2,-1.7 3.1,-2.2c0.9,-0.5 1.8,-0.8 2.7,-0.8c0.9,0 1.5,0.2 2,0.6c0.5,0.4 0.7,1 0.7,1.7c0,0.6 -0.1,1.1 -0.4,1.7c-0.2,0.5 -0.7,1.2 -1.3,1.9c-0.6,0.7 -1.9,2.1 -3.8,4.2l-6.8,6.9l0,5l20.3,0l0,-6.2l-10.6,0l0,-0.2c3.1,-2.8 5.1,-4.7 6,-5.7z" id="svg_136" stroke="null"/>
      <path class="st4" d="m538.4,162.099997l7.7,0l0,-28l-6.8,0l-9.6,7.8l3.9,4.8l3.2,-2.6c0.7,-0.6 1.3,-1.2 1.8,-1.8c-0.1,1.5 -0.1,3.1 -0.1,4.9l0,14.9l-0.1,0z" id="svg_137" stroke="null"/>
      <path class="st4" d="m600.9,334.199997c1,-1 1.7,-1.9 2.3,-2.8c0.6,-0.9 1,-1.8 1.3,-2.8c0.3,-0.9 0.4,-1.9 0.4,-3c0,-1.5 -0.4,-2.8 -1.2,-4c-0.8,-1.2 -1.9,-2.1 -3.3,-2.7c-1.4,-0.6 -3,-1 -4.9,-1c-1.4,0 -2.7,0.1 -3.9,0.4c-1.2,0.3 -2.2,0.7 -3.2,1.3c-1,0.6 -2.2,1.5 -3.6,2.8l4.2,4.9c1.1,-1 2.1,-1.7 3.1,-2.2c0.9,-0.5 1.8,-0.8 2.7,-0.8c0.9,0 1.5,0.2 2,0.6c0.5,0.4 0.7,1 0.7,1.7c0,0.6 -0.1,1.1 -0.4,1.7c-0.2,0.5 -0.7,1.2 -1.3,1.9c-0.6,0.7 -1.9,2.1 -3.8,4.2l-6.8,6.9l0,5l20.3,0l0,-6.2l-10.6,0l0,-0.2c3.1,-2.8 5.1,-4.7 6,-5.7z" id="svg_138" stroke="null"/>
      <path class="st4" d="m623.9,334.199997c1,-1 1.7,-1.9 2.3,-2.8c0.6,-0.9 1,-1.8 1.3,-2.8c0.3,-0.9 0.4,-1.9 0.4,-3c0,-1.5 -0.4,-2.8 -1.2,-4c-0.8,-1.2 -1.9,-2.1 -3.3,-2.7c-1.4,-0.6 -3,-1 -4.9,-1c-1.4,0 -2.7,0.1 -3.9,0.4c-1.2,0.3 -2.2,0.7 -3.2,1.3c-1,0.6 -2.2,1.5 -3.6,2.8l4.2,4.9c1.1,-1 2.1,-1.7 3.1,-2.2c0.9,-0.5 1.8,-0.8 2.7,-0.8c0.9,0 1.5,0.2 2,0.6c0.5,0.4 0.7,1 0.7,1.7c0,0.6 -0.1,1.1 -0.4,1.7c-0.2,0.5 -0.7,1.2 -1.3,1.9c-0.6,0.7 -1.9,2.1 -3.8,4.2l-6.8,6.9l0,5l20.3,0l0,-6.2l-10.6,0l0,-0.2c3,-2.8 5.1,-4.7 6,-5.7z" id="svg_139" stroke="null"/>
      <path class="st4" d="m601,241.899997c1,-1 1.7,-1.9 2.3,-2.8c0.6,-0.9 1,-1.8 1.3,-2.8c0.3,-0.9 0.4,-1.9 0.4,-3c0,-1.5 -0.4,-2.8 -1.2,-4c-0.8,-1.2 -1.9,-2.1 -3.3,-2.7c-1.4,-0.6 -3,-1 -4.8,-1c-1.4,0 -2.7,0.1 -3.9,0.4c-1.1,0.3 -2.2,0.7 -3.2,1.3c-1,0.6 -2.2,1.5 -3.6,2.8l4.2,4.9c1.1,-1 2.2,-1.7 3.1,-2.2c0.9,-0.5 1.8,-0.8 2.7,-0.8c0.9,0 1.5,0.2 2,0.6c0.5,0.4 0.7,1 0.7,1.7c0,0.6 -0.1,1.2 -0.3,1.7c-0.2,0.5 -0.7,1.2 -1.3,1.9c-0.6,0.7 -1.9,2.1 -3.8,4.2l-6.8,6.9l0,5l20.3,0l0,-6.2l-10.6,0l0,-0.2c2.8,-2.8 4.9,-4.7 5.8,-5.7z" id="svg_140" stroke="null"/>
      <path class="st4" d="m619.2,247.799997c-0.8,0.5 -2,0.7 -3.6,0.7c-1.1,0 -2.2,-0.2 -3.5,-0.5c-1.3,-0.3 -2.5,-0.8 -3.7,-1.4l0,6.3c1.5,0.6 2.9,1 4.2,1.2c1.3,0.2 2.7,0.3 4.2,0.3c3.7,0 6.5,-0.7 8.6,-2.2c2.1,-1.5 3.1,-3.5 3.1,-6.1c0,-3.8 -2.3,-6 -7,-6.6l0,-0.1c2,-0.6 3.5,-1.5 4.6,-2.7c1.1,-1.2 1.6,-2.7 1.6,-4.5c0,-2 -0.8,-3.6 -2.5,-4.7c-1.6,-1.2 -3.9,-1.7 -6.8,-1.7c-2,0 -3.8,0.2 -5.3,0.6c-1.5,0.4 -3.1,1.2 -4.5,2.2l3.1,5c1.9,-1.2 3.8,-1.8 5.5,-1.8c1,0 1.7,0.2 2.3,0.5c0.6,0.4 0.9,0.9 0.9,1.6c0,2 -1.9,3 -5.8,3l-1.8,0l0,5.7l1.7,0c1.4,0 2.6,0.1 3.4,0.3c0.9,0.2 1.5,0.5 1.9,0.9c0.4,0.4 0.6,1 0.6,1.8c0,1 -0.4,1.7 -1.2,2.2z" id="svg_141" stroke="null"/>
      <path class="st4" d="m600.5,149.999997c1,-1 1.7,-1.9 2.3,-2.8c0.6,-0.9 1,-1.8 1.3,-2.8c0.3,-0.9 0.4,-1.9 0.4,-3c0,-1.5 -0.4,-2.8 -1.2,-4c-0.8,-1.2 -1.9,-2.1 -3.3,-2.7c-1.4,-0.6 -3,-1 -4.8,-1c-1.4,0 -2.7,0.1 -3.9,0.4c-1.2,0.3 -2.2,0.7 -3.2,1.3c-1,0.6 -2.2,1.5 -3.6,2.8l4.2,4.9c1.1,-1 2.1,-1.7 3.1,-2.2c0.9,-0.5 1.8,-0.8 2.7,-0.8c0.9,0 1.5,0.2 2,0.6c0.5,0.4 0.7,1 0.7,1.7c0,0.6 -0.1,1.1 -0.4,1.7c-0.2,0.5 -0.7,1.2 -1.3,1.9c-0.6,0.7 -1.9,2.1 -3.8,4.2l-6.8,6.9l0,5l20.1,0l0,-6.2l-10.6,0l0,-0.2c3.1,-2.8 5.1,-4.7 6.1,-5.7z" id="svg_142" stroke="null"/>
      <path class="st4" d="m618.8,134.099997l-11.6,17l0,5.5l11.2,0l0,5.4l7.5,0l0,-5.4l3.1,0l0,-5.6l-3.1,0l0,-16.9l-7.1,0zm-0.4,11.2c0,1 -0.1,1.9 -0.1,2.5l0,3.3l-4.6,0l3.1,-4.6c0.5,-0.9 1,-1.8 1.5,-2.8l0.2,0c0,0.1 -0.1,0.6 -0.1,1.6z" id="svg_143" stroke="null"/>
      <path class="st4" d="m681.7,334.099997c1,-1 1.7,-1.9 2.3,-2.8c0.6,-0.9 1,-1.8 1.3,-2.8c0.3,-0.9 0.4,-1.9 0.4,-3c0,-1.5 -0.4,-2.8 -1.2,-4c-0.8,-1.2 -1.9,-2.1 -3.3,-2.7c-1.4,-0.6 -3,-1 -4.8,-1c-1.4,0 -2.7,0.1 -3.9,0.4c-1.2,0.3 -2.2,0.7 -3.2,1.3c-1,0.6 -2.2,1.5 -3.6,2.8l4.2,4.9c1.1,-1 2.1,-1.7 3.1,-2.2c0.9,-0.5 1.8,-0.8 2.7,-0.8c0.9,0 1.5,0.2 2,0.6c0.5,0.4 0.7,1 0.7,1.7c0,0.6 -0.1,1.1 -0.4,1.7c-0.2,0.5 -0.7,1.2 -1.3,1.9c-0.6,0.7 -1.9,2.1 -3.8,4.2l-6.8,6.9l0,5l20.3,0l0,-6.2l-10.6,0l0,-0.2c2.9,-2.9 5,-4.7 5.9,-5.7z" id="svg_144" stroke="null"/>
      <path class="st4" d="m696.9,340.599997c-1,0 -2.2,-0.2 -3.6,-0.5c-1.4,-0.3 -2.7,-0.8 -3.8,-1.3l0,6.2c2.1,1 4.7,1.5 8,1.5c3.8,0 6.7,-0.8 8.5,-2.5c1.9,-1.7 2.8,-4.1 2.8,-7.2c0,-1.8 -0.4,-3.4 -1.1,-4.7c-0.7,-1.4 -1.7,-2.4 -3,-3.2c-1.3,-0.8 -2.7,-1.1 -4.4,-1.1c-0.4,0 -0.7,0 -1.2,0c-0.4,0 -1.1,0.1 -2.1,0.3l0.3,-3.7l9.5,0l0,-6.2l-16,0l-1,14.8l2.8,1.4c1.4,-0.4 2.7,-0.7 3.8,-0.7c1.6,0 2.7,0.3 3.5,0.9c0.8,0.6 1.2,1.4 1.2,2.5c0,1.2 -0.4,2 -1.1,2.6c-0.6,0.6 -1.7,0.9 -3.1,0.9z" id="svg_145" stroke="null"/>
      <path class="st4" d="m681.4,241.899997c1,-1 1.7,-1.9 2.3,-2.8c0.6,-0.9 1,-1.8 1.3,-2.8c0.3,-0.9 0.4,-1.9 0.4,-3c0,-1.5 -0.4,-2.8 -1.2,-4c-0.8,-1.2 -1.9,-2.1 -3.3,-2.7c-1.4,-0.6 -3,-1 -4.9,-1c-1.4,0 -2.7,0.1 -3.9,0.4c-1.1,0.3 -2.2,0.7 -3.2,1.3c-1,0.6 -2.2,1.5 -3.6,2.8l4.2,4.9c1.1,-1 2.1,-1.7 3,-2.2c0.9,-0.5 1.8,-0.8 2.7,-0.8c0.9,0 1.5,0.2 2,0.6c0.5,0.4 0.7,1 0.7,1.7c0,0.6 -0.1,1.2 -0.4,1.7c-0.2,0.5 -0.7,1.2 -1.3,1.9c-0.6,0.7 -1.9,2.1 -3.8,4.2l-6.8,6.9l0,5l20.3,0l0,-6.2l-10.6,0l0,-0.2c3.2,-2.8 5.2,-4.7 6.1,-5.7z" id="svg_146" stroke="null"/>
      <path class="st4" d="m703.3,231.499997c1.5,0 2.9,0.1 4.2,0.4l0,-5.9c-1.5,-0.2 -2.9,-0.3 -4,-0.3c-3.2,0 -5.9,0.6 -8,1.7c-2.2,1.1 -3.8,2.9 -4.9,5.4c-1.1,2.4 -1.7,5.6 -1.7,9.5c0,3.8 0.9,6.9 2.8,9c1.9,2.1 4.4,3.2 7.8,3.2c3.1,0 5.5,-0.9 7.3,-2.7c1.7,-1.8 2.6,-4.2 2.6,-7.3c0,-2.9 -0.7,-5.1 -2.1,-6.7c-1.4,-1.6 -3.3,-2.4 -5.8,-2.4c-2.5,0 -4.4,1.1 -5.5,3.3l-0.2,0c0.1,-2.5 0.8,-4.3 2,-5.4c1,-1.2 2.9,-1.8 5.5,-1.8zm-6.2,10.6c0.5,-0.6 1.2,-0.9 2.1,-0.9c1.8,0 2.6,1.1 2.6,3.4c0,1.3 -0.3,2.3 -0.8,2.9c-0.5,0.6 -1.2,0.9 -2,0.9c-0.9,0 -1.5,-0.4 -2.1,-1.2c-0.5,-0.8 -0.8,-1.8 -0.8,-3c0.2,-0.8 0.5,-1.5 1,-2.1z" id="svg_147" stroke="null"/>
      <path class="st4" d="m681.5,149.999997c1,-1 1.7,-1.9 2.3,-2.8c0.6,-0.9 1,-1.8 1.3,-2.8c0.3,-0.9 0.4,-1.9 0.4,-3c0,-1.5 -0.4,-2.8 -1.2,-4c-0.8,-1.2 -1.9,-2.1 -3.3,-2.7c-1.4,-0.6 -3,-1 -4.8,-1c-1.4,0 -2.7,0.1 -3.9,0.4c-1.1,0.3 -2.2,0.7 -3.2,1.3c-1,0.6 -2.2,1.5 -3.6,2.8l4.2,4.9c1.1,-1 2.2,-1.7 3.1,-2.2c0.9,-0.5 1.8,-0.8 2.7,-0.8c0.9,0 1.5,0.2 2,0.6c0.5,0.4 0.7,1 0.7,1.7c0,0.6 -0.1,1.1 -0.4,1.7c-0.2,0.5 -0.7,1.2 -1.3,1.9c-0.6,0.7 -1.9,2.1 -3.8,4.2l-6.8,6.9l0,5l20.1,0l0,-6.2l-10.6,0l0,-0.2c3.1,-2.8 5.1,-4.7 6.1,-5.7z" id="svg_148" stroke="null"/>
      <polygon class="st4" points="699.2999877929688,162.10000610351562 709.2000122070312,138.70001220703125 709.2000122070312,134.20001220703125 689,134.20001220703125 689,140.49996948242188 701.0999755859375,140.49996948242188 691.5,162.10000610351562 " id="svg_149" stroke="null"/>
      <path class="st4" d="m762.1,334.099997c1,-1 1.7,-1.9 2.3,-2.8c0.6,-0.9 1,-1.8 1.3,-2.8c0.3,-0.9 0.4,-1.9 0.4,-3c0,-1.5 -0.4,-2.8 -1.2,-4c-0.8,-1.2 -1.9,-2.1 -3.3,-2.7c-1.4,-0.6 -3,-1 -4.8,-1c-1.4,0 -2.7,0.1 -3.9,0.4c-1.2,0.3 -2.2,0.7 -3.2,1.3c-1,0.6 -2.2,1.5 -3.6,2.8l4.2,4.9c1.1,-1 2.1,-1.7 3.1,-2.2c0.9,-0.5 1.8,-0.8 2.7,-0.8c0.9,0 1.5,0.2 2,0.6c0.5,0.4 0.7,1 0.7,1.7c0,0.6 -0.1,1.1 -0.4,1.7c-0.2,0.5 -0.7,1.2 -1.3,1.9c-0.6,0.7 -1.9,2.1 -3.8,4.2l-6.8,6.9l0,5l20.3,0l0,-6.2l-10.8,0l0,-0.2c3.1,-2.9 5.1,-4.7 6.1,-5.7z" id="svg_150" stroke="null"/>
      <path class="st4" d="m770.5,334.599997c-0.8,1.1 -1.2,2.5 -1.2,4.1c0,2.5 0.9,4.4 2.6,5.8c1.7,1.3 4.3,2 7.6,2c3.2,0 5.7,-0.7 7.5,-2.1c1.8,-1.4 2.7,-3.3 2.7,-5.8c0,-1.4 -0.4,-2.6 -1.3,-3.8c-0.8,-1.2 -2.3,-2.3 -4.4,-3.5c1.7,-0.8 2.9,-1.8 3.7,-2.9c0.8,-1.1 1.2,-2.4 1.2,-3.9c0,-2.2 -0.8,-3.9 -2.5,-5.1c-1.6,-1.2 -3.9,-1.8 -6.9,-1.8c-2.9,0 -5.3,0.6 -6.9,1.8c-1.7,1.2 -2.5,2.9 -2.5,5c0,1.4 0.3,2.6 1,3.8c0.7,1.1 1.8,2.2 3.2,3.2c-1.7,1.1 -3,2.1 -3.8,3.2zm7.5,-10.8c0.4,-0.4 1,-0.6 1.6,-0.6c0.6,0 1.2,0.2 1.6,0.6c0.4,0.4 0.7,0.9 0.7,1.5c0,0.5 -0.2,1 -0.5,1.5c-0.3,0.4 -0.9,0.9 -1.9,1.4c-1.5,-0.8 -2.2,-1.8 -2.2,-2.9c0,-0.7 0.2,-1.1 0.7,-1.5zm-1,12.7c0.5,-0.6 1.3,-1.2 2.4,-1.8c1.3,0.8 2.1,1.4 2.6,2c0.5,0.6 0.7,1.2 0.7,1.8c0,1.6 -1.1,2.5 -3.4,2.5c-1,0 -1.8,-0.2 -2.3,-0.7c-0.6,-0.5 -0.8,-1.1 -0.8,-1.9c0.1,-0.6 0.3,-1.2 0.8,-1.9z" id="svg_151" stroke="null"/>
      <path class="st4" d="m762.1,241.899997c1,-1 1.7,-1.9 2.3,-2.8c0.6,-0.9 1,-1.8 1.3,-2.8c0.3,-0.9 0.4,-1.9 0.4,-3c0,-1.5 -0.4,-2.8 -1.2,-4c-0.8,-1.2 -1.9,-2.1 -3.3,-2.7c-1.4,-0.6 -3,-1 -4.9,-1c-1.4,0 -2.7,0.1 -3.9,0.4c-1.1,0.3 -2.2,0.7 -3.2,1.3c-1,0.6 -2.2,1.5 -3.6,2.8l4.2,4.9c1.1,-1 2.1,-1.7 3,-2.2c0.9,-0.5 1.8,-0.8 2.7,-0.8c0.9,0 1.5,0.2 2,0.6c0.5,0.4 0.7,1 0.7,1.7c0,0.6 -0.1,1.2 -0.4,1.7c-0.2,0.5 -0.7,1.2 -1.3,1.9c-0.6,0.7 -1.9,2.1 -3.8,4.2l-6.8,6.9l0,5l20.3,0l0,-6.2l-10.6,0l0,-0.2c3.1,-2.8 5.1,-4.7 6.1,-5.7z" id="svg_152" stroke="null"/>
      <path class="st4" d="m780.5,246.899997c-1.5,1.1 -3.6,1.7 -6.3,1.7c-1.1,0 -2.2,-0.1 -3.3,-0.3l0,6c0.9,0.1 2.2,0.2 3.9,0.2c5.2,0 9,-1.2 11.3,-3.7c2.4,-2.4 3.5,-6.4 3.5,-11.9c0,-4.2 -0.9,-7.4 -2.8,-9.7c-1.9,-2.3 -4.5,-3.4 -7.9,-3.4c-3.1,0 -5.5,0.9 -7.3,2.6c-1.8,1.8 -2.7,4.2 -2.7,7.3c0,2.8 0.7,5.1 2.1,6.7c1.4,1.6 3.3,2.4 5.7,2.4c1,0 1.9,-0.1 2.6,-0.3c0.7,-0.2 1.3,-0.5 1.8,-0.9c0.5,-0.4 1,-1.1 1.5,-2l0.2,0c0,2.4 -0.8,4.2 -2.3,5.3zm0.8,-8.8c-0.6,0.6 -1.3,0.9 -2.2,0.9c-0.9,0 -1.6,-0.3 -2.1,-0.9c-0.4,-0.6 -0.7,-1.5 -0.7,-2.5c0,-1.3 0.3,-2.3 0.8,-2.9c0.5,-0.6 1.2,-0.9 2,-0.9c0.9,0 1.6,0.4 2.2,1.2c0.6,0.8 0.9,1.8 0.9,2.9c0,0.9 -0.3,1.6 -0.9,2.2z" id="svg_153" stroke="null"/>
      <path class="st4" d="m757.1,155.699997c-0.8,0.5 -2,0.7 -3.6,0.7c-1.1,0 -2.2,-0.2 -3.5,-0.5c-1.3,-0.3 -2.5,-0.8 -3.7,-1.4l0,6.3c1.5,0.6 2.9,1 4.2,1.2c1.3,0.2 2.7,0.3 4.2,0.3c3.7,0 6.5,-0.7 8.6,-2.2c2.1,-1.5 3.1,-3.5 3.1,-6.1c0,-3.8 -2.3,-6 -7,-6.6l0,-0.2c2,-0.6 3.5,-1.5 4.6,-2.7c1.1,-1.2 1.6,-2.7 1.6,-4.5c0,-2 -0.8,-3.6 -2.5,-4.7c-1.6,-1.2 -3.9,-1.7 -6.8,-1.7c-2,0 -3.8,0.2 -5.3,0.6c-1.5,0.4 -3.1,1.2 -4.5,2.2l3.1,5c1.9,-1.2 3.8,-1.8 5.5,-1.8c1,0 1.7,0.2 2.3,0.5c0.6,0.4 0.9,0.9 0.9,1.6c0,2 -1.9,3 -5.8,3l-1.8,0l0,5.7l1.7,0c1.4,0 2.6,0.1 3.4,0.3c0.9,0.2 1.5,0.5 1.9,0.9c0.4,0.4 0.6,1 0.6,1.8c0,1.1 -0.4,1.8 -1.2,2.3z" id="svg_154" stroke="null"/>
      <path class="st4" d="m779.4,162.299997c3.4,0 6,-1.2 7.6,-3.5c1.7,-2.3 2.5,-5.9 2.5,-10.9c0,-4.8 -0.9,-8.4 -2.6,-10.8c-1.7,-2.4 -4.2,-3.6 -7.6,-3.6c-3.4,0 -6,1.2 -7.6,3.5c-1.7,2.3 -2.5,6 -2.5,10.9c0,4.8 0.8,8.3 2.5,10.7c1.8,2.5 4.3,3.7 7.7,3.7zm-2,-20.9c0.4,-1.2 1.1,-1.8 2,-1.8c0.9,0 1.6,0.6 2,1.9c0.4,1.2 0.6,3.4 0.6,6.5c0,3.1 -0.2,5.2 -0.6,6.5c-0.4,1.2 -1,1.8 -2,1.8c-0.9,0 -1.6,-0.6 -2,-1.8c-0.4,-1.2 -0.6,-3.4 -0.6,-6.5c0,-3.2 0.2,-5.4 0.6,-6.6z" id="svg_155" stroke="null"/>
      <path class="st4" d="m860.7,346.099997l7.7,0l0,-28l-6.8,0l-9.6,7.8l3.9,4.8l3.2,-2.6c0.7,-0.6 1.3,-1.2 1.8,-1.8c-0.1,1.5 -0.1,3.1 -0.1,4.9l0,14.9l-0.1,0z" id="svg_156" stroke="null"/>
      <path class="st4" d="m839.6,339.899997c-0.8,0.5 -2,0.7 -3.6,0.7c-1.1,0 -2.3,-0.2 -3.5,-0.5c-1.3,-0.3 -2.5,-0.8 -3.7,-1.4l0,6.3c1.5,0.6 2.9,1 4.2,1.2c1.3,0.2 2.7,0.3 4.2,0.3c3.7,0 6.5,-0.7 8.6,-2.2c2.1,-1.5 3.1,-3.5 3.1,-6.1c0,-3.8 -2.3,-6 -7,-6.6l0,-0.1c2,-0.6 3.5,-1.5 4.6,-2.7c1.1,-1.2 1.6,-2.7 1.6,-4.5c0,-2 -0.8,-3.6 -2.5,-4.7c-1.6,-1.2 -3.9,-1.7 -6.8,-1.7c-2,0 -3.8,0.2 -5.3,0.6c-1.5,0.4 -3.1,1.2 -4.5,2.2l3.1,5c1.9,-1.2 3.8,-1.8 5.5,-1.8c1,0 1.7,0.2 2.3,0.5c0.6,0.4 0.8,0.9 0.8,1.6c0,2 -1.9,3 -5.8,3l-1.8,0l0,5.7l1.7,0c1.4,0 2.6,0.1 3.4,0.3c0.9,0.2 1.5,0.5 1.9,0.9c0.4,0.4 0.6,1 0.6,1.8c0,1 -0.4,1.7 -1.1,2.2z" id="svg_157" stroke="null"/>
      <path class="st4" d="m837.8,247.799997c-0.8,0.5 -2,0.7 -3.6,0.7c-1.1,0 -2.3,-0.2 -3.5,-0.5c-1.3,-0.3 -2.5,-0.8 -3.7,-1.4l0,6.3c1.5,0.6 2.9,1 4.2,1.2c1.3,0.2 2.7,0.3 4.2,0.3c3.7,0 6.5,-0.7 8.6,-2.2c2.1,-1.5 3.1,-3.5 3.1,-6.1c0,-3.8 -2.3,-6 -7,-6.6l0,-0.1c2,-0.6 3.5,-1.5 4.6,-2.7c1.1,-1.2 1.6,-2.7 1.6,-4.5c0,-2 -0.8,-3.6 -2.5,-4.7c-1.6,-1.2 -3.9,-1.7 -6.8,-1.7c-2,0 -3.8,0.2 -5.3,0.6c-1.5,0.4 -3.1,1.2 -4.5,2.2l3.1,5c1.9,-1.2 3.8,-1.8 5.5,-1.8c1,0 1.7,0.2 2.3,0.5c0.6,0.4 0.9,0.9 0.9,1.6c0,2 -1.9,3 -5.8,3l-1.8,0l0,5.7l1.7,0c1.4,0 2.6,0.1 3.4,0.3c0.9,0.2 1.5,0.5 1.9,0.9c0.4,0.4 0.6,1 0.6,1.8c0,1 -0.4,1.7 -1.2,2.2z" id="svg_158" stroke="null"/>
      <path class="st4" d="m865.6,241.899997c1,-1 1.7,-1.9 2.3,-2.8c0.6,-0.9 1,-1.8 1.3,-2.8c0.3,-0.9 0.4,-1.9 0.4,-3c0,-1.5 -0.4,-2.8 -1.2,-4c-0.8,-1.2 -1.9,-2.1 -3.3,-2.7c-1.4,-0.6 -3,-1 -4.8,-1c-1.4,0 -2.7,0.1 -3.9,0.4c-1.2,0.3 -2.2,0.7 -3.2,1.3c-1,0.6 -2.2,1.5 -3.6,2.8l4.2,4.9c1.1,-1 2.1,-1.7 3.1,-2.2c0.9,-0.5 1.8,-0.8 2.7,-0.8c0.9,0 1.5,0.2 2,0.6c0.5,0.4 0.7,1 0.7,1.7c0,0.6 -0.1,1.2 -0.4,1.7c-0.2,0.5 -0.7,1.2 -1.3,1.9c-0.6,0.7 -1.9,2.1 -3.8,4.2l-6.8,6.9l0,5l20.3,0l0,-6.2l-10.6,0l0,-0.2c2.9,-2.8 4.9,-4.7 5.9,-5.7z" id="svg_159" stroke="null"/>
      <path class="st4" d="m860.9,155.699997c-0.8,0.5 -2,0.7 -3.6,0.7c-1.1,0 -2.2,-0.2 -3.5,-0.5c-1.3,-0.3 -2.5,-0.8 -3.7,-1.4l0,6.3c1.5,0.6 2.9,1 4.2,1.2c1.3,0.2 2.7,0.3 4.2,0.3c3.7,0 6.5,-0.7 8.6,-2.2c2.1,-1.5 3.1,-3.5 3.1,-6.1c0,-3.8 -2.3,-6 -7,-6.6l0,-0.2c2,-0.6 3.5,-1.5 4.6,-2.7c1.1,-1.2 1.6,-2.7 1.6,-4.5c0,-2 -0.8,-3.6 -2.5,-4.7c-1.6,-1.2 -3.9,-1.7 -6.8,-1.7c-2,0 -3.8,0.2 -5.3,0.6c-1.6,0.4 -3.1,1.2 -4.5,2.2l3.1,5c1.9,-1.2 3.8,-1.8 5.6,-1.8c1,0 1.7,0.2 2.3,0.5c0.6,0.4 0.8,0.9 0.8,1.6c0,2 -1.9,3 -5.8,3l-1.8,0l0,5.7l1.7,0c1.4,0 2.6,0.1 3.4,0.3c0.9,0.2 1.5,0.5 1.9,0.9c0.4,0.4 0.6,1 0.6,1.8c-0.1,1.1 -0.5,1.8 -1.2,2.3z" id="svg_160" stroke="null"/>
      <path class="st4" d="m837.9,155.699997c-0.8,0.5 -2,0.7 -3.6,0.7c-1.1,0 -2.2,-0.2 -3.5,-0.5c-1.3,-0.3 -2.5,-0.8 -3.7,-1.4l0,6.3c1.5,0.6 2.9,1 4.2,1.2c1.3,0.2 2.7,0.3 4.2,0.3c3.7,0 6.5,-0.7 8.6,-2.2c2.1,-1.5 3.1,-3.5 3.1,-6.1c0,-3.8 -2.3,-6 -7,-6.6l0,-0.2c2,-0.6 3.5,-1.5 4.6,-2.7c1.1,-1.2 1.6,-2.7 1.6,-4.5c0,-2 -0.8,-3.6 -2.5,-4.7c-1.6,-1.2 -3.9,-1.7 -6.8,-1.7c-2,0 -3.8,0.2 -5.3,0.6c-1.6,0.4 -3.1,1.2 -4.5,2.2l3.1,5c1.9,-1.2 3.8,-1.8 5.6,-1.8c1,0 1.7,0.2 2.3,0.5c0.6,0.4 0.9,0.9 0.9,1.6c0,2 -1.9,3 -5.8,3l-1.8,0l0,5.7l1.7,0c1.4,0 2.6,0.1 3.4,0.3c0.9,0.2 1.5,0.5 1.9,0.9c0.4,0.4 0.6,1 0.6,1.8c-0.2,1.1 -0.6,1.8 -1.3,2.3z" id="svg_161" stroke="null"/>
      <path class="st4" d="m941.1,318.199997l-11.6,17l0,5.5l11.2,0l0,5.4l7.5,0l0,-5.4l3.1,0l0,-5.6l-3.1,0l0,-16.9l-7.1,0zm-0.4,11.1c0,1 -0.1,1.9 -0.1,2.5l0,3.3l-4.6,0l3.1,-4.6c0.5,-0.9 1,-1.8 1.5,-2.8l0.2,0c-0.1,0.1 -0.1,0.6 -0.1,1.6z" id="svg_162" stroke="null"/>
      <path class="st4" d="m918,339.899997c-0.8,0.5 -2,0.7 -3.6,0.7c-1.1,0 -2.2,-0.2 -3.5,-0.5c-1.3,-0.3 -2.5,-0.8 -3.7,-1.4l0,6.3c1.5,0.6 2.9,1 4.2,1.2c1.3,0.2 2.7,0.3 4.2,0.3c3.7,0 6.5,-0.7 8.6,-2.2c2.1,-1.5 3.1,-3.5 3.1,-6.1c0,-3.8 -2.3,-6 -7,-6.6l0,-0.1c2,-0.6 3.5,-1.5 4.6,-2.7c1.1,-1.2 1.6,-2.7 1.6,-4.5c0,-2 -0.8,-3.6 -2.5,-4.7c-1.6,-1.2 -3.9,-1.7 -6.8,-1.7c-2,0 -3.8,0.2 -5.3,0.6c-1.6,0.4 -3.1,1.2 -4.5,2.2l3.1,5c1.9,-1.2 3.8,-1.8 5.5,-1.8c1,0 1.7,0.2 2.3,0.5c0.6,0.4 0.9,0.9 0.9,1.6c0,2 -1.9,3 -5.8,3l-1.8,0l0,5.7l1.7,0c1.4,0 2.6,0.1 3.4,0.3c0.9,0.2 1.5,0.5 1.9,0.9c0.4,0.4 0.6,1 0.6,1.8c-0.1,1 -0.4,1.7 -1.2,2.2z" id="svg_163" stroke="null"/>
      <path class="st4" d="m918.6,247.799997c-0.8,0.5 -2,0.7 -3.6,0.7c-1.1,0 -2.3,-0.2 -3.5,-0.5c-1.3,-0.3 -2.5,-0.8 -3.7,-1.4l0,6.3c1.5,0.6 2.9,1 4.2,1.2c1.3,0.2 2.7,0.3 4.2,0.3c3.7,0 6.5,-0.7 8.6,-2.2c2.1,-1.5 3.1,-3.5 3.1,-6.1c0,-3.8 -2.3,-6 -7,-6.6l0,-0.1c2,-0.6 3.5,-1.5 4.6,-2.7c1.1,-1.2 1.6,-2.7 1.6,-4.5c0,-2 -0.8,-3.6 -2.5,-4.7c-1.6,-1.2 -3.9,-1.7 -6.8,-1.7c-2,0 -3.8,0.2 -5.3,0.6c-1.5,0.4 -3.1,1.2 -4.5,2.2l3.1,5c1.9,-1.2 3.8,-1.8 5.5,-1.8c1,0 1.7,0.2 2.3,0.5c0.6,0.4 0.9,0.9 0.9,1.6c0,2 -1.9,3 -5.8,3l-1.8,0l0,5.7l1.7,0c1.4,0 2.6,0.1 3.4,0.3c0.9,0.2 1.5,0.5 1.9,0.9c0.4,0.4 0.6,1 0.6,1.8c-0.1,1 -0.4,1.7 -1.2,2.2z" id="svg_164" stroke="null"/>
      <path class="st4" d="m938.5,248.499997c-1,0 -2.2,-0.2 -3.6,-0.5c-1.4,-0.3 -2.7,-0.8 -3.8,-1.3l0,6.2c2.1,1 4.7,1.5 8,1.5c3.8,0 6.7,-0.8 8.5,-2.5c1.9,-1.7 2.8,-4.1 2.8,-7.2c0,-1.8 -0.4,-3.4 -1.1,-4.7c-0.7,-1.4 -1.7,-2.4 -3,-3.2c-1.3,-0.8 -2.7,-1.1 -4.4,-1.1c-0.4,0 -0.7,0 -1.2,0c-0.4,0 -1.1,0.1 -2.1,0.3l0.3,-3.7l9.5,0l0,-6.3l-16,0l-1.1,14.8l2.8,1.4c1.4,-0.4 2.7,-0.7 3.8,-0.7c1.6,0 2.7,0.3 3.5,0.9c0.8,0.6 1.2,1.4 1.2,2.5c0,1.2 -0.4,2 -1.1,2.6c-0.5,0.7 -1.6,1 -3,1z" id="svg_165" stroke="null"/>
      <path class="st4" d="m918.3,155.699997c-0.8,0.5 -2,0.7 -3.6,0.7c-1.1,0 -2.3,-0.2 -3.5,-0.5c-1.3,-0.3 -2.5,-0.8 -3.7,-1.4l0,6.3c1.5,0.6 2.9,1 4.2,1.2c1.3,0.2 2.7,0.3 4.2,0.3c3.7,0 6.5,-0.7 8.6,-2.2c2.1,-1.5 3.1,-3.5 3.1,-6.1c0,-3.8 -2.3,-6 -7,-6.6l0,-0.2c2,-0.6 3.5,-1.5 4.6,-2.7c1.1,-1.2 1.6,-2.7 1.6,-4.5c0,-2 -0.8,-3.6 -2.5,-4.7c-1.6,-1.2 -3.9,-1.7 -6.8,-1.7c-2,0 -3.8,0.2 -5.3,0.6c-1.5,0.4 -3.1,1.2 -4.5,2.2l3.1,5c1.9,-1.2 3.8,-1.8 5.5,-1.8c1,0 1.7,0.2 2.3,0.5c0.6,0.4 0.8,0.9 0.8,1.6c0,2 -1.9,3 -5.8,3l-1.8,0l0,5.7l1.7,0c1.4,0 2.6,0.1 3.4,0.3c0.9,0.2 1.5,0.5 1.9,0.9c0.4,0.4 0.6,1 0.6,1.8c0.1,1.1 -0.3,1.8 -1.1,2.3z" id="svg_166" stroke="null"/>
      <path class="st4" d="m944.9,139.399997c1.5,0 2.9,0.1 4.2,0.4l0,-5.9c-1.5,-0.2 -2.8,-0.3 -4,-0.3c-3.2,0 -5.9,0.6 -8,1.7c-2.2,1.1 -3.8,2.9 -4.9,5.4c-1.1,2.4 -1.7,5.6 -1.7,9.5c0,3.8 0.9,6.9 2.8,9c1.9,2.1 4.4,3.2 7.8,3.2c3.1,0 5.5,-0.9 7.3,-2.7c1.7,-1.8 2.6,-4.2 2.6,-7.3c0,-2.9 -0.7,-5.1 -2.1,-6.7c-1.4,-1.6 -3.3,-2.4 -5.8,-2.4c-2.5,0 -4.4,1.1 -5.5,3.3l-0.2,0c0.1,-2.5 0.8,-4.3 2,-5.4c1.1,-1.2 3,-1.8 5.5,-1.8zm-6.2,10.6c0.5,-0.6 1.2,-0.9 2.1,-0.9c1.8,0 2.6,1.1 2.6,3.4c0,1.3 -0.2,2.3 -0.8,2.9c-0.5,0.6 -1.2,0.9 -2,0.9c-0.9,0 -1.5,-0.4 -2.1,-1.2c-0.5,-0.8 -0.8,-1.8 -0.8,-3c0.2,-0.8 0.5,-1.5 1,-2.1z" id="svg_167" stroke="null"/>
     </g>
    </g>
    <g id="svg_168" stroke="null">
     <path class="st5" d="m84.4,99.999997l-82.5,0l-1.9,0l0,95.9l84.4,0l0,-95.9zm-3.7,92.1l-76.9,0l0,-88.4l76.9,0l0,88.4z" id="svg_169" stroke="null"/>
     <path class="st5" d="m165.1,99.999997l-82.5,0l-1.9,0l0,95.9l84.4,0l0,-95.9zm-3.8,92.1l-76.9,0l0,-88.4l76.9,0l0,88.4z" id="svg_170" stroke="null"/>
     <path class="st5" d="m163.2,99.999997l-1.9,0l0,95.9l84.4,0l0,-95.9l-82.5,0zm78.7,92.1l-76.9,0l0,-88.4l76.9,0l0,88.4z" id="svg_171" stroke="null"/>
     <path class="st5" d="m326.3,99.999997l-82.5,0l-1.9,0l0,95.9l84.4,0l0,-95.9zm-3.7,92.1l-76.9,0l0,-88.4l76.9,0l0,88.4z" id="svg_172" stroke="null"/>
     <path class="st5" d="m324.4,99.999997l-1.9,0l0,95.9l84.4,0l0,-95.9l-82.5,0zm78.8,92.1l-76.9,0l0,-88.4l76.9,0l0,88.4z" id="svg_173" stroke="null"/>
     <path class="st5" d="m405.1,99.999997l-1.9,0l0,95.9l84.4,0l0,-95.9l-82.5,0zm78.7,92.1l-76.9,0l0,-88.4l76.9,0l0,88.4z" id="svg_174" stroke="null"/>
     <path class="st5" d="m485.7,99.999997l-1.9,0l0,95.9l84.4,0l0,-95.9l-82.5,0zm78.7,92.1l-76.9,0l0,-88.4l76.9,0l0,88.4z" id="svg_175" stroke="null"/>
     <path class="st5" d="m566.3,99.999997l-1.9,0l0,95.9l84.4,0l0,-95.9l-82.5,0zm78.8,92.1l-76.9,0l0,-88.4l76.9,0l0,88.4z" id="svg_176" stroke="null"/>
     <path class="st5" d="m646.9,99.999997l-1.9,0l0,95.9l84.4,0l0,-95.9l-82.5,0zm78.8,92.1l-76.9,0l0,-88.4l76.9,0l0,88.4z" id="svg_177" stroke="null"/>
     <path class="st5" d="m810.1,99.999997l-82.5,0l-1.9,0l0,95.9l84.4,0l0,-95.9zm-3.8,92.1l-76.9,0l0,-88.4l76.9,0l0,88.4z" id="svg_178" stroke="null"/>
     <path class="st5" d="m808.2,99.999997l-1.9,0l0,95.9l84.4,0l0,-95.9l-82.5,0zm78.7,92.1l-76.9,0l0,-88.4l76.9,0l0,88.4z" id="svg_179" stroke="null"/>
     <path class="st5" d="m888.8,99.999997l-1.9,0l0,95.9l84.4,0l0,-95.9l-82.5,0zm78.8,92.1l-76.9,0l0,-88.4l76.9,0l0,88.4z" id="svg_180" stroke="null"/>
     <path class="st5" d="m84.4,192.099997l-82.5,0l-1.9,0l0,95.9l84.4,0l0,-95.9zm-3.7,92.1l-76.9,0l0,-88.4l76.9,0l0,88.4z" id="svg_181" stroke="null"/>
     <path class="st5" d="m165.1,192.099997l-82.5,0l-1.9,0l0,95.9l84.4,0l0,-95.9zm-3.8,92.1l-76.9,0l0,-88.4l76.9,0l0,88.4z" id="svg_182" stroke="null"/>
     <path class="st5" d="m163.2,192.099997l-1.9,0l0,95.9l84.4,0l0,-95.9l-82.5,0zm78.7,92.1l-76.9,0l0,-88.4l76.9,0l0,88.4z" id="svg_183" stroke="null"/>
     <path class="st5" d="m326.3,192.099997l-82.5,0l-1.9,0l0,95.9l84.4,0l0,-95.9zm-3.7,92.1l-76.9,0l0,-88.4l76.9,0l0,88.4z" id="svg_184" stroke="null"/>
     <path class="st5" d="m324.4,192.099997l-1.9,0l0,95.9l84.4,0l0,-95.9l-82.5,0zm78.8,92.1l-76.9,0l0,-88.4l76.9,0l0,88.4z" id="svg_185" stroke="null"/>
     <path class="st5" d="m405.1,192.099997l-1.9,0l0,95.9l84.4,0l0,-95.9l-82.5,0zm78.7,92.1l-76.9,0l0,-88.4l76.9,0l0,88.4z" id="svg_186" stroke="null"/>
     <path class="st5" d="m485.7,192.099997l-1.9,0l0,95.9l84.4,0l0,-95.9l-82.5,0zm78.7,92.1l-76.9,0l0,-88.4l76.9,0l0,88.4z" id="svg_187" stroke="null"/>
     <path class="st5" d="m566.3,192.099997l-1.9,0l0,95.9l84.4,0l0,-95.9l-82.5,0zm78.8,92.1l-76.9,0l0,-88.4l76.9,0l0,88.4z" id="svg_188" stroke="null"/>
     <path class="st5" d="m646.9,192.099997l-1.9,0l0,95.9l84.4,0l0,-95.9l-82.5,0zm78.8,92.1l-76.9,0l0,-88.4l76.9,0l0,88.4z" id="svg_189" stroke="null"/>
     <path class="st5" d="m810.1,192.099997l-82.5,0l-1.9,0l0,95.9l84.4,0l0,-95.9zm-3.8,92.1l-76.9,0l0,-88.4l76.9,0l0,88.4z" id="svg_190" stroke="null"/>
     <path class="st5" d="m808.2,192.099997l-1.9,0l0,95.9l84.4,0l0,-95.9l-82.5,0zm78.7,92.1l-76.9,0l0,-88.4l76.9,0l0,88.4z" id="svg_191" stroke="null"/>
     <path class="st5" d="m888.8,192.099997l-1.9,0l0,95.9l84.4,0l0,-95.9l-82.5,0zm78.8,92.1l-76.9,0l0,-88.4l76.9,0l0,88.4z" id="svg_192" stroke="null"/>
     <path class="st5" d="m84.4,284.199997l-82.5,0l-1.9,0l0,95.9l84.4,0l0,-95.9zm-3.7,92.1l-76.9,0l0,-88.4l76.9,0l0,88.4z" id="svg_193" stroke="null"/>
     <path class="st5" d="m165.1,284.199997l-82.5,0l-1.9,0l0,95.9l84.4,0l0,-95.9zm-3.8,92.1l-76.9,0l0,-88.4l76.9,0l0,88.4z" id="svg_194" stroke="null"/>
     <path class="st5" d="m163.2,284.199997l-1.9,0l0,95.9l84.4,0l0,-95.9l-82.5,0zm78.7,92.1l-76.9,0l0,-88.4l76.9,0l0,88.4z" id="svg_195" stroke="null"/>
     <path class="st5" d="m326.3,284.199997l-82.5,0l-1.9,0l0,95.9l84.4,0l0,-95.9zm-3.7,92.1l-76.9,0l0,-88.4l76.9,0l0,88.4z" id="svg_196" stroke="null"/>
     <path class="st5" d="m324.4,284.199997l-1.9,0l0,95.9l84.4,0l0,-95.9l-82.5,0zm78.8,92.1l-76.9,0l0,-88.4l76.9,0l0,88.4z" id="svg_197" stroke="null"/>
     <path class="st5" d="m405.1,284.199997l-1.9,0l0,95.9l84.4,0l0,-95.9l-82.5,0zm78.7,92.1l-76.9,0l0,-88.4l76.9,0l0,88.4z" id="svg_198" stroke="null"/>
     <path class="st5" d="m485.7,284.199997l-1.9,0l0,95.9l84.4,0l0,-95.9l-82.5,0zm78.7,92.1l-76.9,0l0,-88.4l76.9,0l0,88.4z" id="svg_199" stroke="null"/>
     <path class="st5" d="m566.3,284.199997l-1.9,0l0,95.9l84.4,0l0,-95.9l-82.5,0zm78.8,92.1l-76.9,0l0,-88.4l76.9,0l0,88.4z" id="svg_200" stroke="null"/>
     <path class="st5" d="m646.9,284.199997l-1.9,0l0,95.9l84.4,0l0,-95.9l-82.5,0zm78.8,92.1l-76.9,0l0,-88.4l76.9,0l0,88.4z" id="svg_201" stroke="null"/>
     <path class="st5" d="m810.1,284.199997l-82.5,0l-1.9,0l0,95.9l84.4,0l0,-95.9zm-3.8,92.1l-76.9,0l0,-88.4l76.9,0l0,88.4z" id="svg_202" stroke="null"/>
     <path class="st5" d="m808.2,284.199997l-1.9,0l0,95.9l84.4,0l0,-95.9l-82.5,0zm78.7,92.1l-76.9,0l0,-88.4l76.9,0l0,88.4z" id="svg_203" stroke="null"/>
     <path class="st5" d="m888.8,284.199997l-1.9,0l0,95.9l84.4,0l0,-95.9l-82.5,0zm78.8,92.1l-76.9,0l0,-88.4l76.9,0l0,88.4z" id="svg_204" stroke="null"/>
     <path class="st5" d="m326.3,376.299997l-324.4,0l-1.9,0l0,92.6l326.2,0l0,-92.6l0.1,0zm-3.7,88.9l-318.8,0l0,-85.1l318.7,0l0,85.1l0.1,0z" id="svg_205" stroke="null"/>
     <path class="st5" d="m324.4,376.299997l-1.9,0l0,92.6l326.2,0l0,-92.6l-324.3,0zm320.7,88.9l-318.8,0l0,-85.1l318.7,0l0,85.1l0.1,0z" id="svg_206" stroke="null"/>
     <path class="st5" d="m971.3,376.299997l-324.4,0l-1.9,0l0,92.6l326.2,0l0,-92.6l0.1,0zm-3.7,88.9l-318.8,0l0,-85.1l318.8,0l0,85.1z" id="svg_207" stroke="null"/>
     <path class="st5" d="m165.1,465.199997l-163.2,0l-1.9,0l0,92.6l165,0l0,-92.6l0.1,0zm-3.8,88.8l-157.5,0l0,-85.1l157.5,0l0,85.1z" id="svg_208" stroke="null"/>
     <path class="st5" d="m485.7,465.199997l-1.9,0l0,92.6l165,0l0,-92.6l-163.1,0zm159.4,88.8l-157.5,0l0,-85.1l157.5,0l0,85.1z" id="svg_209" stroke="null"/>
     <path class="st5" d="m326.3,465.199997l-163.1,0l-1.9,0l0,92.6l165,0l0,-92.6zm-3.7,88.8l-157.5,0l0,-85.1l157.5,0l0,85.1z" id="svg_210" stroke="null"/>
     <path class="st5" d="m808.2,465.199997l-1.9,0l0,92.6l165,0l0,-92.6l-163.1,0zm159.4,88.8l-157.5,0l0,-85.1l157.5,0l0,85.1z" id="svg_211" stroke="null"/>
     <path class="st5" d="m810.1,465.199997l-163.2,0l-1.9,0l0,92.6l165,0l0,-92.6l0.1,0zm-3.8,88.8l-157.5,0l0,-85.1l157.5,0l0,85.1z" id="svg_212" stroke="null"/>
     <path class="st5" d="m324.4,465.199997l-1.9,0l0,92.6l165,0l0,-92.6l-163.1,0zm159.4,88.8l-157.5,0l0,-85.1l157.5,0l0,85.1z" id="svg_213" stroke="null"/>
     <path class="st5" d="m1051.9,99.999997l-82.5,0l-1.9,0l0,95.9l84.4,0l0,-95.9zm-3.7,92.1l-76.9,0l0,-88.4l76.9,0l0,88.4z" id="svg_214" stroke="null"/>
     <path class="st5" d="m1051.9,192.099997l-82.5,0l-1.9,0l0,95.9l84.4,0l0,-95.9zm-3.7,92.1l-76.9,0l0,-88.4l76.9,0l0,88.4z" id="svg_215" stroke="null"/>
     <path class="st5" d="m1051.9,284.199997l-82.5,0l-1.9,0l0,95.9l84.4,0l0,-95.9zm-3.7,92.1l-76.9,0l0,-88.4l76.9,0l0,88.4z" id="svg_216" stroke="null"/>
     <path class="st5" d="m1042,111.299997l-62.7,0l-1.9,0l0,73.3l64.6,0l0,-73.3zm-3.7,69.5l-57.1,0l0,-65.8l57.1,0l0,65.8z" id="svg_217" stroke="null"/>
     <path class="st5" d="m1042,203.399997l-62.7,0l-1.9,0l0,73.3l64.6,0l0,-73.3zm-3.7,69.5l-57.1,0l0,-65.7l57.1,0l0,65.7z" id="svg_218" stroke="null"/>
     <path class="st5" d="m1042,295.499997l-62.7,0l-1.9,0l0,73.3l64.6,0l0,-73.3zm-3.7,69.5l-57.1,0l0,-65.8l57.1,0l0,65.8z" id="svg_219" stroke="null"/>
     <path class="st5" d="m265.9,392.999997l-203.6,0l-1.9,0l0,59.3l205.5,0l0,-59.3zm-3.7,55.5l-198,0l0,-51.8l198,0l0,51.8z" id="svg_220" stroke="null"/>
     <path class="st5" d="m384.8,392.999997l-1.8,0l0,59.3l205.5,0l0,-59.3l-203.7,0zm199.9,55.5l-198,0l0,-51.8l198,0l0,51.8z" id="svg_221" stroke="null"/>
     <path class="st5" d="m910.9,392.999997l-203.6,0l-1.9,0l0,59.3l205.5,0l0,-59.3zm-3.7,55.5l-198,0l0,-51.8l198,0l0,51.8z" id="svg_222" stroke="null"/>
    </g>
   </g>
   <g id="svg_225" stroke="null">
    <g id="svg_226" stroke="null">
     <circle class="st6" cx="24.300003" cy="23.323524" r="24.299999" id="svg_227" stroke="null"/>
     <path class="st4" d="m0,23.323521c0,1.1 0.1,2.2 0.2,3.2l15.7,0l-11.2,11.2c1.4,1.9 3.1,3.6 5,5l11.2,-11.2l0,15.8c1.1,0.1 2.2,0.2 3.3,0.2c1.3,0 2.5,-0.1 3.8,-0.3l0,-15.8l11,11c1.9,-1.5 3.6,-3.2 4.9,-5.1l-10.9,-10.9l15.3,0c0.1,-1.1 0.2,-2.1 0.2,-3.2c0,-1.3 -0.1,-2.6 -0.3,-3.9l-15.2,0l10.7,-10.7c-1.4,-1.9 -3.1,-3.6 -5,-5l-10.6,10.6l0,-15.1c-1.2,-0.2 -2.5,-0.3 -3.8,-0.3c-1.1,0 -2.2,0.1 -3.3,0.2l0,15.2l-10.8,-10.8c-1.9,1.4 -3.7,3.1 -5.1,4.9l10.9,10.9l-15.6,0c-0.3,1.5 -0.4,2.8 -0.4,4.1z" id="svg_228" stroke="null"/>
     <circle class="st6" cx="23.300003" cy="22.323524" r="16.299999" id="svg_229" stroke="null"/>
     <path class="st4" d="m36.7,35.723521c3.2,-3.2 5.1,-7.5 5.1,-12.4c0,-4.8 -2,-9.2 -5.1,-12.4c-3.2,-3.2 -7.5,-5.1 -12.4,-5.1c-4.8,0 -9.2,2 -12.4,5.1c-3.2,3.2 -5.1,7.5 -5.1,12.4c0,4.8 2,9.2 5.1,12.4c3.2,3.2 7.5,5.1 12.4,5.1c4.8,0 9.2,-1.9 12.4,-5.1zm-27.6,-12.4c0,-4.2 1.7,-8 4.4,-10.7c2.7,-2.7 6.5,-4.4 10.7,-4.4c4.2,0 8,1.7 10.7,4.4c2.7,2.7 4.4,6.5 4.4,10.7c0,4.2 -1.7,8 -4.4,10.7c-2.7,2.7 -6.5,4.4 -10.7,4.4c-4.2,0 -8,-1.7 -10.7,-4.4c-2.7,-2.7 -4.4,-6.5 -4.4,-10.7z" id="svg_230" stroke="null"/>
    </g>
    <g id="svg_231" stroke="null">
     <circle class="st1" cx="24.261421" cy="23.323521" r="24.261415" id="svg_232" stroke="null"/>
     <path class="st4" d="m-0.000003,23.323521c0,1.1 0.09984,2.2 0.19968,3.2l15.77492,0l-11.18222,11.2c1.39777,1.9 3.09508,3.6 4.99206,5l11.18222,-11.2l0,15.8c1.09826,0.1 2.19651,0.2 3.29476,0.2c1.29794,0 2.49604,-0.1 3.79397,-0.3l0,-15.8l10.98254,11c1.89698,-1.5 3.59429,-3.2 4.89222,-5.1l-10.8827,-10.9l15.27572,0c0.09984,-1.1 0.19968,-2.1 0.19968,-3.2c0,-1.3 -0.09984,-2.6 -0.29952,-3.9l-15.17588,0l10.68302,-10.7c-1.39778,-1.9 -3.09508,-3.6 -4.99206,-5l-10.58318,10.6l0,-15.1c-1.19809,-0.2 -2.49603,-0.3 -3.79396,-0.3c-1.09826,0 -2.19651,0.1 -3.29477,0.2l0,15.2l-10.78285,-10.8c-1.89699,1.4 -3.69413,3.1 -5.09191,4.9l10.8827,10.9l-15.57524,0c-0.29952,1.5 -0.4992,2.8 -0.4992,4.1z" id="svg_233" stroke="null"/>
     <circle class="st1" cx="24.261421" cy="23.323521" r="16.274115" id="svg_234" stroke="null"/>
     <path class="st4" d="m36.641737,35.723521c3.19492,-3.2 5.09191,-7.5 5.09191,-12.4c0,-4.8 -1.99683,-9.2 -5.09191,-12.4c-3.19492,-3.2 -7.48809,-5.1 -12.38032,-5.1c-4.79238,0 -9.18539,2 -12.38031,5.1c-3.19492,3.2 -5.09191,7.5 -5.09191,12.4c0,4.8 1.99683,9.2 5.09191,12.4c3.19492,3.2 7.48809,5.1 12.38031,5.1c4.89223,0 9.1854,-1.9 12.38032,-5.1zm-27.45635,-12.4c0,-4.2 1.6973,-8 4.39302,-10.7c2.69571,-2.7 6.48968,-4.4 10.68301,-4.4c4.19334,0 7.98731,1.7 10.68302,4.4c2.69571,2.7 4.39302,6.5 4.39302,10.7c0,4.2 -1.69731,8 -4.39302,10.7c-2.69571,2.7 -6.48968,4.4 -10.68302,4.4c-4.19333,0 -7.9873,-1.7 -10.68301,-4.4c-2.69572,-2.7 -4.39302,-6.5 -4.39302,-10.7z" id="svg_235" stroke="null"/>
    </g>
    <g id="svg_236" stroke="null">
     <circle class="st5" cx="24.261427" cy="23.323521" r="24.261415" id="svg_237" stroke="null"/>
     <path class="st4" d="m-0.000001,23.323521c0,1.1 0.09984,2.2 0.19968,3.2l15.67508,0l-11.18222,11.2c1.39778,1.9 3.09508,3.6 4.99206,5l11.18223,-11.2l0,15.8c1.09825,0.1 2.1965,0.2 3.29476,0.2c1.29793,0 2.49603,-0.1 3.79396,-0.3l0,-15.8l10.98254,11c1.89699,-1.5 3.59429,-3.2 4.89223,-5.1l-10.8827,-10.9l15.27571,0c0.09984,-1.1 0.19968,-2.1 0.19968,-3.2c0,-1.3 -0.09984,-2.6 -0.29952,-3.9l-15.17587,0l10.68301,-10.7c-1.39777,-1.9 -3.09508,-3.6 -4.99206,-5l-10.58317,10.6l0,-15.1c-1.1981,-0.2 -2.49604,-0.3 -3.79397,-0.3c-1.09826,0 -2.19651,0.1 -3.29476,0.2l0,15.2l-10.78286,-10.8c-1.89698,1.4 -3.69413,3.1 -5.09191,4.9l10.8827,10.9l-15.67508,0c-0.19968,1.5 -0.29952,2.8 -0.29952,4.1z" id="svg_238" stroke="null"/>
     <circle class="st5" cx="24.261427" cy="23.323521" r="16.274115" id="svg_239" stroke="null"/>
     <path class="st4" d="m36.641739,35.723521c3.19493,-3.2 5.09191,-7.5 5.09191,-12.4c0,-4.8 -1.99682,-9.2 -5.09191,-12.4c-3.19492,-3.2 -7.48809,-5.1 -12.38031,-5.1c-4.79238,0 -9.1854,2 -12.38032,5.1c-3.19492,3.2 -5.0919,7.5 -5.0919,12.4c0,4.8 1.99682,9.2 5.0919,12.4c3.19492,3.2 7.4881,5.1 12.38032,5.1c4.79238,0 9.18539,-1.9 12.38031,-5.1zm-27.45634,-12.4c0,-4.2 1.6973,-8 4.39301,-10.7c2.69572,-2.7 6.48968,-4.4 10.68302,-4.4c4.19333,0 7.9873,1.7 10.68301,4.4c2.69572,2.7 4.39302,6.5 4.39302,10.7c0,4.2 -1.6973,8 -4.39302,10.7c-2.69571,2.7 -6.48968,4.4 -10.68301,4.4c-4.19333,0 -7.9873,-1.7 -10.68302,-4.4c-2.69571,-2.7 -4.39301,-6.5 -4.39301,-10.7z" id="svg_240" stroke="null"/>
    </g>
    <g id="svg_241" stroke="null">
     <circle class="st2" cx="24.261424" cy="23.323521" r="24.261415" id="svg_242" stroke="null"/>
     <path class="st4" d="m0.000002,23.323521c0,1.1 0.09984,2.2 0.19968,3.2l15.67508,0l-11.18222,11.2c1.39777,1.9 3.09507,3.6 4.99206,5l11.18222,-11.2l0,15.8c1.09825,0.1 2.19651,0.2 3.29476,0.2c1.29794,0 2.49603,-0.1 3.79397,-0.3l0,-15.8l10.98254,11c1.89698,-1.5 3.59428,-3.2 4.89222,-5.1l-10.8827,-10.9l15.27572,0c0.09984,-1.1 0.19968,-2.1 0.19968,-3.2c0,-1.3 -0.09984,-2.6 -0.29952,-3.9l-15.17588,0l10.68302,-10.7c-1.39778,-1.9 -3.09508,-3.6 -4.99206,-5l-10.58318,10.6l0,-15.1c-1.19809,-0.2 -2.49603,-0.3 -3.79397,-0.3c-1.09825,0 -2.1965,0.1 -3.29476,0.2l0,15.2l-10.78286,-10.8c-1.89698,1.4 -3.69412,3.1 -5.0919,4.9l10.8827,10.9l-15.57524,0c-0.29952,1.5 -0.39937,2.8 -0.39937,4.1l0.00001,0z" id="svg_243" stroke="null"/>
     <circle stroke="null" class="st2" cx="24.261424" cy="23.323521" r="16.274115" id="svg_244"/>
     <path class="st4" d="m36.541902,35.723521c3.19492,-3.2 5.0919,-7.5 5.0919,-12.4c0,-4.8 -1.99682,-9.2 -5.0919,-12.4c-3.19492,-3.2 -7.4881,-5.1 -12.38032,-5.1c-4.79238,0 -9.1854,2 -12.38032,5.1c-3.19492,3.2 -5.0919,7.5 -5.0919,12.4c0,4.8 1.99682,9.2 5.0919,12.4c3.19493,3.2 7.4881,5.1 12.38032,5.1c4.89222,0 9.28524,-1.9 12.38032,-5.1zm-27.45635,-12.4c0,-4.2 1.6973,-8 4.39302,-10.7c2.69571,-2.7 6.48968,-4.4 10.68301,-4.4c4.19333,0 7.9873,1.7 10.68302,4.4c2.69571,2.7 4.39301,6.5 4.39301,10.7c0,4.2 -1.6973,8 -4.39301,10.7c-2.69572,2.7 -6.48968,4.4 -10.68302,4.4c-4.19333,0 -7.9873,-1.7 -10.68301,-4.4c-2.69572,-2.7 -4.39302,-6.5 -4.39302,-10.7z" id="svg_245" stroke="null"/>
    </g>
    <g id="svg_246" stroke="null"/>
   </g>
     <path stroke="null" transform="translate(743, 225) scale(1) rotate(0.6558101773262024 25.05931091308589,1.769918441772385) " id="svg_43" d="m5.090735,34.993697c-2.841259,0.359258 -6.923307,-1.88336 -3.326288,-3.921434c3.043984,-1.325381 0.123005,-4.776682 3.341922,-6.453093c3.273096,-3.713145 6.757722,-7.508806 8.388843,-11.963854c-0.227594,-2.134323 -5.314883,-5.667316 -0.160941,-6.359565c4.249751,0.410532 2.695425,-4.876499 4.164247,-7.167311c0.88322,-3.477129 1.525235,-7.012231 1.366759,-10.573625c-2.959587,-0.068675 -5.979752,0.217666 -8.881246,-0.367057c-1.850784,-2.018701 4.181488,-3.023824 5.176864,-4.845967c2.088498,-2.618918 -3.057357,-5.512501 -0.854584,-8.60838c1.406994,-4.686508 7.916046,-7.724901 13.423638,-6.008183c5.703245,1.229006 9.919131,6.827352 7.20841,11.48413c-0.216415,0.898399 -1.910189,2.063266 -1.344506,2.77872c2.469524,1.424124 5.328857,2.665218 6.893472,4.864193c-2.215265,1.334723 -5.922005,0.318247 -8.685977,0.952278c-2.514582,1.85341 -0.030709,5.643011 0.098095,8.185857c0.784441,2.905356 1.476967,5.836329 2.375919,8.715219c1.889786,0.612545 5.771354,1.321841 3.642099,3.866451c-3.035467,2.047696 -1.549601,5.309296 0.162918,7.607148c2.131438,3.5486 5.790259,6.259441 8.031734,9.726075c0.83239,1.600467 -2.14328,4.435005 1.565338,3.772166c4.02055,0.709687 1.614648,5.342166 -1.998233,4.247662c-13.311835,0.389494 -26.651011,0.547601 -39.963162,0.116773l-0.625329,-0.048208l0,0l0.000005,0.000004z" stroke-opacity="0" stroke-width="NaN" fill="#efef09"/>
  </g>
 </g>
<g id="svg_226" stroke="null" transform="translate(986, 215) scale(1) ">
     <circle class="st6" cx="24.300003" cy="23.323524" r="24.299999" id="svg_227" stroke="null"/>
     <path class="st4" d="m0,23.323521c0,1.1 0.1,2.2 0.2,3.2l15.7,0l-11.2,11.2c1.4,1.9 3.1,3.6 5,5l11.2,-11.2l0,15.8c1.1,0.1 2.2,0.2 3.3,0.2c1.3,0 2.5,-0.1 3.8,-0.3l0,-15.8l11,11c1.9,-1.5 3.6,-3.2 4.9,-5.1l-10.9,-10.9l15.3,0c0.1,-1.1 0.2,-2.1 0.2,-3.2c0,-1.3 -0.1,-2.6 -0.3,-3.9l-15.2,0l10.7,-10.7c-1.4,-1.9 -3.1,-3.6 -5,-5l-10.6,10.6l0,-15.1c-1.2,-0.2 -2.5,-0.3 -3.8,-0.3c-1.1,0 -2.2,0.1 -3.3,0.2l0,15.2l-10.8,-10.8c-1.9,1.4 -3.7,3.1 -5.1,4.9l10.9,10.9l-15.6,0c-0.3,1.5 -0.4,2.8 -0.4,4.1z" id="svg_228" stroke="null"/>
     <circle class="st6" cx="23.300003" cy="22.323524" r="16.299999" id="svg_229" stroke="null"/>
     <path class="st4" d="m36.7,35.723521c3.2,-3.2 5.1,-7.5 5.1,-12.4c0,-4.8 -2,-9.2 -5.1,-12.4c-3.2,-3.2 -7.5,-5.1 -12.4,-5.1c-4.8,0 -9.2,2 -12.4,5.1c-3.2,3.2 -5.1,7.5 -5.1,12.4c0,4.8 2,9.2 5.1,12.4c3.2,3.2 7.5,5.1 12.4,5.1c4.8,0 9.2,-1.9 12.4,-5.1zm-27.6,-12.4c0,-4.2 1.7,-8 4.4,-10.7c2.7,-2.7 6.5,-4.4 10.7,-4.4c4.2,0 8,1.7 10.7,4.4c2.7,2.7 4.4,6.5 4.4,10.7c0,4.2 -1.7,8 -4.4,10.7c-2.7,2.7 -6.5,4.4 -10.7,4.4c-4.2,0 -8,-1.7 -10.7,-4.4c-2.7,-2.7 -4.4,-6.5 -4.4,-10.7z" id="svg_230" stroke="null"/>
    </g>
    <g id="svg_226" stroke="null" transform="translate(583, 216) scale(1) ">
     <circle class="st6" cx="24.300003" cy="23.323524" r="24.299999" id="svg_227" stroke="null"/>
     <path class="st4" d="m0,23.323521c0,1.1 0.1,2.2 0.2,3.2l15.7,0l-11.2,11.2c1.4,1.9 3.1,3.6 5,5l11.2,-11.2l0,15.8c1.1,0.1 2.2,0.2 3.3,0.2c1.3,0 2.5,-0.1 3.8,-0.3l0,-15.8l11,11c1.9,-1.5 3.6,-3.2 4.9,-5.1l-10.9,-10.9l15.3,0c0.1,-1.1 0.2,-2.1 0.2,-3.2c0,-1.3 -0.1,-2.6 -0.3,-3.9l-15.2,0l10.7,-10.7c-1.4,-1.9 -3.1,-3.6 -5,-5l-10.6,10.6l0,-15.1c-1.2,-0.2 -2.5,-0.3 -3.8,-0.3c-1.1,0 -2.2,0.1 -3.3,0.2l0,15.2l-10.8,-10.8c-1.9,1.4 -3.7,3.1 -5.1,4.9l10.9,10.9l-15.6,0c-0.3,1.5 -0.4,2.8 -0.4,4.1z" id="svg_228" stroke="null"/>
     <circle class="st6" cx="23.300003" cy="22.323524" r="16.299999" id="svg_229" stroke="null"/>
     <path class="st4" d="m36.7,35.723521c3.2,-3.2 5.1,-7.5 5.1,-12.4c0,-4.8 -2,-9.2 -5.1,-12.4c-3.2,-3.2 -7.5,-5.1 -12.4,-5.1c-4.8,0 -9.2,2 -12.4,5.1c-3.2,3.2 -5.1,7.5 -5.1,12.4c0,4.8 2,9.2 5.1,12.4c3.2,3.2 7.5,5.1 12.4,5.1c4.8,0 9.2,-1.9 12.4,-5.1zm-27.6,-12.4c0,-4.2 1.7,-8 4.4,-10.7c2.7,-2.7 6.5,-4.4 10.7,-4.4c4.2,0 8,1.7 10.7,4.4c2.7,2.7 4.4,6.5 4.4,10.7c0,4.2 -1.7,8 -4.4,10.7c-2.7,2.7 -6.5,4.4 -10.7,4.4c-4.2,0 -8,-1.7 -10.7,-4.4c-2.7,-2.7 -4.4,-6.5 -4.4,-10.7z" id="svg_230" stroke="null"/>
    </g>
    <g id="svg_226" stroke="null" transform="translate(712, 487) scale(1) ">
     <circle class="st6" cx="24.300003" cy="23.323524" r="24.299999" id="svg_227" stroke="null"/>
     <path class="st4" d="m0,23.323521c0,1.1 0.1,2.2 0.2,3.2l15.7,0l-11.2,11.2c1.4,1.9 3.1,3.6 5,5l11.2,-11.2l0,15.8c1.1,0.1 2.2,0.2 3.3,0.2c1.3,0 2.5,-0.1 3.8,-0.3l0,-15.8l11,11c1.9,-1.5 3.6,-3.2 4.9,-5.1l-10.9,-10.9l15.3,0c0.1,-1.1 0.2,-2.1 0.2,-3.2c0,-1.3 -0.1,-2.6 -0.3,-3.9l-15.2,0l10.7,-10.7c-1.4,-1.9 -3.1,-3.6 -5,-5l-10.6,10.6l0,-15.1c-1.2,-0.2 -2.5,-0.3 -3.8,-0.3c-1.1,0 -2.2,0.1 -3.3,0.2l0,15.2l-10.8,-10.8c-1.9,1.4 -3.7,3.1 -5.1,4.9l10.9,10.9l-15.6,0c-0.3,1.5 -0.4,2.8 -0.4,4.1z" id="svg_228" stroke="null"/>
     <circle class="st6" cx="23.300003" cy="22.323524" r="16.299999" id="svg_229" stroke="null"/>
     <path class="st4" d="m36.7,35.723521c3.2,-3.2 5.1,-7.5 5.1,-12.4c0,-4.8 -2,-9.2 -5.1,-12.4c-3.2,-3.2 -7.5,-5.1 -12.4,-5.1c-4.8,0 -9.2,2 -12.4,5.1c-3.2,3.2 -5.1,7.5 -5.1,12.4c0,4.8 2,9.2 5.1,12.4c3.2,3.2 7.5,5.1 12.4,5.1c4.8,0 9.2,-1.9 12.4,-5.1zm-27.6,-12.4c0,-4.2 1.7,-8 4.4,-10.7c2.7,-2.7 6.5,-4.4 10.7,-4.4c4.2,0 8,1.7 10.7,4.4c2.7,2.7 4.4,6.5 4.4,10.7c0,4.2 -1.7,8 -4.4,10.7c-2.7,2.7 -6.5,4.4 -10.7,4.4c-4.2,0 -8,-1.7 -10.7,-4.4c-2.7,-2.7 -4.4,-6.5 -4.4,-10.7z" id="svg_230" stroke="null"/>
    </g>
    <g id="svg_226" stroke="null" transform="translate(421, 216) scale(1) ">
     <circle class="st6" cx="24.300003" cy="23.323524" r="24.299999" id="svg_227" stroke="null"/>
     <path class="st4" d="m0,23.323521c0,1.1 0.1,2.2 0.2,3.2l15.7,0l-11.2,11.2c1.4,1.9 3.1,3.6 5,5l11.2,-11.2l0,15.8c1.1,0.1 2.2,0.2 3.3,0.2c1.3,0 2.5,-0.1 3.8,-0.3l0,-15.8l11,11c1.9,-1.5 3.6,-3.2 4.9,-5.1l-10.9,-10.9l15.3,0c0.1,-1.1 0.2,-2.1 0.2,-3.2c0,-1.3 -0.1,-2.6 -0.3,-3.9l-15.2,0l10.7,-10.7c-1.4,-1.9 -3.1,-3.6 -5,-5l-10.6,10.6l0,-15.1c-1.2,-0.2 -2.5,-0.3 -3.8,-0.3c-1.1,0 -2.2,0.1 -3.3,0.2l0,15.2l-10.8,-10.8c-1.9,1.4 -3.7,3.1 -5.1,4.9l10.9,10.9l-15.6,0c-0.3,1.5 -0.4,2.8 -0.4,4.1z" id="svg_228" stroke="null"/>
     <circle class="st6" cx="23.300003" cy="22.323524" r="16.299999" id="svg_229" stroke="null"/>
     <path class="st4" d="m36.7,35.723521c3.2,-3.2 5.1,-7.5 5.1,-12.4c0,-4.8 -2,-9.2 -5.1,-12.4c-3.2,-3.2 -7.5,-5.1 -12.4,-5.1c-4.8,0 -9.2,2 -12.4,5.1c-3.2,3.2 -5.1,7.5 -5.1,12.4c0,4.8 2,9.2 5.1,12.4c3.2,3.2 7.5,5.1 12.4,5.1c4.8,0 9.2,-1.9 12.4,-5.1zm-27.6,-12.4c0,-4.2 1.7,-8 4.4,-10.7c2.7,-2.7 6.5,-4.4 10.7,-4.4c4.2,0 8,1.7 10.7,4.4c2.7,2.7 4.4,6.5 4.4,10.7c0,4.2 -1.7,8 -4.4,10.7c-2.7,2.7 -6.5,4.4 -10.7,4.4c-4.2,0 -8,-1.7 -10.7,-4.4c-2.7,-2.7 -4.4,-6.5 -4.4,-10.7z" id="svg_230" stroke="null"/>
    </g>
    <g id="svg_226" stroke="null" transform="translate(18, 124) scale(1) ">
     <circle class="st6" cx="24.300003" cy="23.323524" r="24.299999" id="svg_227" stroke="null"/>
     <path class="st4" d="m0,23.323521c0,1.1 0.1,2.2 0.2,3.2l15.7,0l-11.2,11.2c1.4,1.9 3.1,3.6 5,5l11.2,-11.2l0,15.8c1.1,0.1 2.2,0.2 3.3,0.2c1.3,0 2.5,-0.1 3.8,-0.3l0,-15.8l11,11c1.9,-1.5 3.6,-3.2 4.9,-5.1l-10.9,-10.9l15.3,0c0.1,-1.1 0.2,-2.1 0.2,-3.2c0,-1.3 -0.1,-2.6 -0.3,-3.9l-15.2,0l10.7,-10.7c-1.4,-1.9 -3.1,-3.6 -5,-5l-10.6,10.6l0,-15.1c-1.2,-0.2 -2.5,-0.3 -3.8,-0.3c-1.1,0 -2.2,0.1 -3.3,0.2l0,15.2l-10.8,-10.8c-1.9,1.4 -3.7,3.1 -5.1,4.9l10.9,10.9l-15.6,0c-0.3,1.5 -0.4,2.8 -0.4,4.1z" id="svg_228" stroke="null"/>
     <circle class="st6" cx="23.300003" cy="22.323524" r="16.299999" id="svg_229" stroke="null"/>
     <path class="st4" d="m36.7,35.723521c3.2,-3.2 5.1,-7.5 5.1,-12.4c0,-4.8 -2,-9.2 -5.1,-12.4c-3.2,-3.2 -7.5,-5.1 -12.4,-5.1c-4.8,0 -9.2,2 -12.4,5.1c-3.2,3.2 -5.1,7.5 -5.1,12.4c0,4.8 2,9.2 5.1,12.4c3.2,3.2 7.5,5.1 12.4,5.1c4.8,0 9.2,-1.9 12.4,-5.1zm-27.6,-12.4c0,-4.2 1.7,-8 4.4,-10.7c2.7,-2.7 6.5,-4.4 10.7,-4.4c4.2,0 8,1.7 10.7,4.4c2.7,2.7 4.4,6.5 4.4,10.7c0,4.2 -1.7,8 -4.4,10.7c-2.7,2.7 -6.5,4.4 -10.7,4.4c-4.2,0 -8,-1.7 -10.7,-4.4c-2.7,-2.7 -4.4,-6.5 -4.4,-10.7z" id="svg_230" stroke="null"/>
    </g>
    <g id="svg_226" stroke="null" transform="translate(260, 124) scale(1) ">
     <circle class="st6" cx="24.300003" cy="23.323524" r="24.299999" id="svg_227" stroke="null"/>
     <path class="st4" d="m0,23.323521c0,1.1 0.1,2.2 0.2,3.2l15.7,0l-11.2,11.2c1.4,1.9 3.1,3.6 5,5l11.2,-11.2l0,15.8c1.1,0.1 2.2,0.2 3.3,0.2c1.3,0 2.5,-0.1 3.8,-0.3l0,-15.8l11,11c1.9,-1.5 3.6,-3.2 4.9,-5.1l-10.9,-10.9l15.3,0c0.1,-1.1 0.2,-2.1 0.2,-3.2c0,-1.3 -0.1,-2.6 -0.3,-3.9l-15.2,0l10.7,-10.7c-1.4,-1.9 -3.1,-3.6 -5,-5l-10.6,10.6l0,-15.1c-1.2,-0.2 -2.5,-0.3 -3.8,-0.3c-1.1,0 -2.2,0.1 -3.3,0.2l0,15.2l-10.8,-10.8c-1.9,1.4 -3.7,3.1 -5.1,4.9l10.9,10.9l-15.6,0c-0.3,1.5 -0.4,2.8 -0.4,4.1z" id="svg_228" stroke="null"/>
     <circle class="st6" cx="23.300003" cy="22.323524" r="16.299999" id="svg_229" stroke="null"/>
     <path class="st4" d="m36.7,35.723521c3.2,-3.2 5.1,-7.5 5.1,-12.4c0,-4.8 -2,-9.2 -5.1,-12.4c-3.2,-3.2 -7.5,-5.1 -12.4,-5.1c-4.8,0 -9.2,2 -12.4,5.1c-3.2,3.2 -5.1,7.5 -5.1,12.4c0,4.8 2,9.2 5.1,12.4c3.2,3.2 7.5,5.1 12.4,5.1c4.8,0 9.2,-1.9 12.4,-5.1zm-27.6,-12.4c0,-4.2 1.7,-8 4.4,-10.7c2.7,-2.7 6.5,-4.4 10.7,-4.4c4.2,0 8,1.7 10.7,4.4c2.7,2.7 4.4,6.5 4.4,10.7c0,4.2 -1.7,8 -4.4,10.7c-2.7,2.7 -6.5,4.4 -10.7,4.4c-4.2,0 -8,-1.7 -10.7,-4.4c-2.7,-2.7 -4.4,-6.5 -4.4,-10.7z" id="svg_230" stroke="null"/>
    </g>
    <g id="svg_226" stroke="null" transform="translate(180, 124) scale(1) ">
     <circle class="st6" cx="24.300003" cy="23.323524" r="24.299999" id="svg_227" stroke="null"/>
     <path class="st4" d="m0,23.323521c0,1.1 0.1,2.2 0.2,3.2l15.7,0l-11.2,11.2c1.4,1.9 3.1,3.6 5,5l11.2,-11.2l0,15.8c1.1,0.1 2.2,0.2 3.3,0.2c1.3,0 2.5,-0.1 3.8,-0.3l0,-15.8l11,11c1.9,-1.5 3.6,-3.2 4.9,-5.1l-10.9,-10.9l15.3,0c0.1,-1.1 0.2,-2.1 0.2,-3.2c0,-1.3 -0.1,-2.6 -0.3,-3.9l-15.2,0l10.7,-10.7c-1.4,-1.9 -3.1,-3.6 -5,-5l-10.6,10.6l0,-15.1c-1.2,-0.2 -2.5,-0.3 -3.8,-0.3c-1.1,0 -2.2,0.1 -3.3,0.2l0,15.2l-10.8,-10.8c-1.9,1.4 -3.7,3.1 -5.1,4.9l10.9,10.9l-15.6,0c-0.3,1.5 -0.4,2.8 -0.4,4.1z" id="svg_228" stroke="null"/>
     <circle class="st6" cx="23.300003" cy="22.323524" r="16.299999" id="svg_229" stroke="null"/>
     <path class="st4" d="m36.7,35.723521c3.2,-3.2 5.1,-7.5 5.1,-12.4c0,-4.8 -2,-9.2 -5.1,-12.4c-3.2,-3.2 -7.5,-5.1 -12.4,-5.1c-4.8,0 -9.2,2 -12.4,5.1c-3.2,3.2 -5.1,7.5 -5.1,12.4c0,4.8 2,9.2 5.1,12.4c3.2,3.2 7.5,5.1 12.4,5.1c4.8,0 9.2,-1.9 12.4,-5.1zm-27.6,-12.4c0,-4.2 1.7,-8 4.4,-10.7c2.7,-2.7 6.5,-4.4 10.7,-4.4c4.2,0 8,1.7 10.7,4.4c2.7,2.7 4.4,6.5 4.4,10.7c0,4.2 -1.7,8 -4.4,10.7c-2.7,2.7 -6.5,4.4 -10.7,4.4c-4.2,0 -8,-1.7 -10.7,-4.4c-2.7,-2.7 -4.4,-6.5 -4.4,-10.7z" id="svg_230" stroke="null"/>
    </g>
    </svg>
