<svg width="1153" height="559" xmlns="http://www.w3.org/2000/svg" >
 <style type="text/css">.st0{fill-rule:evenodd;clip-rule:evenodd;fill:#00813D;}
	.st1{fill-rule:evenodd;clip-rule:evenodd;fill:#DE3C3B;}
	.st2{fill-rule:evenodd;clip-rule:evenodd;}
	.st3{fill-rule:evenodd;clip-rule:evenodd;fill:#E7E5E4;}
	.st4{fill-rule:evenodd;clip-rule:evenodd;fill:#FFFFFF;}
	.st5{fill-rule:evenodd;clip-rule:evenodd;fill:#9CB64F;}
	.st6{fill-rule:evenodd;clip-rule:evenodd;fill:#2595BD;}</style>

 <g>
  <title>background</title>
  <rect fill="none" id="canvas_background" height="559" width="1153" y="-1" x="-1"/>
 </g>
 <g>
  <title>Layer 1</title>
  <g stroke="null" id="svg_1">
   <rect x="1" y="1" stroke="null" id="svg_2" height="559" width="1153" class="st0"/>
   <g stroke="null" id="svg_3">
    <g stroke="null" id="svg_4">
     <g stroke="null" id="svg_5">
      <polygon stroke="null" id="svg_6" points="627.0999755859375,619.7000122070312 572.4000244140625,653.2000122070312 627.0999755859375,686.7999877929688 681.7000122070312,653.2000122070312 " class="st1"/>
      <polygon stroke="null" id="svg_7" points="788.2999877929688,619.7000122070312 733.7000122070312,653.2000122070312 788.2999877929688,686.7999877929688 843,653.2000122070312 " class="st2"/>
      <g stroke="null" id="svg_8">
       <polygon stroke="null" id="svg_9" points="385,577.4000244140625 385,562.2999877929688 389.70001220703125,562.2999877929688 389.70001220703125,558 375,558 375,562.2999877929688 379.70001220703125,562.2999877929688 379.70001220703125,577.4000244140625 " class="st3"/>
       <path stroke="null" id="svg_10" d="m367.6,573c-0.4,0.3 -0.9,0.4 -1.7,0.4c-0.9,0 -1.9,-0.1 -3,-0.4c-1.1,-0.3 -2.1,-0.7 -3.1,-1.2l0,4.7c1,0.5 1.9,0.8 2.7,1c0.9,0.2 2,0.3 3.3,0.3c1.5,0 2.9,-0.3 4.1,-0.8c1.2,-0.5 2,-1.2 2.6,-2.2c0.6,-0.9 0.9,-2 0.9,-3.2c0,-1.3 -0.3,-2.4 -1,-3.3c-0.7,-0.9 -1.8,-1.7 -3.5,-2.4c-1.8,-0.8 -2.8,-1.4 -3.2,-1.7c-0.4,-0.3 -0.6,-0.6 -0.6,-1c0,-0.4 0.2,-0.7 0.5,-0.9c0.3,-0.2 0.8,-0.4 1.5,-0.4c1.3,0 2.9,0.4 4.7,1.2l1.6,-4.1c-2.1,-0.9 -4.1,-1.4 -6.2,-1.4c-2.3,0 -4.1,0.5 -5.4,1.5c-1.3,1 -2,2.4 -2,4.2c0,1 0.2,1.8 0.5,2.5c0.3,0.7 0.8,1.3 1.4,1.9c0.6,0.5 1.6,1.1 2.9,1.7c1.4,0.6 2.3,1 2.6,1.3c0.3,0.2 0.6,0.4 0.7,0.6c0.2,0.2 0.2,0.4 0.2,0.7c0,0.4 -0.1,0.8 -0.5,1z" class="st3"/>
       <path stroke="null" id="svg_11" d="m337.4,577.4l7.1,0l0,-26l-6.3,0l-8.9,7.3l3.6,4.5l2.9,-2.4c0.7,-0.6 1.2,-1.1 1.6,-1.7c-0.1,1.4 -0.1,2.9 -0.1,4.6l0,13.7l0.1,0z" class="st3"/>
       <path stroke="null" id="svg_12" d="m436.9,566.2c0.9,-0.9 1.6,-1.8 2.1,-2.6c0.5,-0.8 0.9,-1.7 1.2,-2.6c0.3,-0.9 0.4,-1.8 0.4,-2.8c0,-1.4 -0.4,-2.6 -1.1,-3.7c-0.7,-1.1 -1.8,-1.9 -3.1,-2.5c-1.3,-0.6 -2.8,-0.9 -4.5,-0.9c-1.3,0 -2.5,0.1 -3.6,0.4c-1.1,0.3 -2.1,0.7 -3,1.2c-0.9,0.5 -2,1.4 -3.4,2.6l3.9,4.5c1.1,-0.9 2,-1.6 2.8,-2.1c0.8,-0.5 1.7,-0.7 2.5,-0.7c0.8,0 1.4,0.2 1.8,0.6c0.4,0.4 0.7,0.9 0.7,1.6c0,0.5 -0.1,1.1 -0.3,1.6c-0.2,0.5 -0.6,1.1 -1.2,1.8c-0.6,0.7 -1.7,2 -3.6,3.9l-6.3,6.4l0,4.6l18.8,0l0,-5.8l-9.8,0l0,-0.2c2.9,-2.6 4.8,-4.3 5.7,-5.3z" class="st3"/>
       <path stroke="null" id="svg_13" d="m409.5,577.4l7.1,0l0,-26l-6.3,0l-8.9,7.3l3.6,4.5l2.9,-2.4c0.7,-0.6 1.2,-1.1 1.6,-1.7c-0.1,1.4 -0.1,2.9 -0.1,4.6l0,13.7l0.1,0z" class="st3"/>
       <path stroke="null" id="svg_14" d="m661,566.4c0.9,-0.9 1.6,-1.8 2.1,-2.6c0.5,-0.8 0.9,-1.7 1.2,-2.6c0.3,-0.9 0.4,-1.8 0.4,-2.8c0,-1.4 -0.4,-2.6 -1.1,-3.7c-0.7,-1.1 -1.7,-1.9 -3.1,-2.5c-1.3,-0.6 -2.8,-0.9 -4.5,-0.9c-1.3,0 -2.5,0.1 -3.6,0.4c-1.1,0.3 -2.1,0.7 -3,1.2c-0.9,0.5 -2,1.4 -3.4,2.6l3.9,4.5c1.1,-0.9 2,-1.6 2.8,-2.1c0.8,-0.5 1.7,-0.7 2.5,-0.7c0.8,0 1.4,0.2 1.8,0.6c0.4,0.4 0.7,0.9 0.7,1.6c0,0.5 -0.1,1.1 -0.3,1.6c-0.2,0.5 -0.6,1.1 -1.2,1.8c-0.6,0.7 -1.7,2 -3.6,3.9l-6.3,6.4l0,4.6l18.8,0l0,-5.8l-9.8,0l0,-0.2c2.9,-2.7 4.8,-4.4 5.7,-5.3z" class="st3"/>
       <path stroke="null" id="svg_15" d="m684.9,558.1l-6.9,0l0,19.5l4.7,0l0,-8.8c0,-1.1 -0.1,-2.8 -0.3,-4.9l0.1,0l7.1,13.7l6.9,0l0,-19.5l-4.7,0l0,8.8c0,1.2 0.1,2.8 0.2,4.7l0,0l-7.1,-13.5z" class="st3"/>
       <path stroke="null" id="svg_16" d="m765.2,566.4c0.9,-0.9 1.6,-1.8 2.1,-2.6c0.5,-0.8 0.9,-1.7 1.2,-2.6c0.3,-0.9 0.4,-1.8 0.4,-2.8c0,-1.4 -0.4,-2.6 -1.1,-3.7c-0.7,-1.1 -1.8,-1.9 -3.1,-2.5c-1.3,-0.6 -2.8,-0.9 -4.5,-0.9c-1.3,0 -2.5,0.1 -3.6,0.4c-1.1,0.3 -2.1,0.7 -3,1.2c-0.9,0.5 -2,1.4 -3.4,2.6l3.9,4.5c1.1,-0.9 2,-1.6 2.8,-2.1c0.8,-0.5 1.7,-0.7 2.5,-0.7c0.8,0 1.4,0.2 1.8,0.6c0.4,0.4 0.7,0.9 0.7,1.6c0,0.5 -0.1,1.1 -0.3,1.6c-0.2,0.5 -0.6,1.1 -1.2,1.8c-0.6,0.7 -1.7,2 -3.6,3.9l-6.3,6.4l0,4.6l18.8,0l0,-5.8l-9.8,0l0,-0.2c2.9,-2.7 4.8,-4.4 5.7,-5.3z" class="st3"/>
       <path stroke="null" id="svg_17" d="m737.8,577.6l7.1,0l0,-26l-6.3,0l-8.9,7.3l3.6,4.5l2.9,-2.4c0.7,-0.6 1.2,-1.1 1.6,-1.7c-0.1,1.4 -0.1,2.9 -0.1,4.6l0,13.7l0.1,0z" class="st3"/>
       <path stroke="null" id="svg_18" d="m717.3,567.4c0,-3 -0.9,-5.3 -2.6,-6.9c-1.7,-1.6 -4.1,-2.4 -7.2,-2.4l-6.7,0l0,19.5l6.3,0c3.2,0 5.8,-0.9 7.5,-2.6c1.8,-1.8 2.7,-4.3 2.7,-7.6zm-6.5,4.5c-0.7,0.9 -1.9,1.4 -3.5,1.4l-1.2,0l0,-10.9l1.5,0c1.4,0 2.5,0.4 3.2,1.3c0.7,0.9 1.1,2.2 1.1,4c0,1.8 -0.4,3.3 -1.1,4.2z" class="st3"/>
       <path stroke="null" id="svg_19" d="m1037.5,567.3c0,-3 -0.9,-5.3 -2.6,-6.9c-1.7,-1.6 -4.1,-2.4 -7.2,-2.4l-6.7,0l0,19.5l6.3,0c3.2,0 5.8,-0.9 7.5,-2.6c1.8,-1.9 2.7,-4.4 2.7,-7.6zm-6.6,4.4c-0.7,0.9 -1.9,1.4 -3.5,1.4l-1.2,0l0,-10.9l1.5,0c1.4,0 2.5,0.4 3.2,1.3c0.7,0.9 1.1,2.2 1.1,4c0,1.9 -0.4,3.3 -1.1,4.2z" class="st3"/>
       <path stroke="null" id="svg_20" d="m981,571.6c-0.7,0.4 -1.8,0.6 -3.4,0.6c-1,0 -2.1,-0.1 -3.3,-0.4c-1.2,-0.3 -2.3,-0.7 -3.5,-1.3l0,5.8c1.4,0.5 2.7,0.9 3.9,1.1c1.2,0.2 2.5,0.3 3.9,0.3c3.4,0 6,-0.7 8,-2.1c1.9,-1.4 2.9,-3.3 2.9,-5.7c0,-3.5 -2.2,-5.6 -6.5,-6.1l0,-0.1c1.9,-0.5 3.3,-1.4 4.3,-2.5c1,-1.2 1.5,-2.5 1.5,-4.1c0,-1.9 -0.8,-3.3 -2.3,-4.4c-1.5,-1.1 -3.6,-1.6 -6.3,-1.6c-1.9,0 -3.5,0.2 -4.9,0.6c-1.4,0.4 -2.8,1.1 -4.2,2l2.9,4.7c1.8,-1.1 3.5,-1.7 5.1,-1.7c0.9,0 1.6,0.2 2.1,0.5c0.5,0.3 0.8,0.8 0.8,1.5c0,1.8 -1.8,2.7 -5.3,2.7l-1.6,0l0,5.3l1.6,0c1.3,0 2.4,0.1 3.2,0.3c0.8,0.2 1.4,0.5 1.8,0.9c0.4,0.4 0.5,0.9 0.5,1.6c-0.2,1 -0.5,1.7 -1.2,2.1z" class="st3"/>
       <path stroke="null" id="svg_21" d="m1085.3,566.2c0.9,-0.9 1.6,-1.8 2.1,-2.6c0.5,-0.8 0.9,-1.7 1.2,-2.6c0.3,-0.9 0.4,-1.8 0.4,-2.8c0,-1.4 -0.4,-2.6 -1.1,-3.7c-0.7,-1.1 -1.8,-1.9 -3.1,-2.5c-1.3,-0.6 -2.8,-0.9 -4.5,-0.9c-1.3,0 -2.5,0.1 -3.6,0.4c-1.1,0.3 -2.1,0.7 -3,1.2c-0.9,0.5 -2,1.4 -3.4,2.6l3.9,4.5c1.1,-0.9 2,-1.6 2.8,-2.1c0.8,-0.5 1.7,-0.7 2.5,-0.7c0.8,0 1.4,0.2 1.8,0.6c0.4,0.4 0.7,0.9 0.7,1.6c0,0.5 -0.1,1.1 -0.3,1.6c-0.2,0.5 -0.6,1.1 -1.2,1.8c-0.6,0.7 -1.7,2 -3.6,3.9l-6.3,6.4l0,4.6l18.8,0l0,-5.8l-9.8,0l0,-0.2c3,-2.6 4.8,-4.4 5.7,-5.3z" class="st3"/>
       <path stroke="null" id="svg_22" d="m1016.8,563.7c0,-3.8 -2.6,-5.7 -7.9,-5.7l-6.4,0l0,19.5l5.3,0l0,-7.1l1.3,0l4.1,7.1l6,0l-5.7,-8.5c2.2,-1.3 3.3,-3.1 3.3,-5.3zm-8.1,2.7l-1,0l0,-4.4l1,0c1.8,0 2.7,0.7 2.7,2c0.1,1.5 -0.8,2.4 -2.7,2.4z" class="st3"/>
       <path stroke="null" id="svg_23" d="m1057.9,577.4l7.1,0l0,-26l-6.3,0l-8.9,7.3l3.6,4.5l2.9,-2.4c0.7,-0.6 1.2,-1.1 1.6,-1.7c-0.1,1.4 -0.1,2.9 -0.1,4.6l0,13.7l0.1,0z" class="st3"/>
       <path stroke="null" id="svg_24" d="m257.4,665.3l6.6,0l0,-24.2l-5.9,0l-8.3,6.8l3.4,4.2l2.7,-2.3c0.6,-0.5 1.1,-1.1 1.5,-1.6c-0.1,1.3 -0.1,2.7 -0.1,4.3l0,12.8l0.1,0z" class="st3"/>
       <polygon stroke="null" id="svg_25" points="287.1000061035156,665.2999877929688 287.1000061035156,651.2000122070312 291.5,651.2000122070312 291.5,647.2000122070312 277.70001220703125,647.2000122070312 277.70001220703125,651.2000122070312 282.20001220703125,651.2000122070312 282.20001220703125,665.2999877929688 " class="st3"/>
       <path stroke="null" id="svg_26" d="m308.3,663.2c1.5,-1.6 2.2,-3.9 2.2,-7c0,-3.1 -0.7,-5.4 -2.2,-7c-1.5,-1.6 -3.7,-2.4 -6.6,-2.4c-2.9,0 -5.1,0.8 -6.6,2.4c-1.5,1.6 -2.3,3.9 -2.3,6.9c0,3.1 0.8,5.4 2.3,7c1.5,1.6 3.7,2.4 6.5,2.4c3,0.1 5.2,-0.7 6.7,-2.3zm-10.2,-7c0,-3.5 1.2,-5.3 3.7,-5.3c1.2,0 2.1,0.4 2.7,1.3c0.6,0.9 0.9,2.2 0.9,4c0,1.8 -0.3,3.1 -0.9,4c-0.6,0.8 -1.5,1.3 -2.8,1.3c-2.4,0 -3.6,-1.7 -3.6,-5.3z" class="st3"/>
       <path stroke="null" id="svg_27" d="m329.6,665.3l6.6,0l0,-24.2l-5.9,0l-8.3,6.8l3.4,4.2l2.7,-2.3c0.6,-0.5 1.1,-1.1 1.5,-1.6c-0.1,1.3 -0.1,2.7 -0.1,4.3l0,12.8l0.1,0z" class="st3"/>
       <path stroke="null" id="svg_28" d="m342.7,655.4c-0.7,1 -1,2.2 -1,3.6c0,2.2 0.8,3.8 2.3,5c1.5,1.2 3.7,1.7 6.5,1.7c2.8,0 5,-0.6 6.5,-1.8c1.6,-1.2 2.3,-2.8 2.3,-5c0,-1.2 -0.4,-2.3 -1.1,-3.3c-0.7,-1 -2,-2 -3.8,-3c1.4,-0.7 2.5,-1.6 3.2,-2.5c0.7,-1 1,-2.1 1,-3.4c0,-1.9 -0.7,-3.3 -2.1,-4.4c-1.4,-1 -3.4,-1.5 -5.9,-1.5c-2.5,0 -4.5,0.5 -6,1.5c-1.4,1 -2.2,2.5 -2.2,4.3c0,1.2 0.3,2.3 0.9,3.3c0.6,1 1.5,1.9 2.8,2.8c-1.6,0.8 -2.8,1.7 -3.4,2.7zm6.4,-9.4c0.4,-0.3 0.9,-0.5 1.4,-0.5c0.5,0 1,0.2 1.4,0.5c0.4,0.3 0.6,0.7 0.6,1.3c0,0.5 -0.1,0.9 -0.4,1.3c-0.3,0.4 -0.8,0.8 -1.6,1.2c-1.3,-0.7 -1.9,-1.6 -1.9,-2.5c-0.1,-0.5 0.1,-1 0.5,-1.3zm-0.8,11c0.4,-0.5 1.1,-1 2.1,-1.6c1.1,0.7 1.9,1.2 2.3,1.8c0.4,0.5 0.6,1.1 0.6,1.6c0,1.4 -1,2.1 -2.9,2.1c-0.9,0 -1.5,-0.2 -2,-0.6c-0.5,-0.4 -0.7,-1 -0.7,-1.6c-0.1,-0.6 0.1,-1.1 0.6,-1.7z" class="st3"/>
       <path stroke="null" id="svg_29" d="m463.5,641.2l-7.3,0l-3.4,12.3c-0.2,0.7 -0.4,1.6 -0.6,2.7c-0.2,1.2 -0.4,2.1 -0.5,2.9c-0.1,-1.1 -0.4,-3 -1.1,-5.7l-3.3,-12.3l-7.3,0l7.9,24.2l7.7,0l7.9,-24.1z" class="st3"/>
       <polygon stroke="null" id="svg_30" points="438.29998779296875,646.4000244140625 438.29998779296875,641.2000122070312 424,641.2000122070312 424,665.2999877929688 438.29998779296875,665.2999877929688 438.29998779296875,660 430.5,660 430.5,655.5 437.70001220703125,655.5 437.70001220703125,650.2000122070312 430.5,650.2000122070312 430.5,646.4000244140625 " class="st3"/>
       <path stroke="null" id="svg_31" d="m493.2,641.2l-8.5,0l0,24.2l5.8,0l0,-10.9c0,-1.4 -0.1,-3.5 -0.3,-6.1l0.1,0l8.8,17l8.6,0l0,-24.2l-5.8,0l0,10.9c0,1.5 0.1,3.4 0.2,5.9l-0.1,0l-8.8,-16.8z" class="st3"/>
       <polygon stroke="null" id="svg_32" points="480.3999938964844,646.4000244140625 480.3999938964844,641.2000122070312 466.1000061035156,641.2000122070312 466.1000061035156,665.2999877929688 480.3999938964844,665.2999877929688 480.3999938964844,660 472.6000061035156,660 472.6000061035156,655.5 479.79998779296875,655.5 479.79998779296875,650.2000122070312 472.6000061035156,650.2000122070312 472.6000061035156,646.4000244140625 " class="st3"/>
       <path stroke="null" id="svg_33" d="m933.5,662.5c2,-2.1 3,-5.2 3,-9.3c0,-4.1 -1,-7.2 -3,-9.3c-2,-2.1 -4.9,-3.2 -8.8,-3.2c-3.8,0 -6.8,1.1 -8.8,3.2c-2,2.1 -3,5.2 -3,9.2c0,4.1 1,7.2 3,9.3c2,2.1 4.9,3.2 8.7,3.2c3.9,0.1 6.9,-1 8.9,-3.1zm-13.7,-9.3c0,-4.7 1.6,-7.1 4.9,-7.1c1.6,0 2.8,0.6 3.6,1.7c0.8,1.2 1.2,2.9 1.2,5.4c0,2.4 -0.4,4.2 -1.2,5.3c-0.8,1.1 -2,1.7 -3.7,1.7c-3.2,0 -4.8,-2.3 -4.8,-7z" class="st3"/>
       <path stroke="null" id="svg_34" d="m961.3,652.8c0,-3.7 -1.1,-6.6 -3.2,-8.6c-2.1,-2 -5.1,-3 -9,-3l-8.4,0l0,24.2l7.8,0c4,0 7.1,-1.1 9.4,-3.3c2.3,-2.2 3.4,-5.3 3.4,-9.3zm-8.1,5.5c-0.9,1.2 -2.4,1.7 -4.4,1.7l-1.5,0l0,-13.6l1.9,0c1.8,0 3.1,0.5 4,1.6c0.9,1.1 1.3,2.7 1.3,4.9c0.1,2.5 -0.4,4.2 -1.3,5.4z" class="st3"/>
       <path stroke="null" id="svg_35" d="m986.2,652.8c0,-3.7 -1.1,-6.6 -3.2,-8.6c-2.1,-2 -5.1,-3 -9,-3l-8.4,0l0,24.2l7.8,0c4,0 7.1,-1.1 9.4,-3.3c2.3,-2.2 3.4,-5.3 3.4,-9.3zm-8.2,5.5c-0.9,1.2 -2.4,1.7 -4.4,1.7l-1.5,0l0,-13.6l1.9,0c1.8,0 3.1,0.5 4,1.6c0.9,1.1 1.3,2.7 1.3,4.9c0.1,2.5 -0.3,4.2 -1.3,5.4z" class="st3"/>
       <path stroke="null" id="svg_36" d="m1053.7,665.3l6.6,0l0,-24.2l-5.9,0l-8.3,6.8l3.4,4.2l2.7,-2.3c0.6,-0.5 1.1,-1.1 1.5,-1.6c-0.1,1.3 -0.1,2.7 -0.1,4.3l0,12.8l0.1,0z" class="st3"/>
       <path stroke="null" id="svg_37" d="m1075.4,659.2c-1.3,1 -3.1,1.4 -5.4,1.4c-0.9,0 -1.9,-0.1 -2.8,-0.3l0,5.2c0.8,0.1 1.9,0.2 3.4,0.2c4.5,0 7.8,-1.1 9.8,-3.2c2,-2.1 3.1,-5.5 3.1,-10.3c0,-3.6 -0.8,-6.4 -2.4,-8.4c-1.6,-2 -3.9,-2.9 -6.9,-2.9c-2.7,0 -4.7,0.8 -6.3,2.3c-1.5,1.5 -2.3,3.6 -2.3,6.3c0,2.5 0.6,4.4 1.8,5.8c1.2,1.4 2.8,2.1 4.9,2.1c0.9,0 1.7,-0.1 2.3,-0.3c0.6,-0.2 1.1,-0.5 1.5,-0.8c0.4,-0.4 0.8,-0.9 1.3,-1.7l0.2,0c-0.3,2.1 -1,3.6 -2.2,4.6zm0.6,-7.6c-0.5,0.5 -1.2,0.8 -1.9,0.8c-0.8,0 -1.4,-0.3 -1.8,-0.8c-0.4,-0.5 -0.6,-1.3 -0.6,-2.2c0,-1.1 0.2,-2 0.7,-2.5c0.4,-0.5 1,-0.8 1.7,-0.8c0.8,0 1.4,0.3 1.9,1.1c0.5,0.7 0.7,1.6 0.7,2.5c0.1,0.7 -0.1,1.4 -0.7,1.9z" class="st3"/>
       <polygon stroke="null" id="svg_38" points="1103.199951171875,665.2999877929688 1103.199951171875,651.2000122070312 1107.699951171875,651.2000122070312 1107.699951171875,647.2000122070312 1093.9000244140625,647.2000122070312 1093.9000244140625,651.2000122070312 1098.300048828125,651.2000122070312 1098.300048828125,665.2999877929688 " class="st3"/>
       <path stroke="null" id="svg_39" d="m1170.4,645.9c1.3,0 2.5,0.1 3.6,0.3l0,-5.1c-1.3,-0.2 -2.5,-0.3 -3.4,-0.3c-2.8,0 -5.1,0.5 -7,1.5c-1.9,1 -3.3,2.5 -4.3,4.6c-1,2.1 -1.4,4.8 -1.4,8.2c0,3.3 0.8,5.9 2.4,7.8c1.6,1.9 3.8,2.8 6.7,2.8c2.7,0 4.8,-0.8 6.3,-2.3c1.5,-1.5 2.3,-3.6 2.3,-6.3c0,-2.5 -0.6,-4.4 -1.8,-5.8c-1.2,-1.4 -2.9,-2.1 -5,-2.1c-2.2,0 -3.8,0.9 -4.8,2.8l-0.2,0c0.1,-2.2 0.7,-3.7 1.8,-4.7c1,-0.9 2.6,-1.4 4.8,-1.4zm-5.4,9.1c0.5,-0.5 1.1,-0.8 1.8,-0.8c1.5,0 2.3,1 2.3,2.9c0,1.1 -0.2,2 -0.6,2.5c-0.4,0.5 -1,0.8 -1.7,0.8c-0.7,0 -1.3,-0.3 -1.8,-1c-0.4,-0.7 -0.7,-1.5 -0.7,-2.6c0,-0.6 0.3,-1.3 0.7,-1.8z" class="st3"/>
       <path stroke="null" id="svg_40" d="m1124.5,663.2c1.5,-1.6 2.2,-3.9 2.2,-7c0,-3.1 -0.7,-5.4 -2.2,-7c-1.5,-1.6 -3.7,-2.4 -6.6,-2.4c-2.9,0 -5.1,0.8 -6.6,2.4c-1.5,1.6 -2.3,3.9 -2.3,6.9c0,3.1 0.8,5.4 2.3,7c1.5,1.6 3.7,2.4 6.5,2.4c3,0.1 5.2,-0.7 6.7,-2.3zm-10.3,-7c0,-3.5 1.2,-5.3 3.7,-5.3c1.2,0 2.1,0.4 2.7,1.3c0.6,0.9 0.9,2.2 0.9,4c0,1.8 -0.3,3.1 -0.9,4c-0.6,0.8 -1.5,1.3 -2.8,1.3c-2.4,0 -3.6,-1.7 -3.6,-5.3z" class="st3"/>
       <path stroke="null" id="svg_41" d="m1147.4,659.9c-0.7,0.4 -1.7,0.6 -3.1,0.6c-0.9,0 -1.9,-0.1 -3,-0.4c-1.1,-0.3 -2.2,-0.7 -3.2,-1.2l0,5.4c1.3,0.5 2.5,0.8 3.6,1c1.1,0.2 2.3,0.3 3.6,0.3c3.2,0 5.6,-0.6 7.4,-1.9c1.8,-1.3 2.7,-3.1 2.7,-5.3c0,-3.3 -2,-5.2 -6.1,-5.7l0,-0.1c1.7,-0.5 3.1,-1.3 4,-2.3c0.9,-1.1 1.4,-2.4 1.4,-3.9c0,-1.7 -0.7,-3.1 -2.1,-4.1c-1.4,-1 -3.4,-1.5 -5.9,-1.5c-1.7,0 -3.3,0.2 -4.6,0.6c-1.3,0.4 -2.6,1 -3.9,1.9l2.7,4.4c1.7,-1 3.3,-1.6 4.8,-1.6c0.8,0 1.5,0.2 2,0.5c0.5,0.3 0.7,0.8 0.7,1.4c0,1.7 -1.7,2.6 -5,2.6l-1.5,0l0,4.9l1.5,0c1.2,0 2.2,0.1 3,0.3c0.8,0.2 1.3,0.5 1.7,0.8c0.3,0.4 0.5,0.9 0.5,1.5c-0.2,0.8 -0.6,1.4 -1.2,1.8z" class="st3"/>
       <text stroke="null" font-weight="bold" xml:space="preserve" text-anchor="start" font-family="Oswald, sans-serif" font-size="35" id="svg_251" y="303" x="1206" stroke-opacity="0" stroke-width="0" fill="#ffffff">3rd</text>
       <text stroke="null" font-weight="bold" xml:space="preserve" text-anchor="start" font-family="Oswald, sans-serif" font-size="35" id="svg_252" y="394" x="1201" stroke-opacity="0" stroke-width="0" fill="#ffffff">2nd</text>
       <text stroke="null" font-weight="bold" xml:space="preserve" text-anchor="start" font-family="Oswald, sans-serif" font-size="35" id="svg_253" y="486" x="1205" stroke-opacity="0" stroke-width="0" fill="#ffffff">1st</text>
      </g>
      <g stroke="null" id="svg_54">
       <g stroke="null" id="svg_55">
        <circle stroke="null" id="svg_56" r="34.599998" cy="474" cx="264.3" class="st1"/>
        <circle stroke="null" id="svg_57" r="34.599998" cy="381.8" cx="264.3" class="st2"/>
        <circle stroke="null" id="svg_58" r="34.599998" cy="289.7" cx="264.3" class="st1"/>
       </g>
       <g stroke="null" id="svg_59">
        <circle stroke="null" id="svg_60" r="34.599998" cy="474" cx="344.9" class="st2"/>
        <circle stroke="null" id="svg_61" r="34.599998" cy="381.8" cx="344.9" class="st1"/>
        <circle stroke="null" id="svg_62" r="34.599998" cy="289.7" cx="344.9" class="st2"/>
       </g>
       <g stroke="null" id="svg_63">
        <circle stroke="null" id="svg_64" r="34.599998" cy="474" cx="425.5" class="st1"/>
        <circle stroke="null" id="svg_65" r="34.599998" cy="381.8" cx="425.5" class="st2"/>
        <circle stroke="null" id="svg_66" r="34.599998" cy="289.7" cx="425.5" class="st1"/>
       </g>
       <g stroke="null" id="svg_67">
        <circle stroke="null" id="svg_68" r="34.599998" cy="474" cx="506.1" class="st2"/>
        <circle stroke="null" id="svg_69" r="34.599998" cy="381.8" cx="506.1" class="st1"/>
        <circle stroke="null" id="svg_70" r="34.599998" cy="289.7" cx="506.1" class="st2"/>
       </g>
       <g stroke="null" id="svg_71">
        <circle stroke="null" id="svg_72" r="34.599998" cy="474" cx="586.8" class="st1"/>
        <circle stroke="null" id="svg_73" r="34.599998" cy="381.8" cx="586.8" class="st2"/>
        <circle stroke="null" id="svg_74" r="34.599998" cy="289.7" cx="586.8" class="st1"/>
       </g>
       <g stroke="null" id="svg_75">
        <circle stroke="null" id="svg_76" r="34.599998" cy="474" cx="667.4" class="st2"/>
        <circle stroke="null" id="svg_77" r="34.599998" cy="381.8" cx="667.4" class="st1"/>
        <circle stroke="null" id="svg_78" r="34.599998" cy="289.7" cx="667.4" class="st2"/>
       </g>
       <g stroke="null" id="svg_79">
        <circle stroke="null" id="svg_80" r="34.599998" cy="474" cx="748" class="st1"/>
        <circle stroke="null" id="svg_81" r="34.599998" cy="381.8" cx="748" class="st2"/>
        <circle stroke="null" id="svg_82" r="34.599998" cy="289.7" cx="748" class="st1"/>
       </g>
       <g stroke="null" id="svg_83">
        <circle stroke="null" id="svg_84" r="34.599998" cy="474" cx="828.6" class="st2"/>
        <circle stroke="null" id="svg_85" r="34.599998" cy="381.8" cx="828.6" class="st1"/>
        <circle stroke="null" id="svg_86" r="34.599998" cy="289.7" cx="828.6" class="st2"/>
       </g>
       <g stroke="null" id="svg_87">
        <circle stroke="null" id="svg_88" r="34.599998" cy="474" cx="909.3" class="st1"/>
        <circle stroke="null" id="svg_89" r="34.599998" cy="381.8" cx="909.3" class="st2"/>
        <circle stroke="null" id="svg_90" r="34.599998" cy="289.7" cx="909.3" class="st1"/>
       </g>
       <g stroke="null" id="svg_91">
        <circle stroke="null" id="svg_92" r="34.599998" cy="474" cx="989.9" class="st2"/>
        <circle stroke="null" id="svg_93" r="34.599998" cy="381.8" cx="989.9" class="st1"/>
        <circle stroke="null" id="svg_94" r="34.599998" cy="289.7" cx="989.9" class="st2"/>
       </g>
       <g stroke="null" id="svg_95">
        <circle stroke="null" id="svg_96" r="34.599998" cy="474" cx="1070.5" class="st1"/>
        <circle stroke="null" id="svg_97" r="34.599998" cy="381.8" cx="1070.5" class="st2"/>
        <circle stroke="null" id="svg_98" r="34.599998" cy="289.7" cx="1070.5" class="st1"/>
       </g>
       <g stroke="null" id="svg_99">
        <circle stroke="null" id="svg_100" r="34.599998" cy="474" cx="1151.1" class="st2"/>
        <circle stroke="null" id="svg_101" r="34.599998" cy="381.8" cx="1151.1" class="st1"/>
        <circle stroke="null" id="svg_102" r="34.599998" cy="289.7" cx="1151.1" class="st2"/>
       </g>
      </g>
     </g>
     <g stroke="null" id="svg_103">
      <path stroke="null" id="svg_105" d="m260.5,487.9l7.7,0l0,-28l-6.8,0l-9.6,7.8l3.9,4.8l3.2,-2.6c0.7,-0.6 1.3,-1.2 1.8,-1.8c-0.1,1.5 -0.1,3.1 -0.1,4.9l0,14.9l-0.1,0z" class="st4"/>
      <path stroke="null" id="svg_106" d="m270.1,383.9c1,-1 1.7,-1.9 2.3,-2.8c0.6,-0.9 1,-1.8 1.3,-2.8c0.3,-0.9 0.4,-1.9 0.4,-3c0,-1.5 -0.4,-2.8 -1.2,-4c-0.8,-1.2 -1.9,-2.1 -3.3,-2.7c-1.4,-0.6 -3,-1 -4.8,-1c-1.4,0 -2.7,0.1 -3.9,0.4c-1.1,0.3 -2.2,0.7 -3.2,1.3c-1,0.6 -2.2,1.5 -3.6,2.8l4.2,4.9c1.1,-1 2.2,-1.7 3.1,-2.2c0.9,-0.5 1.8,-0.8 2.7,-0.8c0.9,0 1.5,0.2 2,0.6c0.5,0.4 0.7,1 0.7,1.7c0,0.6 -0.1,1.1 -0.4,1.7c-0.2,0.5 -0.7,1.2 -1.3,1.9c-0.6,0.7 -1.9,2.1 -3.8,4.2l-6.8,6.9l0,5l20.3,0l0,-6.2l-10.8,0l0,-0.2c3.1,-2.8 5.1,-4.7 6.1,-5.7z" class="st4"/>
      <path stroke="null" id="svg_107" d="m265.1,297.5c-0.8,0.5 -2,0.7 -3.6,0.7c-1.1,0 -2.2,-0.2 -3.5,-0.5c-1.3,-0.3 -2.5,-0.8 -3.7,-1.4l0,6.3c1.5,0.6 2.9,1 4.2,1.2c1.3,0.2 2.7,0.3 4.2,0.3c3.7,0 6.5,-0.7 8.6,-2.2c2.1,-1.5 3.1,-3.5 3.1,-6.1c0,-3.8 -2.3,-6 -7,-6.6l0,-0.2c2,-0.6 3.5,-1.5 4.6,-2.7c1.1,-1.2 1.6,-2.7 1.6,-4.5c0,-2 -0.8,-3.6 -2.5,-4.7c-1.6,-1.2 -3.9,-1.7 -6.8,-1.7c-2,0 -3.8,0.2 -5.3,0.6c-1.5,0.4 -3.1,1.2 -4.5,2.2l3.1,5c1.9,-1.2 3.8,-1.8 5.5,-1.8c1,0 1.7,0.2 2.3,0.5c0.6,0.4 0.9,0.9 0.9,1.6c0,2 -1.9,3 -5.8,3l-1.8,0l0,5.7l1.7,0c1.4,0 2.6,0.1 3.4,0.3c0.9,0.2 1.5,0.5 1.9,0.9c0.4,0.4 0.6,1 0.6,1.8c0,1.1 -0.4,1.8 -1.2,2.3z" class="st4"/>
      <path stroke="null" id="svg_108" d="m345.7,460l-11.7,17l0,5.5l11.2,0l0,5.4l7.5,0l0,-5.4l3.1,0l0,-5.6l-3.1,0l0,-16.9l-7,0zm-0.4,11.1c0,1 -0.1,1.9 -0.1,2.5l0,3.3l-4.6,0l3.1,-4.6c0.5,-0.9 1,-1.8 1.5,-2.8l0.2,0c-0.1,0.1 -0.1,0.6 -0.1,1.6z" class="st4"/>
      <path stroke="null" id="svg_109" d="m342.6,390.1c-1,0 -2.2,-0.2 -3.6,-0.5c-1.4,-0.3 -2.7,-0.8 -3.8,-1.3l0,6.2c2.1,1 4.7,1.5 8,1.5c3.8,0 6.7,-0.8 8.5,-2.5c1.9,-1.7 2.8,-4.1 2.8,-7.2c0,-1.8 -0.4,-3.4 -1.1,-4.7c-0.7,-1.4 -1.7,-2.4 -3,-3.2c-1.3,-0.8 -2.7,-1.1 -4.4,-1.1c-0.4,0 -0.7,0 -1.2,0c-0.4,0 -1.1,0.1 -2.1,0.3l0.3,-3.7l9.5,0l0,-6.3l-16,0l-1.1,14.8l2.8,1.4c1.4,-0.4 2.7,-0.7 3.8,-0.7c1.6,0 2.7,0.3 3.5,0.9c0.8,0.6 1.2,1.4 1.2,2.5c0,1.2 -0.4,2 -1.1,2.6c-0.6,0.7 -1.6,1 -3,1z" class="st4"/>
      <path stroke="null" id="svg_110" d="m349.2,281.2c1.5,0 2.9,0.1 4.2,0.4l0,-5.9c-1.5,-0.2 -2.9,-0.3 -4,-0.3c-3.2,0 -5.9,0.6 -8,1.7c-2.2,1.1 -3.8,2.9 -4.9,5.4c-1.1,2.4 -1.7,5.6 -1.7,9.5c0,3.8 0.9,6.9 2.8,9c1.9,2.1 4.4,3.2 7.8,3.2c3.1,0 5.5,-0.9 7.3,-2.7c1.7,-1.8 2.6,-4.2 2.6,-7.3c0,-2.9 -0.7,-5.1 -2.1,-6.7c-1.4,-1.6 -3.3,-2.4 -5.8,-2.4c-2.5,0 -4.4,1.1 -5.5,3.3l-0.2,0c0.1,-2.5 0.8,-4.3 2,-5.4c1.1,-1.2 2.9,-1.8 5.5,-1.8zm-6.2,10.6c0.5,-0.6 1.2,-0.9 2.1,-0.9c1.8,0 2.6,1.1 2.6,3.4c0,1.3 -0.3,2.3 -0.8,2.9c-0.5,0.6 -1.2,0.9 -2,0.9c-0.9,0 -1.5,-0.4 -2.1,-1.2c-0.5,-0.8 -0.8,-1.8 -0.8,-3c0.2,-0.8 0.5,-1.5 1,-2.1z" class="st4"/>
      <polygon stroke="null" id="svg_111" points="425.70001220703125,487.8999938964844 435.6000061035156,464.3999938964844 435.6000061035156,460 415.3999938964844,460 415.3999938964844,466.20001220703125 427.5,466.20001220703125 417.8999938964844,487.8999938964844 " class="st4"/>
      <path stroke="null" id="svg_112" d="m416.5,384.3c-0.8,1.1 -1.2,2.5 -1.2,4.1c0,2.5 0.9,4.4 2.6,5.8c1.7,1.3 4.3,2 7.6,2c3.2,0 5.7,-0.7 7.5,-2.1c1.8,-1.4 2.7,-3.3 2.7,-5.8c0,-1.4 -0.4,-2.6 -1.3,-3.8c-0.9,-1.2 -2.3,-2.3 -4.4,-3.5c1.7,-0.8 2.9,-1.8 3.7,-2.9c0.8,-1.1 1.2,-2.4 1.2,-3.9c0,-2.2 -0.8,-3.9 -2.5,-5.1c-1.6,-1.2 -3.9,-1.8 -6.9,-1.8c-2.9,0 -5.3,0.6 -6.9,1.8c-1.7,1.2 -2.5,2.9 -2.5,5c0,1.4 0.3,2.6 1,3.8c0.7,1.1 1.8,2.2 3.2,3.2c-1.8,1.1 -3.1,2.1 -3.8,3.2zm7.4,-10.8c0.4,-0.4 1,-0.6 1.6,-0.6c0.6,0 1.2,0.2 1.6,0.6c0.4,0.4 0.7,0.9 0.7,1.5c0,0.5 -0.2,1 -0.5,1.5c-0.3,0.4 -0.9,0.9 -1.9,1.4c-1.5,-0.8 -2.2,-1.8 -2.2,-2.9c0,-0.7 0.2,-1.1 0.7,-1.5zm-0.9,12.7c0.5,-0.6 1.3,-1.2 2.4,-1.8c1.3,0.8 2.1,1.4 2.6,2c0.5,0.6 0.7,1.2 0.7,1.8c0,1.6 -1.1,2.5 -3.4,2.5c-1,0 -1.8,-0.2 -2.3,-0.7c-0.6,-0.5 -0.8,-1.1 -0.8,-1.9c0,-0.6 0.3,-1.2 0.8,-1.9z" class="st4"/>
      <path stroke="null" id="svg_113" d="m426.6,296.5c-1.5,1.1 -3.6,1.7 -6.3,1.7c-1.1,0 -2.2,-0.1 -3.3,-0.3l0,6c0.9,0.1 2.2,0.2 3.9,0.2c5.2,0 9,-1.2 11.3,-3.7c2.4,-2.4 3.5,-6.4 3.5,-11.9c0,-4.2 -0.9,-7.4 -2.8,-9.7c-1.9,-2.3 -4.5,-3.4 -7.9,-3.4c-3.1,0 -5.5,0.9 -7.3,2.6c-1.8,1.8 -2.7,4.2 -2.7,7.3c0,2.8 0.7,5.1 2.1,6.7c1.4,1.6 3.3,2.4 5.7,2.4c1,0 1.9,-0.1 2.6,-0.3c0.7,-0.2 1.3,-0.5 1.8,-0.9c0.5,-0.4 1,-1.1 1.5,-2l0.2,0c0,2.4 -0.8,4.2 -2.3,5.3zm0.8,-8.7c-0.6,0.6 -1.3,0.9 -2.2,0.9c-0.9,0 -1.6,-0.3 -2.1,-0.9c-0.4,-0.6 -0.7,-1.5 -0.7,-2.5c0,-1.3 0.3,-2.3 0.8,-2.9c0.5,-0.6 1.2,-0.9 2,-0.9c0.9,0 1.6,0.4 2.2,1.2c0.6,0.8 0.8,1.8 0.8,2.9c0.1,0.8 -0.2,1.6 -0.8,2.2z" class="st4"/>
      <path stroke="null" id="svg_114" d="m493.4,487.9l7.7,0l0,-28l-6.8,0l-9.6,7.8l3.9,4.8l3.2,-2.6c0.7,-0.6 1.3,-1.2 1.8,-1.8c-0.1,1.5 -0.1,3.1 -0.1,4.9l0,14.9l-0.1,0z" class="st4"/>
      <path stroke="null" id="svg_115" d="m517.5,488.3c3.4,0 6,-1.2 7.6,-3.5c1.7,-2.3 2.5,-5.9 2.5,-10.9c0,-4.8 -0.9,-8.4 -2.6,-10.8c-1.7,-2.4 -4.2,-3.6 -7.6,-3.6c-3.4,0 -6,1.2 -7.6,3.5c-1.7,2.3 -2.5,6 -2.5,11c0,4.8 0.9,8.3 2.5,10.7c1.8,2.4 4.4,3.6 7.7,3.6zm-2,-20.9c0.4,-1.2 1.1,-1.8 2,-1.8c0.9,0 1.6,0.6 2,1.9c0.4,1.2 0.6,3.4 0.6,6.5c0,3.1 -0.2,5.2 -0.6,6.5c-0.4,1.2 -1.1,1.8 -2,1.8c-0.9,0 -1.6,-0.6 -2,-1.8c-0.4,-1.2 -0.6,-3.4 -0.6,-6.5c0,-3.2 0.2,-5.4 0.6,-6.6z" class="st4"/>
      <path stroke="null" id="svg_116" d="m495.2,395.8l7.7,0l0,-28l-6.9,0l-9.6,7.8l3.9,4.8l3.2,-2.6c0.7,-0.6 1.3,-1.2 1.8,-1.8c-0.1,1.5 -0.1,3.1 -0.1,4.9l0,14.9z" class="st4"/>
      <path stroke="null" id="svg_117" d="m518.2,395.8l7.7,0l0,-28l-6.9,0l-9.6,7.8l3.9,4.8l3.2,-2.6c0.7,-0.6 1.3,-1.2 1.8,-1.8c-0.1,1.5 -0.1,3.1 -0.1,4.9l0,14.9z" class="st4"/>
      <path stroke="null" id="svg_118" d="m523,291.8c1,-1 1.7,-1.9 2.3,-2.8c0.6,-0.9 1,-1.8 1.3,-2.8c0.3,-0.9 0.4,-1.9 0.4,-3c0,-1.5 -0.4,-2.8 -1.2,-4c-0.8,-1.2 -1.9,-2.1 -3.3,-2.7c-1.4,-0.6 -3,-1 -4.8,-1c-1.4,0 -2.7,0.1 -3.9,0.4c-1.1,0.3 -2.2,0.7 -3.2,1.3c-1,0.6 -2.2,1.5 -3.6,2.8l4.2,4.9c1.1,-1 2.1,-1.7 3,-2.2c0.9,-0.5 1.8,-0.8 2.7,-0.8c0.9,0 1.5,0.2 2,0.6c0.5,0.4 0.7,1 0.7,1.7c0,0.6 -0.1,1.1 -0.4,1.7c-0.2,0.5 -0.7,1.2 -1.3,1.9c-0.6,0.7 -1.9,2.1 -3.8,4.2l-6.8,6.9l0,5l20.3,0l0,-6.2l-10.6,0l0,-0.2c3.1,-2.8 5.1,-4.7 6,-5.7z" class="st4"/>
      <path stroke="null" id="svg_119" d="m493.5,303.9l7.7,0l0,-28l-6.8,0l-9.6,7.8l3.9,4.8l3.2,-2.6c0.7,-0.6 1.3,-1.2 1.8,-1.8c-0.1,1.5 -0.1,3.1 -0.1,4.9l0,14.9l-0.1,0z" class="st4"/>
      <path stroke="null" id="svg_120" d="m574.1,487.9l7.7,0l0,-28l-6.8,0l-9.6,7.8l3.9,4.8l3.2,-2.6c0.7,-0.6 1.3,-1.2 1.8,-1.8c-0.1,1.5 -0.1,3.1 -0.1,4.9l0,14.9l-0.1,0z" class="st4"/>
      <path stroke="null" id="svg_121" d="m599,481.7c-0.8,0.5 -2,0.7 -3.6,0.7c-1.1,0 -2.2,-0.2 -3.5,-0.5c-1.3,-0.3 -2.5,-0.8 -3.7,-1.4l0,6.3c1.5,0.6 2.9,1 4.2,1.2c1.3,0.2 2.7,0.3 4.2,0.3c3.7,0 6.5,-0.7 8.6,-2.2c2.1,-1.5 3.1,-3.5 3.1,-6.1c0,-3.8 -2.3,-6 -7,-6.6l0,-0.1c2,-0.6 3.5,-1.5 4.6,-2.7c1.1,-1.2 1.6,-2.7 1.6,-4.5c0,-2 -0.8,-3.6 -2.5,-4.7c-1.6,-1.2 -3.9,-1.7 -6.8,-1.7c-2,0 -3.8,0.2 -5.3,0.6c-1.5,0.4 -3.1,1.2 -4.5,2.2l3.1,5c1.9,-1.2 3.8,-1.8 5.5,-1.8c1,0 1.7,0.2 2.3,0.5c0.6,0.4 0.9,0.9 0.9,1.6c0,2 -1.9,3 -5.8,3l-1.8,0l0,5.7l1.7,0c1.4,0 2.6,0.1 3.4,0.3c0.9,0.2 1.5,0.5 1.9,0.9c0.4,0.4 0.6,1 0.6,1.8c-0.1,1 -0.5,1.7 -1.2,2.2z" class="st4"/>
      <path stroke="null" id="svg_122" d="m573.6,395.8l7.7,0l0,-28l-6.8,0l-9.6,7.8l3.9,4.8l3.2,-2.6c0.7,-0.6 1.3,-1.2 1.8,-1.8c-0.1,1.5 -0.1,3.1 -0.1,4.9l0,14.9l-0.1,0z" class="st4"/>
      <path stroke="null" id="svg_123" d="m598.6,367.9l-11.6,17l0,5.5l11.2,0l0,5.4l7.5,0l0,-5.4l3.1,0l0,-5.6l-3.1,0l0,-16.9l-7.1,0zm-0.5,11.1c0,1 -0.1,1.9 -0.1,2.5l0,3.3l-4.6,0l3.1,-4.6c0.5,-0.9 1,-1.8 1.5,-2.8l0.2,0c0,0.1 0,0.6 -0.1,1.6z" class="st4"/>
      <path stroke="null" id="svg_124" d="m574.2,303.5l7.7,0l0,-28l-6.8,0l-9.6,7.8l3.9,4.8l3.2,-2.6c0.7,-0.6 1.3,-1.2 1.8,-1.8c-0.1,1.5 -0.1,3.1 -0.1,4.9l0,14.9l-0.1,0z" class="st4"/>
      <path stroke="null" id="svg_125" d="m596,298c-1,0 -2.2,-0.2 -3.6,-0.5c-1.4,-0.3 -2.7,-0.8 -3.8,-1.3l0,6.2c2.1,1 4.7,1.5 8,1.5c3.8,0 6.7,-0.8 8.5,-2.5c1.9,-1.7 2.8,-4.1 2.8,-7.2c0,-1.8 -0.4,-3.4 -1.1,-4.7c-0.7,-1.4 -1.7,-2.4 -3,-3.2c-1.3,-0.8 -2.7,-1.1 -4.4,-1.1c-0.4,0 -0.7,0 -1.2,0c-0.4,0 -1.1,0.1 -2.1,0.3l0.3,-3.7l9.5,0l0,-6.3l-16,0l-1.1,14.8l2.8,1.4c1.4,-0.4 2.7,-0.7 3.8,-0.7c1.6,0 2.7,0.3 3.5,0.9c0.8,0.6 1.1,1.4 1.1,2.5c0,1.2 -0.4,2 -1.1,2.6c-0.4,0.7 -1.5,1 -2.9,1z" class="st4"/>
      <path stroke="null" id="svg_126" d="m654.6,487.9l7.7,0l0,-28l-6.8,0l-9.6,7.8l3.9,4.8l3.2,-2.6c0.7,-0.6 1.3,-1.2 1.8,-1.8c-0.1,1.5 -0.1,3.1 -0.1,4.9l0,14.9l-0.1,0z" class="st4"/>
      <path stroke="null" id="svg_127" d="m683,465.4c1.5,0 2.9,0.1 4.2,0.4l0,-5.9c-1.5,-0.2 -2.9,-0.3 -4,-0.3c-3.2,0 -5.9,0.6 -8,1.7c-2.2,1.1 -3.8,2.9 -4.9,5.4c-1.1,2.4 -1.7,5.6 -1.7,9.5c0,3.8 0.9,6.9 2.8,9c1.9,2.1 4.4,3.2 7.8,3.2c3.1,0 5.5,-0.9 7.3,-2.7c1.7,-1.8 2.6,-4.2 2.6,-7.3c0,-2.9 -0.7,-5.1 -2.1,-6.7c-1.4,-1.6 -3.3,-2.4 -5.8,-2.4c-2.5,0 -4.4,1.1 -5.5,3.3l-0.2,0c0.1,-2.5 0.8,-4.3 2,-5.4c1.1,-1.2 3,-1.8 5.5,-1.8zm-6.1,10.6c0.5,-0.6 1.2,-0.9 2.1,-0.9c1.8,0 2.6,1.1 2.6,3.4c0,1.3 -0.3,2.3 -0.8,2.9c-0.5,0.6 -1.2,0.9 -2,0.9c-0.9,0 -1.5,-0.4 -2.1,-1.2c-0.5,-0.8 -0.8,-1.8 -0.8,-3c0.1,-0.8 0.4,-1.5 1,-2.1z" class="st4"/>
      <path stroke="null" id="svg_128" d="m654.6,395.8l7.7,0l0,-28l-6.8,0l-9.6,7.8l3.9,4.8l3.2,-2.6c0.7,-0.6 1.3,-1.2 1.8,-1.8c-0.1,1.5 -0.1,3.1 -0.1,4.9l0,14.9l-0.1,0z" class="st4"/>
      <polygon stroke="null" id="svg_129" points="679.0999755859375,395.79998779296875 688.9000244140625,372.3999938964844 688.9000244140625,367.8999938964844 668.7000122070312,367.8999938964844 668.7000122070312,374.20001220703125 680.7999877929688,374.20001220703125 671.2000122070312,395.79998779296875 " class="st4"/>
      <path stroke="null" id="svg_130" d="m654.6,303.7l7.7,0l0,-28l-6.8,0l-9.6,7.8l3.9,4.8l3.2,-2.6c0.7,-0.6 1.3,-1.2 1.8,-1.8c-0.1,1.5 -0.1,3.1 -0.1,4.9l0,14.9l-0.1,0z" class="st4"/>
      <path stroke="null" id="svg_131" d="m669.7,292.2c-0.8,1.1 -1.2,2.5 -1.2,4.1c0,2.5 0.9,4.4 2.6,5.8c1.7,1.3 4.3,2 7.6,2c3.2,0 5.7,-0.7 7.5,-2.1c1.8,-1.4 2.7,-3.3 2.7,-5.8c0,-1.4 -0.4,-2.6 -1.3,-3.8c-0.9,-1.2 -2.3,-2.3 -4.4,-3.5c1.7,-0.8 2.9,-1.8 3.7,-2.9c0.8,-1.1 1.2,-2.4 1.2,-3.9c0,-2.2 -0.8,-3.9 -2.5,-5.1c-1.6,-1.2 -3.9,-1.8 -6.9,-1.8c-2.9,0 -5.3,0.6 -6.9,1.8c-1.7,1.2 -2.5,2.9 -2.5,5c0,1.4 0.3,2.6 1,3.8c0.7,1.1 1.8,2.2 3.2,3.2c-1.7,1.1 -3.1,2.1 -3.8,3.2zm7.4,-10.8c0.4,-0.4 1,-0.6 1.6,-0.6c0.6,0 1.2,0.2 1.6,0.6c0.4,0.4 0.7,0.9 0.7,1.5c0,0.5 -0.2,1 -0.5,1.5c-0.3,0.4 -0.9,0.9 -1.9,1.4c-1.5,-0.8 -2.2,-1.8 -2.2,-2.9c0,-0.7 0.2,-1.2 0.7,-1.5zm-0.9,12.7c0.5,-0.6 1.3,-1.2 2.4,-1.8c1.3,0.8 2.1,1.4 2.6,2c0.5,0.6 0.7,1.2 0.7,1.8c0,1.6 -1.1,2.5 -3.4,2.5c-1,0 -1.8,-0.2 -2.3,-0.7c-0.6,-0.5 -0.8,-1.1 -0.8,-1.9c0,-0.6 0.3,-1.2 0.8,-1.9z" class="st4"/>
      <path stroke="null" id="svg_132" d="m735.2,487.9l7.7,0l0,-28l-6.8,0l-9.6,7.8l3.9,4.8l3.2,-2.6c0.7,-0.6 1.3,-1.2 1.8,-1.8c-0.1,1.5 -0.1,3.1 -0.1,4.9l0,14.9l-0.1,0z" class="st4"/>
      <path stroke="null" id="svg_133" d="m760.3,480.7c-1.5,1.1 -3.6,1.7 -6.3,1.7c-1.1,0 -2.2,-0.1 -3.3,-0.3l0,6c0.9,0.1 2.2,0.2 3.9,0.2c5.2,0 9,-1.2 11.3,-3.7c2.4,-2.4 3.5,-6.4 3.5,-11.9c0,-4.2 -0.9,-7.4 -2.8,-9.7c-1.9,-2.3 -4.5,-3.4 -7.9,-3.4c-3.1,0 -5.5,0.9 -7.3,2.6c-1.8,1.8 -2.7,4.2 -2.7,7.3c0,2.8 0.7,5.1 2.1,6.7c1.4,1.6 3.3,2.4 5.7,2.4c1,0 1.9,-0.1 2.6,-0.3c0.7,-0.2 1.3,-0.5 1.8,-0.9c0.5,-0.4 1,-1.1 1.5,-2l0.2,0c0,2.4 -0.8,4.2 -2.3,5.3zm0.8,-8.7c-0.6,0.6 -1.3,0.9 -2.2,0.9c-0.9,0 -1.6,-0.3 -2.1,-0.9c-0.4,-0.6 -0.7,-1.5 -0.7,-2.5c0,-1.3 0.3,-2.3 0.8,-2.9c0.5,-0.6 1.2,-0.9 2,-0.9c0.9,0 1.6,0.4 2.2,1.2c0.6,0.8 0.9,1.8 0.9,2.9c0,0.9 -0.3,1.6 -0.9,2.2z" class="st4"/>
      <path stroke="null" id="svg_134" d="m759.8,396.2c3.4,0 6,-1.2 7.6,-3.5c1.7,-2.3 2.5,-5.9 2.5,-10.9c0,-4.8 -0.9,-8.4 -2.6,-10.8c-1.7,-2.4 -4.2,-3.6 -7.6,-3.6c-3.4,0 -6,1.2 -7.6,3.5c-1.7,2.3 -2.5,6 -2.5,11c0,4.8 0.8,8.3 2.6,10.7c1.7,2.4 4.2,3.6 7.6,3.6zm-2,-20.9c0.4,-1.2 1.1,-1.8 2,-1.8c0.9,0 1.6,0.6 2,1.9c0.4,1.2 0.6,3.4 0.6,6.5c0,3.1 -0.2,5.2 -0.6,6.5c-0.4,1.2 -1,1.8 -2,1.8c-0.9,0 -1.6,-0.6 -2,-1.8c-0.4,-1.2 -0.6,-3.4 -0.6,-6.5c0,-3.2 0.2,-5.4 0.6,-6.6z" class="st4"/>
      <path stroke="null" id="svg_135" d="m742.3,383.7c1,-1 1.7,-1.9 2.3,-2.8c0.6,-0.9 1,-1.8 1.3,-2.8c0.3,-0.9 0.4,-1.9 0.4,-3c0,-1.5 -0.4,-2.8 -1.2,-4c-0.8,-1.2 -1.9,-2.1 -3.3,-2.7c-1.4,-0.6 -3,-1 -4.8,-1c-1.4,0 -2.7,0.1 -3.9,0.4c-1.2,0.3 -2.2,0.7 -3.2,1.3c-1,0.6 -2.2,1.5 -3.6,2.8l4.2,4.9c1.1,-1 2.1,-1.7 3.1,-2.2c0.9,-0.5 1.8,-0.8 2.7,-0.8c0.9,0 1.5,0.2 2,0.6c0.5,0.4 0.7,1 0.7,1.7c0,0.6 -0.1,1.2 -0.4,1.7c-0.2,0.5 -0.7,1.2 -1.3,1.9c-0.6,0.7 -1.9,2.1 -3.8,4.2l-6.8,6.9l0,5l20.3,0l0,-6.2l-10.6,0l0,-0.2c2.9,-2.8 4.9,-4.7 5.9,-5.7z" class="st4"/>
      <path stroke="null" id="svg_136" d="m744,291.8c1,-1 1.7,-1.9 2.3,-2.8c0.6,-0.9 1,-1.8 1.3,-2.8c0.3,-0.9 0.4,-1.9 0.4,-3c0,-1.5 -0.4,-2.8 -1.2,-4c-0.8,-1.2 -1.9,-2.1 -3.3,-2.7c-1.4,-0.6 -3,-1 -4.9,-1c-1.4,0 -2.7,0.1 -3.9,0.4c-1.1,0.3 -2.2,0.7 -3.2,1.3c-1,0.6 -2.2,1.5 -3.6,2.8l4.2,4.9c1.1,-1 2.2,-1.7 3.1,-2.2c0.9,-0.5 1.8,-0.8 2.7,-0.8c0.9,0 1.5,0.2 2,0.6c0.5,0.4 0.7,1 0.7,1.7c0,0.6 -0.1,1.1 -0.4,1.7c-0.2,0.5 -0.7,1.2 -1.3,1.9c-0.6,0.7 -1.9,2.1 -3.8,4.2l-6.8,6.9l0,5l20.3,0l0,-6.2l-10.6,0l0,-0.2c3.1,-2.8 5.1,-4.7 6,-5.7z" class="st4"/>
      <path stroke="null" id="svg_137" d="m760.4,303.9l7.7,0l0,-28l-6.8,0l-9.6,7.8l3.9,4.8l3.2,-2.6c0.7,-0.6 1.3,-1.2 1.8,-1.8c-0.1,1.5 -0.1,3.1 -0.1,4.9l0,14.9l-0.1,0z" class="st4"/>
      <path stroke="null" id="svg_138" d="m822.9,476c1,-1 1.7,-1.9 2.3,-2.8c0.6,-0.9 1,-1.8 1.3,-2.8c0.3,-0.9 0.4,-1.9 0.4,-3c0,-1.5 -0.4,-2.8 -1.2,-4c-0.8,-1.2 -1.9,-2.1 -3.3,-2.7c-1.4,-0.6 -3,-1 -4.9,-1c-1.4,0 -2.7,0.1 -3.9,0.4c-1.2,0.3 -2.2,0.7 -3.2,1.3c-1,0.6 -2.2,1.5 -3.6,2.8l4.2,4.9c1.1,-1 2.1,-1.7 3.1,-2.2c0.9,-0.5 1.8,-0.8 2.7,-0.8c0.9,0 1.5,0.2 2,0.6c0.5,0.4 0.7,1 0.7,1.7c0,0.6 -0.1,1.1 -0.4,1.7c-0.2,0.5 -0.7,1.2 -1.3,1.9c-0.6,0.7 -1.9,2.1 -3.8,4.2l-6.8,6.9l0,5l20.3,0l0,-6.2l-10.6,0l0,-0.2c3.1,-2.8 5.1,-4.7 6,-5.7z" class="st4"/>
      <path stroke="null" id="svg_139" d="m845.9,476c1,-1 1.7,-1.9 2.3,-2.8c0.6,-0.9 1,-1.8 1.3,-2.8c0.3,-0.9 0.4,-1.9 0.4,-3c0,-1.5 -0.4,-2.8 -1.2,-4c-0.8,-1.2 -1.9,-2.1 -3.3,-2.7c-1.4,-0.6 -3,-1 -4.9,-1c-1.4,0 -2.7,0.1 -3.9,0.4c-1.2,0.3 -2.2,0.7 -3.2,1.3c-1,0.6 -2.2,1.5 -3.6,2.8l4.2,4.9c1.1,-1 2.1,-1.7 3.1,-2.2c0.9,-0.5 1.8,-0.8 2.7,-0.8c0.9,0 1.5,0.2 2,0.6c0.5,0.4 0.7,1 0.7,1.7c0,0.6 -0.1,1.1 -0.4,1.7c-0.2,0.5 -0.7,1.2 -1.3,1.9c-0.6,0.7 -1.9,2.1 -3.8,4.2l-6.8,6.9l0,5l20.3,0l0,-6.2l-10.6,0l0,-0.2c3,-2.8 5.1,-4.7 6,-5.7z" class="st4"/>
      <path stroke="null" id="svg_140" d="m823,383.7c1,-1 1.7,-1.9 2.3,-2.8c0.6,-0.9 1,-1.8 1.3,-2.8c0.3,-0.9 0.4,-1.9 0.4,-3c0,-1.5 -0.4,-2.8 -1.2,-4c-0.8,-1.2 -1.9,-2.1 -3.3,-2.7c-1.4,-0.6 -3,-1 -4.8,-1c-1.4,0 -2.7,0.1 -3.9,0.4c-1.1,0.3 -2.2,0.7 -3.2,1.3c-1,0.6 -2.2,1.5 -3.6,2.8l4.2,4.9c1.1,-1 2.2,-1.7 3.1,-2.2c0.9,-0.5 1.8,-0.8 2.7,-0.8c0.9,0 1.5,0.2 2,0.6c0.5,0.4 0.7,1 0.7,1.7c0,0.6 -0.1,1.2 -0.3,1.7c-0.2,0.5 -0.7,1.2 -1.3,1.9c-0.6,0.7 -1.9,2.1 -3.8,4.2l-6.8,6.9l0,5l20.3,0l0,-6.2l-10.6,0l0,-0.2c2.8,-2.8 4.9,-4.7 5.8,-5.7z" class="st4"/>
      <path stroke="null" id="svg_141" d="m841.2,389.6c-0.8,0.5 -2,0.7 -3.6,0.7c-1.1,0 -2.2,-0.2 -3.5,-0.5c-1.3,-0.3 -2.5,-0.8 -3.7,-1.4l0,6.3c1.5,0.6 2.9,1 4.2,1.2c1.3,0.2 2.7,0.3 4.2,0.3c3.7,0 6.5,-0.7 8.6,-2.2c2.1,-1.5 3.1,-3.5 3.1,-6.1c0,-3.8 -2.3,-6 -7,-6.6l0,-0.1c2,-0.6 3.5,-1.5 4.6,-2.7c1.1,-1.2 1.6,-2.7 1.6,-4.5c0,-2 -0.8,-3.6 -2.5,-4.7c-1.6,-1.2 -3.9,-1.7 -6.8,-1.7c-2,0 -3.8,0.2 -5.3,0.6c-1.5,0.4 -3.1,1.2 -4.5,2.2l3.1,5c1.9,-1.2 3.8,-1.8 5.5,-1.8c1,0 1.7,0.2 2.3,0.5c0.6,0.4 0.9,0.9 0.9,1.6c0,2 -1.9,3 -5.8,3l-1.8,0l0,5.7l1.7,0c1.4,0 2.6,0.1 3.4,0.3c0.9,0.2 1.5,0.5 1.9,0.9c0.4,0.4 0.6,1 0.6,1.8c0,1 -0.4,1.7 -1.2,2.2z" class="st4"/>
      <path stroke="null" id="svg_142" d="m822.5,291.8c1,-1 1.7,-1.9 2.3,-2.8c0.6,-0.9 1,-1.8 1.3,-2.8c0.3,-0.9 0.4,-1.9 0.4,-3c0,-1.5 -0.4,-2.8 -1.2,-4c-0.8,-1.2 -1.9,-2.1 -3.3,-2.7c-1.4,-0.6 -3,-1 -4.8,-1c-1.4,0 -2.7,0.1 -3.9,0.4c-1.2,0.3 -2.2,0.7 -3.2,1.3c-1,0.6 -2.2,1.5 -3.6,2.8l4.2,4.9c1.1,-1 2.1,-1.7 3.1,-2.2c0.9,-0.5 1.8,-0.8 2.7,-0.8c0.9,0 1.5,0.2 2,0.6c0.5,0.4 0.7,1 0.7,1.7c0,0.6 -0.1,1.1 -0.4,1.7c-0.2,0.5 -0.7,1.2 -1.3,1.9c-0.6,0.7 -1.9,2.1 -3.8,4.2l-6.8,6.9l0,5l20.1,0l0,-6.2l-10.6,0l0,-0.2c3.1,-2.8 5.1,-4.7 6.1,-5.7z" class="st4"/>
      <path stroke="null" id="svg_143" d="m840.8,275.9l-11.6,17l0,5.5l11.2,0l0,5.4l7.5,0l0,-5.4l3.1,0l0,-5.6l-3.1,0l0,-16.9l-7.1,0zm-0.4,11.2c0,1 -0.1,1.9 -0.1,2.5l0,3.3l-4.6,0l3.1,-4.6c0.5,-0.9 1,-1.8 1.5,-2.8l0.2,0c0,0.1 -0.1,0.6 -0.1,1.6z" class="st4"/>
      <path stroke="null" id="svg_144" d="m903.7,475.9c1,-1 1.7,-1.9 2.3,-2.8c0.6,-0.9 1,-1.8 1.3,-2.8c0.3,-0.9 0.4,-1.9 0.4,-3c0,-1.5 -0.4,-2.8 -1.2,-4c-0.8,-1.2 -1.9,-2.1 -3.3,-2.7c-1.4,-0.6 -3,-1 -4.8,-1c-1.4,0 -2.7,0.1 -3.9,0.4c-1.2,0.3 -2.2,0.7 -3.2,1.3c-1,0.6 -2.2,1.5 -3.6,2.8l4.2,4.9c1.1,-1 2.1,-1.7 3.1,-2.2c0.9,-0.5 1.8,-0.8 2.7,-0.8c0.9,0 1.5,0.2 2,0.6c0.5,0.4 0.7,1 0.7,1.7c0,0.6 -0.1,1.1 -0.4,1.7c-0.2,0.5 -0.7,1.2 -1.3,1.9c-0.6,0.7 -1.9,2.1 -3.8,4.2l-6.8,6.9l0,5l20.3,0l0,-6.2l-10.6,0l0,-0.2c2.9,-2.9 5,-4.7 5.9,-5.7z" class="st4"/>
      <path stroke="null" id="svg_145" d="m918.9,482.4c-1,0 -2.2,-0.2 -3.6,-0.5c-1.4,-0.3 -2.7,-0.8 -3.8,-1.3l0,6.2c2.1,1 4.7,1.5 8,1.5c3.8,0 6.7,-0.8 8.5,-2.5c1.9,-1.7 2.8,-4.1 2.8,-7.2c0,-1.8 -0.4,-3.4 -1.1,-4.7c-0.7,-1.4 -1.7,-2.4 -3,-3.2c-1.3,-0.8 -2.7,-1.1 -4.4,-1.1c-0.4,0 -0.7,0 -1.2,0c-0.4,0 -1.1,0.1 -2.1,0.3l0.3,-3.7l9.5,0l0,-6.2l-16,0l-1,14.8l2.8,1.4c1.4,-0.4 2.7,-0.7 3.8,-0.7c1.6,0 2.7,0.3 3.5,0.9c0.8,0.6 1.2,1.4 1.2,2.5c0,1.2 -0.4,2 -1.1,2.6c-0.6,0.6 -1.7,0.9 -3.1,0.9z" class="st4"/>
      <path stroke="null" id="svg_146" d="m903.4,383.7c1,-1 1.7,-1.9 2.3,-2.8c0.6,-0.9 1,-1.8 1.3,-2.8c0.3,-0.9 0.4,-1.9 0.4,-3c0,-1.5 -0.4,-2.8 -1.2,-4c-0.8,-1.2 -1.9,-2.1 -3.3,-2.7c-1.4,-0.6 -3,-1 -4.9,-1c-1.4,0 -2.7,0.1 -3.9,0.4c-1.1,0.3 -2.2,0.7 -3.2,1.3c-1,0.6 -2.2,1.5 -3.6,2.8l4.2,4.9c1.1,-1 2.1,-1.7 3,-2.2c0.9,-0.5 1.8,-0.8 2.7,-0.8c0.9,0 1.5,0.2 2,0.6c0.5,0.4 0.7,1 0.7,1.7c0,0.6 -0.1,1.2 -0.4,1.7c-0.2,0.5 -0.7,1.2 -1.3,1.9c-0.6,0.7 -1.9,2.1 -3.8,4.2l-6.8,6.9l0,5l20.3,0l0,-6.2l-10.6,0l0,-0.2c3.2,-2.8 5.2,-4.7 6.1,-5.7z" class="st4"/>
      <path stroke="null" id="svg_147" d="m925.3,373.3c1.5,0 2.9,0.1 4.2,0.4l0,-5.9c-1.5,-0.2 -2.9,-0.3 -4,-0.3c-3.2,0 -5.9,0.6 -8,1.7c-2.2,1.1 -3.8,2.9 -4.9,5.4c-1.1,2.4 -1.7,5.6 -1.7,9.5c0,3.8 0.9,6.9 2.8,9c1.9,2.1 4.4,3.2 7.8,3.2c3.1,0 5.5,-0.9 7.3,-2.7c1.7,-1.8 2.6,-4.2 2.6,-7.3c0,-2.9 -0.7,-5.1 -2.1,-6.7c-1.4,-1.6 -3.3,-2.4 -5.8,-2.4c-2.5,0 -4.4,1.1 -5.5,3.3l-0.2,0c0.1,-2.5 0.8,-4.3 2,-5.4c1,-1.2 2.9,-1.8 5.5,-1.8zm-6.2,10.6c0.5,-0.6 1.2,-0.9 2.1,-0.9c1.8,0 2.6,1.1 2.6,3.4c0,1.3 -0.3,2.3 -0.8,2.9c-0.5,0.6 -1.2,0.9 -2,0.9c-0.9,0 -1.5,-0.4 -2.1,-1.2c-0.5,-0.8 -0.8,-1.8 -0.8,-3c0.2,-0.8 0.5,-1.5 1,-2.1z" class="st4"/>
      <path stroke="null" id="svg_148" d="m903.5,291.8c1,-1 1.7,-1.9 2.3,-2.8c0.6,-0.9 1,-1.8 1.3,-2.8c0.3,-0.9 0.4,-1.9 0.4,-3c0,-1.5 -0.4,-2.8 -1.2,-4c-0.8,-1.2 -1.9,-2.1 -3.3,-2.7c-1.4,-0.6 -3,-1 -4.8,-1c-1.4,0 -2.7,0.1 -3.9,0.4c-1.1,0.3 -2.2,0.7 -3.2,1.3c-1,0.6 -2.2,1.5 -3.6,2.8l4.2,4.9c1.1,-1 2.2,-1.7 3.1,-2.2c0.9,-0.5 1.8,-0.8 2.7,-0.8c0.9,0 1.5,0.2 2,0.6c0.5,0.4 0.7,1 0.7,1.7c0,0.6 -0.1,1.1 -0.4,1.7c-0.2,0.5 -0.7,1.2 -1.3,1.9c-0.6,0.7 -1.9,2.1 -3.8,4.2l-6.8,6.9l0,5l20.1,0l0,-6.2l-10.6,0l0,-0.2c3.1,-2.8 5.1,-4.7 6.1,-5.7z" class="st4"/>
      <polygon stroke="null" id="svg_149" points="921.2999877929688,303.8999938964844 931.2000122070312,280.5 931.2000122070312,276 911,276 911,282.29998779296875 923.0999755859375,282.29998779296875 913.5,303.8999938964844 " class="st4"/>
      <path stroke="null" id="svg_150" d="m984.1,475.9c1,-1 1.7,-1.9 2.3,-2.8c0.6,-0.9 1,-1.8 1.3,-2.8c0.3,-0.9 0.4,-1.9 0.4,-3c0,-1.5 -0.4,-2.8 -1.2,-4c-0.8,-1.2 -1.9,-2.1 -3.3,-2.7c-1.4,-0.6 -3,-1 -4.8,-1c-1.4,0 -2.7,0.1 -3.9,0.4c-1.2,0.3 -2.2,0.7 -3.2,1.3c-1,0.6 -2.2,1.5 -3.6,2.8l4.2,4.9c1.1,-1 2.1,-1.7 3.1,-2.2c0.9,-0.5 1.8,-0.8 2.7,-0.8c0.9,0 1.5,0.2 2,0.6c0.5,0.4 0.7,1 0.7,1.7c0,0.6 -0.1,1.1 -0.4,1.7c-0.2,0.5 -0.7,1.2 -1.3,1.9c-0.6,0.7 -1.9,2.1 -3.8,4.2l-6.8,6.9l0,5l20.3,0l0,-6.2l-10.8,0l0,-0.2c3.1,-2.9 5.1,-4.7 6.1,-5.7z" class="st4"/>
      <path stroke="null" id="svg_151" d="m992.5,476.4c-0.8,1.1 -1.2,2.5 -1.2,4.1c0,2.5 0.9,4.4 2.6,5.8c1.7,1.3 4.3,2 7.6,2c3.2,0 5.7,-0.7 7.5,-2.1c1.8,-1.4 2.7,-3.3 2.7,-5.8c0,-1.4 -0.4,-2.6 -1.3,-3.8c-0.8,-1.2 -2.3,-2.3 -4.4,-3.5c1.7,-0.8 2.9,-1.8 3.7,-2.9c0.8,-1.1 1.2,-2.4 1.2,-3.9c0,-2.2 -0.8,-3.9 -2.5,-5.1c-1.6,-1.2 -3.9,-1.8 -6.9,-1.8c-2.9,0 -5.3,0.6 -6.9,1.8c-1.7,1.2 -2.5,2.9 -2.5,5c0,1.4 0.3,2.6 1,3.8c0.7,1.1 1.8,2.2 3.2,3.2c-1.7,1.1 -3,2.1 -3.8,3.2zm7.5,-10.8c0.4,-0.4 1,-0.6 1.6,-0.6c0.6,0 1.2,0.2 1.6,0.6c0.4,0.4 0.7,0.9 0.7,1.5c0,0.5 -0.2,1 -0.5,1.5c-0.3,0.4 -0.9,0.9 -1.9,1.4c-1.5,-0.8 -2.2,-1.8 -2.2,-2.9c0,-0.7 0.2,-1.1 0.7,-1.5zm-1,12.7c0.5,-0.6 1.3,-1.2 2.4,-1.8c1.3,0.8 2.1,1.4 2.6,2c0.5,0.6 0.7,1.2 0.7,1.8c0,1.6 -1.1,2.5 -3.4,2.5c-1,0 -1.8,-0.2 -2.3,-0.7c-0.6,-0.5 -0.8,-1.1 -0.8,-1.9c0.1,-0.6 0.3,-1.2 0.8,-1.9z" class="st4"/>
      <path stroke="null" id="svg_152" d="m984.1,383.7c1,-1 1.7,-1.9 2.3,-2.8c0.6,-0.9 1,-1.8 1.3,-2.8c0.3,-0.9 0.4,-1.9 0.4,-3c0,-1.5 -0.4,-2.8 -1.2,-4c-0.8,-1.2 -1.9,-2.1 -3.3,-2.7c-1.4,-0.6 -3,-1 -4.9,-1c-1.4,0 -2.7,0.1 -3.9,0.4c-1.1,0.3 -2.2,0.7 -3.2,1.3c-1,0.6 -2.2,1.5 -3.6,2.8l4.2,4.9c1.1,-1 2.1,-1.7 3,-2.2c0.9,-0.5 1.8,-0.8 2.7,-0.8c0.9,0 1.5,0.2 2,0.6c0.5,0.4 0.7,1 0.7,1.7c0,0.6 -0.1,1.2 -0.4,1.7c-0.2,0.5 -0.7,1.2 -1.3,1.9c-0.6,0.7 -1.9,2.1 -3.8,4.2l-6.8,6.9l0,5l20.3,0l0,-6.2l-10.6,0l0,-0.2c3.1,-2.8 5.1,-4.7 6.1,-5.7z" class="st4"/>
      <path stroke="null" id="svg_153" d="m1002.5,388.7c-1.5,1.1 -3.6,1.7 -6.3,1.7c-1.1,0 -2.2,-0.1 -3.3,-0.3l0,6c0.9,0.1 2.2,0.2 3.9,0.2c5.2,0 9,-1.2 11.3,-3.7c2.4,-2.4 3.5,-6.4 3.5,-11.9c0,-4.2 -0.9,-7.4 -2.8,-9.7c-1.9,-2.3 -4.5,-3.4 -7.9,-3.4c-3.1,0 -5.5,0.9 -7.3,2.6c-1.8,1.8 -2.7,4.2 -2.7,7.3c0,2.8 0.7,5.1 2.1,6.7c1.4,1.6 3.3,2.4 5.7,2.4c1,0 1.9,-0.1 2.6,-0.3c0.7,-0.2 1.3,-0.5 1.8,-0.9c0.5,-0.4 1,-1.1 1.5,-2l0.2,0c0,2.4 -0.8,4.2 -2.3,5.3zm0.8,-8.8c-0.6,0.6 -1.3,0.9 -2.2,0.9c-0.9,0 -1.6,-0.3 -2.1,-0.9c-0.4,-0.6 -0.7,-1.5 -0.7,-2.5c0,-1.3 0.3,-2.3 0.8,-2.9c0.5,-0.6 1.2,-0.9 2,-0.9c0.9,0 1.6,0.4 2.2,1.2c0.6,0.8 0.9,1.8 0.9,2.9c0,0.9 -0.3,1.6 -0.9,2.2z" class="st4"/>
      <path stroke="null" id="svg_154" d="m979.1,297.5c-0.8,0.5 -2,0.7 -3.6,0.7c-1.1,0 -2.2,-0.2 -3.5,-0.5c-1.3,-0.3 -2.5,-0.8 -3.7,-1.4l0,6.3c1.5,0.6 2.9,1 4.2,1.2c1.3,0.2 2.7,0.3 4.2,0.3c3.7,0 6.5,-0.7 8.6,-2.2c2.1,-1.5 3.1,-3.5 3.1,-6.1c0,-3.8 -2.3,-6 -7,-6.6l0,-0.2c2,-0.6 3.5,-1.5 4.6,-2.7c1.1,-1.2 1.6,-2.7 1.6,-4.5c0,-2 -0.8,-3.6 -2.5,-4.7c-1.6,-1.2 -3.9,-1.7 -6.8,-1.7c-2,0 -3.8,0.2 -5.3,0.6c-1.5,0.4 -3.1,1.2 -4.5,2.2l3.1,5c1.9,-1.2 3.8,-1.8 5.5,-1.8c1,0 1.7,0.2 2.3,0.5c0.6,0.4 0.9,0.9 0.9,1.6c0,2 -1.9,3 -5.8,3l-1.8,0l0,5.7l1.7,0c1.4,0 2.6,0.1 3.4,0.3c0.9,0.2 1.5,0.5 1.9,0.9c0.4,0.4 0.6,1 0.6,1.8c0,1.1 -0.4,1.8 -1.2,2.3z" class="st4"/>
      <path stroke="null" id="svg_155" d="m1001.4,304.1c3.4,0 6,-1.2 7.6,-3.5c1.7,-2.3 2.5,-5.9 2.5,-10.9c0,-4.8 -0.9,-8.4 -2.6,-10.8c-1.7,-2.4 -4.2,-3.6 -7.6,-3.6c-3.4,0 -6,1.2 -7.6,3.5c-1.7,2.3 -2.5,6 -2.5,10.9c0,4.8 0.8,8.3 2.5,10.7c1.8,2.5 4.3,3.7 7.7,3.7zm-2,-20.9c0.4,-1.2 1.1,-1.8 2,-1.8c0.9,0 1.6,0.6 2,1.9c0.4,1.2 0.6,3.4 0.6,6.5c0,3.1 -0.2,5.2 -0.6,6.5c-0.4,1.2 -1,1.8 -2,1.8c-0.9,0 -1.6,-0.6 -2,-1.8c-0.4,-1.2 -0.6,-3.4 -0.6,-6.5c0,-3.2 0.2,-5.4 0.6,-6.6z" class="st4"/>
      <path stroke="null" id="svg_156" d="m1082.7,487.9l7.7,0l0,-28l-6.8,0l-9.6,7.8l3.9,4.8l3.2,-2.6c0.7,-0.6 1.3,-1.2 1.8,-1.8c-0.1,1.5 -0.1,3.1 -0.1,4.9l0,14.9l-0.1,0z" class="st4"/>
      <path stroke="null" id="svg_157" d="m1061.6,481.7c-0.8,0.5 -2,0.7 -3.6,0.7c-1.1,0 -2.3,-0.2 -3.5,-0.5c-1.3,-0.3 -2.5,-0.8 -3.7,-1.4l0,6.3c1.5,0.6 2.9,1 4.2,1.2c1.3,0.2 2.7,0.3 4.2,0.3c3.7,0 6.5,-0.7 8.6,-2.2c2.1,-1.5 3.1,-3.5 3.1,-6.1c0,-3.8 -2.3,-6 -7,-6.6l0,-0.1c2,-0.6 3.5,-1.5 4.6,-2.7c1.1,-1.2 1.6,-2.7 1.6,-4.5c0,-2 -0.8,-3.6 -2.5,-4.7c-1.6,-1.2 -3.9,-1.7 -6.8,-1.7c-2,0 -3.8,0.2 -5.3,0.6c-1.5,0.4 -3.1,1.2 -4.5,2.2l3.1,5c1.9,-1.2 3.8,-1.8 5.5,-1.8c1,0 1.7,0.2 2.3,0.5c0.6,0.4 0.8,0.9 0.8,1.6c0,2 -1.9,3 -5.8,3l-1.8,0l0,5.7l1.7,0c1.4,0 2.6,0.1 3.4,0.3c0.9,0.2 1.5,0.5 1.9,0.9c0.4,0.4 0.6,1 0.6,1.8c0,1 -0.4,1.7 -1.1,2.2z" class="st4"/>
      <path stroke="null" id="svg_158" d="m1059.8,389.6c-0.8,0.5 -2,0.7 -3.6,0.7c-1.1,0 -2.3,-0.2 -3.5,-0.5c-1.3,-0.3 -2.5,-0.8 -3.7,-1.4l0,6.3c1.5,0.6 2.9,1 4.2,1.2c1.3,0.2 2.7,0.3 4.2,0.3c3.7,0 6.5,-0.7 8.6,-2.2c2.1,-1.5 3.1,-3.5 3.1,-6.1c0,-3.8 -2.3,-6 -7,-6.6l0,-0.1c2,-0.6 3.5,-1.5 4.6,-2.7c1.1,-1.2 1.6,-2.7 1.6,-4.5c0,-2 -0.8,-3.6 -2.5,-4.7c-1.6,-1.2 -3.9,-1.7 -6.8,-1.7c-2,0 -3.8,0.2 -5.3,0.6c-1.5,0.4 -3.1,1.2 -4.5,2.2l3.1,5c1.9,-1.2 3.8,-1.8 5.5,-1.8c1,0 1.7,0.2 2.3,0.5c0.6,0.4 0.9,0.9 0.9,1.6c0,2 -1.9,3 -5.8,3l-1.8,0l0,5.7l1.7,0c1.4,0 2.6,0.1 3.4,0.3c0.9,0.2 1.5,0.5 1.9,0.9c0.4,0.4 0.6,1 0.6,1.8c0,1 -0.4,1.7 -1.2,2.2z" class="st4"/>
      <path stroke="null" id="svg_159" d="m1087.6,383.7c1,-1 1.7,-1.9 2.3,-2.8c0.6,-0.9 1,-1.8 1.3,-2.8c0.3,-0.9 0.4,-1.9 0.4,-3c0,-1.5 -0.4,-2.8 -1.2,-4c-0.8,-1.2 -1.9,-2.1 -3.3,-2.7c-1.4,-0.6 -3,-1 -4.8,-1c-1.4,0 -2.7,0.1 -3.9,0.4c-1.2,0.3 -2.2,0.7 -3.2,1.3c-1,0.6 -2.2,1.5 -3.6,2.8l4.2,4.9c1.1,-1 2.1,-1.7 3.1,-2.2c0.9,-0.5 1.8,-0.8 2.7,-0.8c0.9,0 1.5,0.2 2,0.6c0.5,0.4 0.7,1 0.7,1.7c0,0.6 -0.1,1.2 -0.4,1.7c-0.2,0.5 -0.7,1.2 -1.3,1.9c-0.6,0.7 -1.9,2.1 -3.8,4.2l-6.8,6.9l0,5l20.3,0l0,-6.2l-10.6,0l0,-0.2c2.9,-2.8 4.9,-4.7 5.9,-5.7z" class="st4"/>
      <path stroke="null" id="svg_160" d="m1082.9,297.5c-0.8,0.5 -2,0.7 -3.6,0.7c-1.1,0 -2.2,-0.2 -3.5,-0.5c-1.3,-0.3 -2.5,-0.8 -3.7,-1.4l0,6.3c1.5,0.6 2.9,1 4.2,1.2c1.3,0.2 2.7,0.3 4.2,0.3c3.7,0 6.5,-0.7 8.6,-2.2c2.1,-1.5 3.1,-3.5 3.1,-6.1c0,-3.8 -2.3,-6 -7,-6.6l0,-0.2c2,-0.6 3.5,-1.5 4.6,-2.7c1.1,-1.2 1.6,-2.7 1.6,-4.5c0,-2 -0.8,-3.6 -2.5,-4.7c-1.6,-1.2 -3.9,-1.7 -6.8,-1.7c-2,0 -3.8,0.2 -5.3,0.6c-1.6,0.4 -3.1,1.2 -4.5,2.2l3.1,5c1.9,-1.2 3.8,-1.8 5.6,-1.8c1,0 1.7,0.2 2.3,0.5c0.6,0.4 0.8,0.9 0.8,1.6c0,2 -1.9,3 -5.8,3l-1.8,0l0,5.7l1.7,0c1.4,0 2.6,0.1 3.4,0.3c0.9,0.2 1.5,0.5 1.9,0.9c0.4,0.4 0.6,1 0.6,1.8c-0.1,1.1 -0.5,1.8 -1.2,2.3z" class="st4"/>
      <path stroke="null" id="svg_161" d="m1059.9,297.5c-0.8,0.5 -2,0.7 -3.6,0.7c-1.1,0 -2.2,-0.2 -3.5,-0.5c-1.3,-0.3 -2.5,-0.8 -3.7,-1.4l0,6.3c1.5,0.6 2.9,1 4.2,1.2c1.3,0.2 2.7,0.3 4.2,0.3c3.7,0 6.5,-0.7 8.6,-2.2c2.1,-1.5 3.1,-3.5 3.1,-6.1c0,-3.8 -2.3,-6 -7,-6.6l0,-0.2c2,-0.6 3.5,-1.5 4.6,-2.7c1.1,-1.2 1.6,-2.7 1.6,-4.5c0,-2 -0.8,-3.6 -2.5,-4.7c-1.6,-1.2 -3.9,-1.7 -6.8,-1.7c-2,0 -3.8,0.2 -5.3,0.6c-1.6,0.4 -3.1,1.2 -4.5,2.2l3.1,5c1.9,-1.2 3.8,-1.8 5.6,-1.8c1,0 1.7,0.2 2.3,0.5c0.6,0.4 0.9,0.9 0.9,1.6c0,2 -1.9,3 -5.8,3l-1.8,0l0,5.7l1.7,0c1.4,0 2.6,0.1 3.4,0.3c0.9,0.2 1.5,0.5 1.9,0.9c0.4,0.4 0.6,1 0.6,1.8c-0.2,1.1 -0.6,1.8 -1.3,2.3z" class="st4"/>
      <path stroke="null" id="svg_162" d="m1163.1,460l-11.6,17l0,5.5l11.2,0l0,5.4l7.5,0l0,-5.4l3.1,0l0,-5.6l-3.1,0l0,-16.9l-7.1,0zm-0.4,11.1c0,1 -0.1,1.9 -0.1,2.5l0,3.3l-4.6,0l3.1,-4.6c0.5,-0.9 1,-1.8 1.5,-2.8l0.2,0c-0.1,0.1 -0.1,0.6 -0.1,1.6z" class="st4"/>
      <path stroke="null" id="svg_163" d="m1140,481.7c-0.8,0.5 -2,0.7 -3.6,0.7c-1.1,0 -2.2,-0.2 -3.5,-0.5c-1.3,-0.3 -2.5,-0.8 -3.7,-1.4l0,6.3c1.5,0.6 2.9,1 4.2,1.2c1.3,0.2 2.7,0.3 4.2,0.3c3.7,0 6.5,-0.7 8.6,-2.2c2.1,-1.5 3.1,-3.5 3.1,-6.1c0,-3.8 -2.3,-6 -7,-6.6l0,-0.1c2,-0.6 3.5,-1.5 4.6,-2.7c1.1,-1.2 1.6,-2.7 1.6,-4.5c0,-2 -0.8,-3.6 -2.5,-4.7c-1.6,-1.2 -3.9,-1.7 -6.8,-1.7c-2,0 -3.8,0.2 -5.3,0.6c-1.6,0.4 -3.1,1.2 -4.5,2.2l3.1,5c1.9,-1.2 3.8,-1.8 5.5,-1.8c1,0 1.7,0.2 2.3,0.5c0.6,0.4 0.9,0.9 0.9,1.6c0,2 -1.9,3 -5.8,3l-1.8,0l0,5.7l1.7,0c1.4,0 2.6,0.1 3.4,0.3c0.9,0.2 1.5,0.5 1.9,0.9c0.4,0.4 0.6,1 0.6,1.8c-0.1,1 -0.4,1.7 -1.2,2.2z" class="st4"/>
      <path stroke="null" id="svg_164" d="m1140.6,389.6c-0.8,0.5 -2,0.7 -3.6,0.7c-1.1,0 -2.3,-0.2 -3.5,-0.5c-1.3,-0.3 -2.5,-0.8 -3.7,-1.4l0,6.3c1.5,0.6 2.9,1 4.2,1.2c1.3,0.2 2.7,0.3 4.2,0.3c3.7,0 6.5,-0.7 8.6,-2.2c2.1,-1.5 3.1,-3.5 3.1,-6.1c0,-3.8 -2.3,-6 -7,-6.6l0,-0.1c2,-0.6 3.5,-1.5 4.6,-2.7c1.1,-1.2 1.6,-2.7 1.6,-4.5c0,-2 -0.8,-3.6 -2.5,-4.7c-1.6,-1.2 -3.9,-1.7 -6.8,-1.7c-2,0 -3.8,0.2 -5.3,0.6c-1.5,0.4 -3.1,1.2 -4.5,2.2l3.1,5c1.9,-1.2 3.8,-1.8 5.5,-1.8c1,0 1.7,0.2 2.3,0.5c0.6,0.4 0.9,0.9 0.9,1.6c0,2 -1.9,3 -5.8,3l-1.8,0l0,5.7l1.7,0c1.4,0 2.6,0.1 3.4,0.3c0.9,0.2 1.5,0.5 1.9,0.9c0.4,0.4 0.6,1 0.6,1.8c-0.1,1 -0.4,1.7 -1.2,2.2z" class="st4"/>
      <path stroke="null" id="svg_165" d="m1160.5,390.3c-1,0 -2.2,-0.2 -3.6,-0.5c-1.4,-0.3 -2.7,-0.8 -3.8,-1.3l0,6.2c2.1,1 4.7,1.5 8,1.5c3.8,0 6.7,-0.8 8.5,-2.5c1.9,-1.7 2.8,-4.1 2.8,-7.2c0,-1.8 -0.4,-3.4 -1.1,-4.7c-0.7,-1.4 -1.7,-2.4 -3,-3.2c-1.3,-0.8 -2.7,-1.1 -4.4,-1.1c-0.4,0 -0.7,0 -1.2,0c-0.4,0 -1.1,0.1 -2.1,0.3l0.3,-3.7l9.5,0l0,-6.3l-16,0l-1.1,14.8l2.8,1.4c1.4,-0.4 2.7,-0.7 3.8,-0.7c1.6,0 2.7,0.3 3.5,0.9c0.8,0.6 1.2,1.4 1.2,2.5c0,1.2 -0.4,2 -1.1,2.6c-0.5,0.7 -1.6,1 -3,1z" class="st4"/>
      <path stroke="null" id="svg_166" d="m1140.3,297.5c-0.8,0.5 -2,0.7 -3.6,0.7c-1.1,0 -2.3,-0.2 -3.5,-0.5c-1.3,-0.3 -2.5,-0.8 -3.7,-1.4l0,6.3c1.5,0.6 2.9,1 4.2,1.2c1.3,0.2 2.7,0.3 4.2,0.3c3.7,0 6.5,-0.7 8.6,-2.2c2.1,-1.5 3.1,-3.5 3.1,-6.1c0,-3.8 -2.3,-6 -7,-6.6l0,-0.2c2,-0.6 3.5,-1.5 4.6,-2.7c1.1,-1.2 1.6,-2.7 1.6,-4.5c0,-2 -0.8,-3.6 -2.5,-4.7c-1.6,-1.2 -3.9,-1.7 -6.8,-1.7c-2,0 -3.8,0.2 -5.3,0.6c-1.5,0.4 -3.1,1.2 -4.5,2.2l3.1,5c1.9,-1.2 3.8,-1.8 5.5,-1.8c1,0 1.7,0.2 2.3,0.5c0.6,0.4 0.8,0.9 0.8,1.6c0,2 -1.9,3 -5.8,3l-1.8,0l0,5.7l1.7,0c1.4,0 2.6,0.1 3.4,0.3c0.9,0.2 1.5,0.5 1.9,0.9c0.4,0.4 0.6,1 0.6,1.8c0.1,1.1 -0.3,1.8 -1.1,2.3z" class="st4"/>
      <path stroke="null" id="svg_167" d="m1166.9,281.2c1.5,0 2.9,0.1 4.2,0.4l0,-5.9c-1.5,-0.2 -2.8,-0.3 -4,-0.3c-3.2,0 -5.9,0.6 -8,1.7c-2.2,1.1 -3.8,2.9 -4.9,5.4c-1.1,2.4 -1.7,5.6 -1.7,9.5c0,3.8 0.9,6.9 2.8,9c1.9,2.1 4.4,3.2 7.8,3.2c3.1,0 5.5,-0.9 7.3,-2.7c1.7,-1.8 2.6,-4.2 2.6,-7.3c0,-2.9 -0.7,-5.1 -2.1,-6.7c-1.4,-1.6 -3.3,-2.4 -5.8,-2.4c-2.5,0 -4.4,1.1 -5.5,3.3l-0.2,0c0.1,-2.5 0.8,-4.3 2,-5.4c1.1,-1.2 3,-1.8 5.5,-1.8zm-6.2,10.6c0.5,-0.6 1.2,-0.9 2.1,-0.9c1.8,0 2.6,1.1 2.6,3.4c0,1.3 -0.2,2.3 -0.8,2.9c-0.5,0.6 -1.2,0.9 -2,0.9c-0.9,0 -1.5,-0.4 -2.1,-1.2c-0.5,-0.8 -0.8,-1.8 -0.8,-3c0.2,-0.8 0.5,-1.5 1,-2.1z" class="st4"/>
     </g>
    </g>
    <g stroke="null" id="svg_168">
     <path stroke="null" id="svg_169" d="m306.4,241.8l-82.5,0l-1.9,0l0,95.9l84.4,0l0,-95.9zm-3.7,92.1l-76.9,0l0,-88.4l76.9,0l0,88.4z" class="st5"/>
     <path stroke="null" id="svg_170" d="m387.1,241.8l-82.5,0l-1.9,0l0,95.9l84.4,0l0,-95.9zm-3.8,92.1l-76.9,0l0,-88.4l76.9,0l0,88.4z" class="st5"/>
     <path stroke="null" id="svg_171" d="m385.2,241.8l-1.9,0l0,95.9l84.4,0l0,-95.9l-82.5,0zm78.7,92.1l-76.9,0l0,-88.4l76.9,0l0,88.4z" class="st5"/>
     <path stroke="null" id="svg_172" d="m548.3,241.8l-82.5,0l-1.9,0l0,95.9l84.4,0l0,-95.9zm-3.7,92.1l-76.9,0l0,-88.4l76.9,0l0,88.4z" class="st5"/>
     <path stroke="null" id="svg_173" d="m546.4,241.8l-1.9,0l0,95.9l84.4,0l0,-95.9l-82.5,0zm78.8,92.1l-76.9,0l0,-88.4l76.9,0l0,88.4z" class="st5"/>
     <path stroke="null" id="svg_174" d="m627.1,241.8l-1.9,0l0,95.9l84.4,0l0,-95.9l-82.5,0zm78.7,92.1l-76.9,0l0,-88.4l76.9,0l0,88.4z" class="st5"/>
     <path stroke="null" id="svg_175" d="m707.7,241.8l-1.9,0l0,95.9l84.4,0l0,-95.9l-82.5,0zm78.7,92.1l-76.9,0l0,-88.4l76.9,0l0,88.4z" class="st5"/>
     <path stroke="null" id="svg_176" d="m788.3,241.8l-1.9,0l0,95.9l84.4,0l0,-95.9l-82.5,0zm78.8,92.1l-76.9,0l0,-88.4l76.9,0l0,88.4z" class="st5"/>
     <path stroke="null" id="svg_177" d="m868.9,241.8l-1.9,0l0,95.9l84.4,0l0,-95.9l-82.5,0zm78.8,92.1l-76.9,0l0,-88.4l76.9,0l0,88.4z" class="st5"/>
     <path stroke="null" id="svg_178" d="m1032.1,241.8l-82.5,0l-1.9,0l0,95.9l84.4,0l0,-95.9zm-3.8,92.1l-76.9,0l0,-88.4l76.9,0l0,88.4z" class="st5"/>
     <path stroke="null" id="svg_179" d="m1030.2,241.8l-1.9,0l0,95.9l84.4,0l0,-95.9l-82.5,0zm78.7,92.1l-76.9,0l0,-88.4l76.9,0l0,88.4z" class="st5"/>
     <path stroke="null" id="svg_180" d="m1110.8,241.8l-1.9,0l0,95.9l84.4,0l0,-95.9l-82.5,0zm78.8,92.1l-76.9,0l0,-88.4l76.9,0l0,88.4z" class="st5"/>
     <path stroke="null" id="svg_181" d="m306.4,333.9l-82.5,0l-1.9,0l0,95.9l84.4,0l0,-95.9zm-3.7,92.1l-76.9,0l0,-88.4l76.9,0l0,88.4z" class="st5"/>
     <path stroke="null" id="svg_182" d="m387.1,333.9l-82.5,0l-1.9,0l0,95.9l84.4,0l0,-95.9zm-3.8,92.1l-76.9,0l0,-88.4l76.9,0l0,88.4z" class="st5"/>
     <path stroke="null" id="svg_183" d="m385.2,333.9l-1.9,0l0,95.9l84.4,0l0,-95.9l-82.5,0zm78.7,92.1l-76.9,0l0,-88.4l76.9,0l0,88.4z" class="st5"/>
     <path stroke="null" id="svg_184" d="m548.3,333.9l-82.5,0l-1.9,0l0,95.9l84.4,0l0,-95.9zm-3.7,92.1l-76.9,0l0,-88.4l76.9,0l0,88.4z" class="st5"/>
     <path stroke="null" id="svg_185" d="m546.4,333.9l-1.9,0l0,95.9l84.4,0l0,-95.9l-82.5,0zm78.8,92.1l-76.9,0l0,-88.4l76.9,0l0,88.4z" class="st5"/>
     <path stroke="null" id="svg_186" d="m627.1,333.9l-1.9,0l0,95.9l84.4,0l0,-95.9l-82.5,0zm78.7,92.1l-76.9,0l0,-88.4l76.9,0l0,88.4z" class="st5"/>
     <path stroke="null" id="svg_187" d="m707.7,333.9l-1.9,0l0,95.9l84.4,0l0,-95.9l-82.5,0zm78.7,92.1l-76.9,0l0,-88.4l76.9,0l0,88.4z" class="st5"/>
     <path stroke="null" id="svg_188" d="m788.3,333.9l-1.9,0l0,95.9l84.4,0l0,-95.9l-82.5,0zm78.8,92.1l-76.9,0l0,-88.4l76.9,0l0,88.4z" class="st5"/>
     <path stroke="null" id="svg_189" d="m868.9,333.9l-1.9,0l0,95.9l84.4,0l0,-95.9l-82.5,0zm78.8,92.1l-76.9,0l0,-88.4l76.9,0l0,88.4z" class="st5"/>
     <path stroke="null" id="svg_190" d="m1032.1,333.9l-82.5,0l-1.9,0l0,95.9l84.4,0l0,-95.9zm-3.8,92.1l-76.9,0l0,-88.4l76.9,0l0,88.4z" class="st5"/>
     <path stroke="null" id="svg_191" d="m1030.2,333.9l-1.9,0l0,95.9l84.4,0l0,-95.9l-82.5,0zm78.7,92.1l-76.9,0l0,-88.4l76.9,0l0,88.4z" class="st5"/>
     <path stroke="null" id="svg_192" d="m1110.8,333.9l-1.9,0l0,95.9l84.4,0l0,-95.9l-82.5,0zm78.8,92.1l-76.9,0l0,-88.4l76.9,0l0,88.4z" class="st5"/>
     <path stroke="null" id="svg_193" d="m306.4,426l-82.5,0l-1.9,0l0,95.9l84.4,0l0,-95.9zm-3.7,92.1l-76.9,0l0,-88.4l76.9,0l0,88.4z" class="st5"/>
     <path stroke="null" id="svg_194" d="m387.1,426l-82.5,0l-1.9,0l0,95.9l84.4,0l0,-95.9zm-3.8,92.1l-76.9,0l0,-88.4l76.9,0l0,88.4z" class="st5"/>
     <path stroke="null" id="svg_195" d="m385.2,426l-1.9,0l0,95.9l84.4,0l0,-95.9l-82.5,0zm78.7,92.1l-76.9,0l0,-88.4l76.9,0l0,88.4z" class="st5"/>
     <path stroke="null" id="svg_196" d="m548.3,426l-82.5,0l-1.9,0l0,95.9l84.4,0l0,-95.9zm-3.7,92.1l-76.9,0l0,-88.4l76.9,0l0,88.4z" class="st5"/>
     <path stroke="null" id="svg_197" d="m546.4,426l-1.9,0l0,95.9l84.4,0l0,-95.9l-82.5,0zm78.8,92.1l-76.9,0l0,-88.4l76.9,0l0,88.4z" class="st5"/>
     <path stroke="null" id="svg_198" d="m627.1,426l-1.9,0l0,95.9l84.4,0l0,-95.9l-82.5,0zm78.7,92.1l-76.9,0l0,-88.4l76.9,0l0,88.4z" class="st5"/>
     <path stroke="null" id="svg_199" d="m707.7,426l-1.9,0l0,95.9l84.4,0l0,-95.9l-82.5,0zm78.7,92.1l-76.9,0l0,-88.4l76.9,0l0,88.4z" class="st5"/>
     <path stroke="null" id="svg_200" d="m788.3,426l-1.9,0l0,95.9l84.4,0l0,-95.9l-82.5,0zm78.8,92.1l-76.9,0l0,-88.4l76.9,0l0,88.4z" class="st5"/>
     <path stroke="null" id="svg_201" d="m868.9,426l-1.9,0l0,95.9l84.4,0l0,-95.9l-82.5,0zm78.8,92.1l-76.9,0l0,-88.4l76.9,0l0,88.4z" class="st5"/>
     <path stroke="null" id="svg_202" d="m1032.1,426l-82.5,0l-1.9,0l0,95.9l84.4,0l0,-95.9zm-3.8,92.1l-76.9,0l0,-88.4l76.9,0l0,88.4z" class="st5"/>
     <path stroke="null" id="svg_203" d="m1030.2,426l-1.9,0l0,95.9l84.4,0l0,-95.9l-82.5,0zm78.7,92.1l-76.9,0l0,-88.4l76.9,0l0,88.4z" class="st5"/>
     <path stroke="null" id="svg_204" d="m1110.8,426l-1.9,0l0,95.9l84.4,0l0,-95.9l-82.5,0zm78.8,92.1l-76.9,0l0,-88.4l76.9,0l0,88.4z" class="st5"/>
     <path stroke="null" id="svg_205" d="m548.3,518.1l-324.4,0l-1.9,0l0,92.6l326.2,0l0,-92.6l0.1,0zm-3.7,88.9l-318.8,0l0,-85.1l318.7,0l0,85.1l0.1,0z" class="st5"/>
     <path stroke="null" id="svg_206" d="m546.4,518.1l-1.9,0l0,92.6l326.2,0l0,-92.6l-324.3,0zm320.7,88.9l-318.8,0l0,-85.1l318.7,0l0,85.1l0.1,0z" class="st5"/>
     <path stroke="null" id="svg_207" d="m1193.3,518.1l-324.4,0l-1.9,0l0,92.6l326.2,0l0,-92.6l0.1,0zm-3.7,88.9l-318.8,0l0,-85.1l318.8,0l0,85.1z" class="st5"/>
     <path stroke="null" id="svg_208" d="m387.1,607l-163.2,0l-1.9,0l0,92.6l165,0l0,-92.6l0.1,0zm-3.8,88.8l-157.5,0l0,-85.1l157.5,0l0,85.1z" class="st5"/>
     <path stroke="null" id="svg_209" d="m707.7,607l-1.9,0l0,92.6l165,0l0,-92.6l-163.1,0zm159.4,88.8l-157.5,0l0,-85.1l157.5,0l0,85.1z" class="st5"/>
     <path stroke="null" id="svg_210" d="m548.3,607l-163.1,0l-1.9,0l0,92.6l165,0l0,-92.6zm-3.7,88.8l-157.5,0l0,-85.1l157.5,0l0,85.1z" class="st5"/>
     <path stroke="null" id="svg_211" d="m1030.2,607l-1.9,0l0,92.6l165,0l0,-92.6l-163.1,0zm159.4,88.8l-157.5,0l0,-85.1l157.5,0l0,85.1z" class="st5"/>
     <path stroke="null" id="svg_212" d="m1032.1,607l-163.2,0l-1.9,0l0,92.6l165,0l0,-92.6l0.1,0zm-3.8,88.8l-157.5,0l0,-85.1l157.5,0l0,85.1z" class="st5"/>
     <path stroke="null" id="svg_213" d="m546.4,607l-1.9,0l0,92.6l165,0l0,-92.6l-163.1,0zm159.4,88.8l-157.5,0l0,-85.1l157.5,0l0,85.1z" class="st5"/>
     <path stroke="null" id="svg_214" d="m1273.9,241.8l-82.5,0l-1.9,0l0,95.9l84.4,0l0,-95.9zm-3.7,92.1l-76.9,0l0,-88.4l76.9,0l0,88.4z" class="st5"/>
     <path stroke="null" id="svg_215" d="m1273.9,333.9l-82.5,0l-1.9,0l0,95.9l84.4,0l0,-95.9zm-3.7,92.1l-76.9,0l0,-88.4l76.9,0l0,88.4z" class="st5"/>
     <path stroke="null" id="svg_216" d="m1273.9,426l-82.5,0l-1.9,0l0,95.9l84.4,0l0,-95.9zm-3.7,92.1l-76.9,0l0,-88.4l76.9,0l0,88.4z" class="st5"/>
     <path stroke="null" id="svg_217" d="m1264,253.1l-62.7,0l-1.9,0l0,73.3l64.6,0l0,-73.3zm-3.7,69.5l-57.1,0l0,-65.8l57.1,0l0,65.8z" class="st5"/>
     <path stroke="null" id="svg_218" d="m1264,345.2l-62.7,0l-1.9,0l0,73.3l64.6,0l0,-73.3zm-3.7,69.5l-57.1,0l0,-65.7l57.1,0l0,65.7z" class="st5"/>
     <path stroke="null" id="svg_219" d="m1264,437.3l-62.7,0l-1.9,0l0,73.3l64.6,0l0,-73.3zm-3.7,69.5l-57.1,0l0,-65.8l57.1,0l0,65.8z" class="st5"/>
     <path stroke="null" id="svg_220" d="m487.9,534.8l-203.6,0l-1.9,0l0,59.3l205.5,0l0,-59.3zm-3.7,55.5l-198,0l0,-51.8l198,0l0,51.8z" class="st5"/>
     <path stroke="null" id="svg_221" d="m606.8,534.8l-1.8,0l0,59.3l205.5,0l0,-59.3l-203.7,0zm199.9,55.5l-198,0l0,-51.8l198,0l0,51.8z" class="st5"/>
     <path stroke="null" id="svg_222" d="m1132.9,534.8l-203.6,0l-1.9,0l0,59.3l205.5,0l0,-59.3zm-3.7,55.5l-198,0l0,-51.8l198,0l0,51.8z" class="st5"/>
    </g>
   </g>
   <g stroke="null" id="svg_225" transform="translate(0,-200)">
    <g stroke="null" transform="matrix(0.00024236181085907047,0.9999999705369148,-0.9984126392886691,0.00024274713097684474,1307.8957068086195,280.50694629777615) " id="svg_226">
     <circle stroke="null" id="svg_227" r="24.299999" cy="794.498653" cx="515.700243" class="st6"/>
     <path stroke="null" id="svg_228" d="m491.400243,794.498653c0,1.1 0.1,2.2 0.2,3.2l15.7,0l-11.2,11.2c1.4,1.9 3.1,3.6 5,5l11.2,-11.2l0,15.8c1.1,0.1 2.2,0.2 3.3,0.2c1.3,0 2.5,-0.1 3.8,-0.3l0,-15.8l11,11c1.9,-1.5 3.6,-3.2 4.9,-5.1l-10.9,-10.9l15.3,0c0.1,-1.1 0.2,-2.1 0.2,-3.2c0,-1.3 -0.1,-2.6 -0.3,-3.9l-15.2,0l10.7,-10.7c-1.4,-1.9 -3.1,-3.6 -5,-5l-10.6,10.6l0,-15.1c-1.2,-0.2 -2.5,-0.3 -3.8,-0.3c-1.1,0 -2.2,0.1 -3.3,0.2l0,15.2l-10.8,-10.8c-1.9,1.4 -3.7,3.1 -5.1,4.9l10.9,10.9l-15.6,0c-0.3,1.5 -0.4,2.8 -0.4,4.1z" class="st4"/>
     <circle stroke="null" id="svg_229" r="16.299999" cy="793.498653" cx="514.700243" class="st6"/>
     <path stroke="null" id="svg_230" d="m528.100243,806.898653c3.2,-3.2 5.1,-7.5 5.1,-12.4c0,-4.8 -2,-9.2 -5.1,-12.4c-3.2,-3.2 -7.5,-5.1 -12.4,-5.1c-4.8,0 -9.2,2 -12.4,5.1c-3.2,3.2 -5.1,7.5 -5.1,12.4c0,4.8 2,9.2 5.1,12.4c3.2,3.2 7.5,5.1 12.4,5.1c4.8,0 9.2,-1.9 12.4,-5.1zm-27.6,-12.4c0,-4.2 1.7,-8 4.4,-10.7c2.7,-2.7 6.5,-4.4 10.7,-4.4c4.2,0 8,1.7 10.7,4.4c2.7,2.7 4.4,6.5 4.4,10.7c0,4.2 -1.7,8 -4.4,10.7c-2.7,2.7 -6.5,4.4 -10.7,4.4c-4.2,0 -8,-1.7 -10.7,-4.4c-2.7,-2.7 -4.4,-6.5 -4.4,-10.7z" class="st4"/>
    </g>
    <g stroke="null" id="svg_231">
     <circle stroke="null" id="svg_232" r="24.261415" cy="796.5" cx="607.336014" class="st1"/>
     <path stroke="null" id="svg_233" d="m583.074586,796.5c0,1.1 0.099841,2.2 0.199683,3.2l15.77492,0l-11.182222,11.2c1.397778,1.9 3.095079,3.6 4.992063,5l11.182222,-11.2l0,15.8c1.098254,0.1 2.196508,0.2 3.294762,0.2c1.297936,0 2.496032,-0.1 3.793968,-0.3l0,-15.8l10.982539,11c1.896984,-1.5 3.594286,-3.2 4.892222,-5.1l-10.882698,-10.9l15.275714,0c0.099841,-1.1 0.199683,-2.1 0.199683,-3.2c0,-1.3 -0.099841,-2.6 -0.299524,-3.9l-15.175873,0l10.683016,-10.7c-1.397778,-1.9 -3.095079,-3.6 -4.992063,-5l-10.583174,10.6l0,-15.1c-1.198095,-0.2 -2.496032,-0.3 -3.793968,-0.3c-1.098254,0 -2.196508,0.1 -3.294762,0.2l0,15.2l-10.782857,-10.8c-1.896984,1.4 -3.694127,3.1 -5.091905,4.9l10.882698,10.9l-15.575238,0c-0.299524,1.5 -0.499206,2.8 -0.499206,4.1z" class="st4"/>
     <circle stroke="null" id="svg_234" r="16.274115" cy="796.5" cx="607.336014" class="st1"/>
     <path stroke="null" id="svg_235" d="m619.716331,808.9c3.194921,-3.2 5.091905,-7.5 5.091905,-12.4c0,-4.8 -1.996825,-9.2 -5.091905,-12.4c-3.194921,-3.2 -7.488095,-5.1 -12.380317,-5.1c-4.792381,0 -9.185397,2 -12.380317,5.1c-3.194921,3.2 -5.091905,7.5 -5.091905,12.4c0,4.8 1.996825,9.2 5.091905,12.4c3.194921,3.2 7.488095,5.1 12.380317,5.1c4.892222,0 9.185397,-1.9 12.380317,-5.1zm-27.456348,-12.4c0,-4.2 1.697302,-8 4.393016,-10.7c2.695714,-2.7 6.489682,-4.4 10.683016,-4.4c4.193333,0 7.987301,1.7 10.683016,4.4c2.695714,2.7 4.393016,6.5 4.393016,10.7c0,4.2 -1.697302,8 -4.393016,10.7c-2.695714,2.7 -6.489682,4.4 -10.683016,4.4c-4.193333,0 -7.987301,-1.7 -10.683016,-4.4c-2.695714,-2.7 -4.393016,-6.5 -4.393016,-10.7z" class="st4"/>
    </g>
    <g stroke="null" id="svg_236">
     <circle stroke="null" id="svg_237" r="24.261415" cy="796.5" cx="699.888868" class="st5"/>
     <path stroke="null" id="svg_238" d="m675.62744,796.5c0,1.1 0.099841,2.2 0.199683,3.2l15.675079,0l-11.182222,11.2c1.397778,1.9 3.095079,3.6 4.992063,5l11.182222,-11.2l0,15.8c1.098254,0.1 2.196508,0.2 3.294762,0.2c1.297936,0 2.496032,-0.1 3.793968,-0.3l0,-15.8l10.982539,11c1.896984,-1.5 3.594286,-3.2 4.892222,-5.1l-10.882698,-10.9l15.275714,0c0.099841,-1.1 0.199683,-2.1 0.199683,-3.2c0,-1.3 -0.099841,-2.6 -0.299524,-3.9l-15.175873,0l10.683016,-10.7c-1.397778,-1.9 -3.095079,-3.6 -4.992063,-5l-10.583174,10.6l0,-15.1c-1.198095,-0.2 -2.496032,-0.3 -3.793968,-0.3c-1.098254,0 -2.196508,0.1 -3.294762,0.2l0,15.2l-10.782857,-10.8c-1.896984,1.4 -3.694127,3.1 -5.091905,4.9l10.882698,10.9l-15.675079,0c-0.199683,1.5 -0.299524,2.8 -0.299524,4.1z" class="st4"/>
     <circle stroke="null" id="svg_239" r="16.274115" cy="796.5" cx="699.888868" class="st5"/>
     <path stroke="null" id="svg_240" d="m712.269185,808.9c3.194921,-3.2 5.091905,-7.5 5.091905,-12.4c0,-4.8 -1.996825,-9.2 -5.091905,-12.4c-3.194921,-3.2 -7.488095,-5.1 -12.380317,-5.1c-4.792381,0 -9.185397,2 -12.380317,5.1c-3.194921,3.2 -5.091905,7.5 -5.091905,12.4c0,4.8 1.996825,9.2 5.091905,12.4c3.194921,3.2 7.488095,5.1 12.380317,5.1c4.792381,0 9.185397,-1.9 12.380317,-5.1zm-27.456348,-12.4c0,-4.2 1.697302,-8 4.393016,-10.7c2.695714,-2.7 6.489682,-4.4 10.683016,-4.4c4.193333,0 7.987301,1.7 10.683016,4.4c2.695714,2.7 4.393016,6.5 4.393016,10.7c0,4.2 -1.697302,8 -4.393016,10.7c-2.695714,2.7 -6.489682,4.4 -10.683016,4.4c-4.193333,0 -7.987301,-1.7 -10.683016,-4.4c-2.695714,-2.7 -4.393016,-6.5 -4.393016,-10.7z" class="st4"/>
    </g>
    <g stroke="null" id="svg_241">
     <circle stroke="null" id="svg_242" r="24.261415" cy="796.5" cx="792.441722" class="st2"/>
     <path stroke="null" id="svg_243" d="m768.180295,796.5c0,1.1 0.099841,2.2 0.199683,3.2l15.675079,0l-11.182222,11.2c1.397778,1.9 3.095079,3.6 4.992063,5l11.182222,-11.2l0,15.8c1.098254,0.1 2.196508,0.2 3.294762,0.2c1.297936,0 2.496032,-0.1 3.793968,-0.3l0,-15.8l10.982539,11c1.896984,-1.5 3.594286,-3.2 4.892222,-5.1l-10.882698,-10.9l15.275714,0c0.099841,-1.1 0.199683,-2.1 0.199683,-3.2c0,-1.3 -0.099841,-2.6 -0.299524,-3.9l-15.175873,0l10.683016,-10.7c-1.397778,-1.9 -3.095079,-3.6 -4.992063,-5l-10.583174,10.6l0,-15.1c-1.198095,-0.2 -2.496032,-0.3 -3.793968,-0.3c-1.098254,0 -2.196508,0.1 -3.294762,0.2l0,15.2l-10.782857,-10.8c-1.896984,1.4 -3.694127,3.1 -5.091905,4.9l10.882698,10.9l-15.575238,0c-0.299524,1.5 -0.399365,2.8 -0.399365,4.1z" class="st4"/>
     <circle stroke="null" id="svg_244" r="16.274115" cy="796.5" cx="792.441722" class="st2"/>
     <path stroke="null" id="svg_245" d="m804.722198,808.9c3.194921,-3.2 5.091905,-7.5 5.091905,-12.4c0,-4.8 -1.996825,-9.2 -5.091905,-12.4c-3.194921,-3.2 -7.488095,-5.1 -12.380317,-5.1c-4.792381,0 -9.185397,2 -12.380317,5.1c-3.194921,3.2 -5.091905,7.5 -5.091905,12.4c0,4.8 1.996825,9.2 5.091905,12.4c3.194921,3.2 7.488095,5.1 12.380317,5.1c4.892222,0 9.285238,-1.9 12.380317,-5.1zm-27.456348,-12.4c0,-4.2 1.697302,-8 4.393016,-10.7c2.695714,-2.7 6.489682,-4.4 10.683016,-4.4c4.193333,0 7.987301,1.7 10.683016,4.4c2.695714,2.7 4.393016,6.5 4.393016,10.7c0,4.2 -1.697302,8 -4.393016,10.7c-2.695714,2.7 -6.489682,4.4 -10.683016,4.4c-4.193333,0 -7.987301,-1.7 -10.683016,-4.4c-2.695714,-2.7 -4.393016,-6.5 -4.393016,-10.7z" class="st4"/>
    </g>
    <g stroke="null" id="svg_246">
     <circle stroke="null" id="svg_247" r="24.261415" cy="796.5" cx="884.894736" class="st5"/>
     <path stroke="null" id="svg_248" d="m860.633308,796.5c0,1.1 0.099841,2.2 0.199683,3.2l15.77492,0l-11.182222,11.2c1.397778,1.9 3.095079,3.6 4.992063,5l11.182222,-11.2l0,15.8c1.098254,0.1 2.196508,0.2 3.294762,0.2c1.297936,0 2.496032,-0.1 3.793968,-0.3l0,-15.8l10.982539,11c1.896984,-1.5 3.594286,-3.2 4.892222,-5.1l-10.882698,-10.9l15.275714,0c0.099841,-1.1 0.199683,-2.1 0.199683,-3.2c0,-1.3 -0.099841,-2.6 -0.299524,-3.9l-15.175873,0l10.683016,-10.7c-1.397778,-1.9 -3.095079,-3.6 -4.992063,-5l-10.583174,10.6l0,-15.1c-1.198095,-0.2 -2.496032,-0.3 -3.793968,-0.3c-1.098254,0 -2.196508,0.1 -3.294762,0.2l0,15.2l-10.782857,-10.8c-1.896984,1.4 -3.694127,3.1 -5.091905,4.9l10.882698,10.9l-15.575238,0c-0.399365,1.5 -0.499206,2.8 -0.499206,4.1z" class="st4"/>
     <circle stroke="null" id="svg_249" r="16.274115" cy="796.5" cx="884.894736" class="st5"/>
     <path stroke="null" id="svg_250" d="m897.275053,808.9c3.194921,-3.2 5.091905,-7.5 5.091905,-12.4c0,-4.8 -1.996825,-9.2 -5.091905,-12.4c-3.194921,-3.2 -7.488095,-5.1 -12.380317,-5.1c-4.792381,0 -9.185397,2 -12.380317,5.1c-3.194921,3.2 -5.091905,7.5 -5.091905,12.4c0,4.8 1.996825,9.2 5.091905,12.4c3.194921,3.2 7.488095,5.1 12.380317,5.1c4.792381,0 9.185397,-1.9 12.380317,-5.1zm-27.456348,-12.4c0,-4.2 1.697302,-8 4.393016,-10.7c2.695714,-2.7 6.489682,-4.4 10.683016,-4.4c4.193333,0 7.987301,1.7 10.683016,4.4c2.695714,2.7 4.393016,6.5 4.393016,10.7c0,4.2 -1.697302,8 -4.393016,10.7c-2.695714,2.7 -6.489682,4.4 -10.683016,4.4c-4.193333,0 -7.987301,-1.7 -10.683016,-4.4c-2.695714,-2.7 -4.393016,-6.5 -4.393016,-10.7z" class="st4"/>
    </g>
   </g>
  </g>
 </g>
</svg>
